{"glyphs":{"0":{"ha":853,"x_min":0,"x_max":0,"o":"m 761 456 b 428 931 761 775 640 931 b 92 453 215 931 92 769 b 425 -21 92 133 214 -21 b 761 456 638 -21 761 138 z m 242 456 b 426 796 242 701 301 796 b 590 653 508 796 563 754 l 244 364 b 242 456 243 392 242 422 z m 611 453 b 426 114 611 207 550 114 b 264 253 346 114 292 154 l 608 540 b 611 453 610 514 611 485 z "},"1":{"ha":853,"x_min":0,"x_max":0,"o":"m 147 0 l 740 0 l 740 131 l 531 131 l 531 925 l 479 925 l 146 757 l 146 603 l 374 718 l 374 131 l 147 131 z "},"2":{"ha":853,"x_min":0,"x_max":0,"o":"m 110 0 l 765 0 l 765 131 l 310 131 l 310 135 l 519 339 b 738 679 706 518 738 582 b 457 931 738 835 621 931 b 88 740 335 931 242 885 l 174 636 b 447 796 311 764 368 796 b 579 674 533 796 579 747 b 389 396 579 608 554 561 l 110 115 z "},"3":{"ha":853,"x_min":0,"x_max":0,"o":"m 101 779 l 510 779 l 510 775 l 243 492 l 275 413 b 410 426 328 422 369 426 b 593 303 539 426 593 378 b 285 140 593 214 517 157 l 117 128 l 131 -14 l 300 -3 b 753 303 626 19 753 135 b 463 544 753 419 668 542 l 463 547 l 711 807 l 711 910 l 101 910 z "},"4":{"ha":853,"x_min":0,"x_max":0,"o":"m 64 228 l 494 228 l 494 0 l 643 0 l 643 228 l 818 228 l 818 353 l 643 353 l 643 910 l 439 910 l 64 336 z m 507 810 l 507 339 l 206 339 l 206 343 z "},"5":{"ha":853,"x_min":0,"x_max":0,"o":"m 749 324 b 485 586 749 492 629 586 b 276 526 408 586 339 567 l 297 779 l 694 779 l 694 910 l 167 910 l 135 426 l 139 419 l 249 400 b 447 465 313 442 381 465 b 590 328 528 465 590 417 b 275 138 590 221 518 160 l 110 122 l 125 -14 l 286 0 b 749 324 624 29 749 144 z "},"6":{"ha":853,"x_min":0,"x_max":0,"o":"m 758 297 b 461 597 758 488 644 597 b 339 581 424 597 382 593 b 472 732 372 631 417 681 l 665 907 l 664 910 l 458 910 l 336 790 b 96 313 164 622 96 493 b 421 -21 96 110 231 -21 b 758 297 619 -21 758 110 z m 254 318 b 282 468 254 368 263 418 b 419 488 328 482 372 488 b 599 300 533 488 599 418 b 424 107 599 183 531 107 b 254 318 326 107 254 186 z "},"7":{"ha":853,"x_min":0,"x_max":0,"o":"m 372 0 l 743 776 l 743 910 l 83 910 l 83 778 l 588 778 l 588 769 l 190 3 l 190 0 z "},"8":{"ha":853,"x_min":0,"x_max":0,"o":"m 425 -21 b 757 242 615 -21 757 81 b 556 467 757 350 676 432 l 556 474 b 731 682 663 507 731 582 b 429 931 731 836 604 931 b 122 679 253 931 122 835 b 297 474 122 581 190 506 l 297 467 b 96 239 175 431 96 347 b 425 -21 96 78 238 -21 z m 426 519 b 272 664 343 519 272 574 b 428 808 272 756 339 808 b 581 667 517 808 581 757 b 426 519 581 576 511 519 z m 426 100 b 247 254 324 100 247 158 b 426 413 247 351 325 413 b 606 257 528 413 606 354 b 426 100 606 160 529 100 z "},"9":{"ha":853,"x_min":0,"x_max":0,"o":"m 518 119 b 758 597 688 285 758 422 b 436 931 758 800 626 931 b 94 613 235 931 94 800 b 393 313 94 422 208 313 b 515 329 431 313 471 317 b 381 178 482 279 438 229 l 189 3 l 190 0 l 396 0 z m 600 592 b 572 442 600 542 592 492 b 435 422 525 428 481 422 b 254 610 319 422 254 492 b 429 803 254 726 322 803 b 600 592 528 803 600 724 z "},"A":{"ha":853,"x_min":0,"x_max":0,"o":"m 204 0 l 271 215 l 574 215 l 640 0 l 804 0 l 524 910 l 329 910 l 49 0 z m 304 339 l 422 747 l 539 339 z "},"B":{"ha":853,"x_min":0,"x_max":0,"o":"m 122 910 l 122 0 l 471 0 b 790 228 711 0 790 94 b 542 465 790 358 701 443 l 542 471 b 750 697 692 508 750 593 b 468 910 750 825 668 910 z m 446 789 b 593 668 546 789 593 750 b 399 519 593 588 536 526 l 276 513 l 276 789 z m 417 396 b 633 247 574 389 633 331 b 464 119 633 169 585 119 l 276 119 l 276 403 z "},"C":{"ha":853,"x_min":0,"x_max":0,"o":"m 457 -21 b 793 106 558 -21 667 13 l 722 213 b 478 110 614 135 540 110 b 233 456 343 110 233 211 b 486 800 233 681 347 800 b 711 700 544 800 601 783 l 785 813 b 483 931 661 901 583 931 b 74 453 242 931 74 733 b 457 -21 74 149 217 -21 z "},"D":{"ha":853,"x_min":0,"x_max":0,"o":"m 118 910 l 118 0 l 239 0 b 785 465 610 0 785 183 b 276 910 785 744 608 910 z m 325 778 b 625 463 506 772 625 675 b 294 132 625 242 511 140 l 274 131 l 274 781 z "},"E":{"ha":853,"x_min":0,"x_max":0,"o":"m 129 910 l 129 0 l 753 0 l 753 131 l 286 131 l 286 394 l 686 394 l 686 524 l 286 524 l 286 779 l 747 779 l 747 910 z "},"F":{"ha":853,"x_min":0,"x_max":0,"o":"m 136 910 l 136 0 l 293 0 l 293 349 l 701 349 l 701 479 l 293 479 l 293 779 l 744 779 l 744 910 z "},"G":{"ha":853,"x_min":0,"x_max":0,"o":"m 692 781 l 704 910 b 554 924 640 919 603 924 b 72 450 253 924 72 746 b 506 -21 72 138 221 -21 b 771 17 593 -21 682 -7 l 771 503 l 431 503 l 431 381 l 622 381 l 622 121 b 522 110 588 113 554 110 b 233 456 324 110 233 217 b 563 792 233 682 358 792 b 692 781 606 792 638 789 z "},"H":{"ha":853,"x_min":0,"x_max":0,"o":"m 118 910 l 118 0 l 274 0 l 274 393 l 579 393 l 579 0 l 735 0 l 735 910 l 579 910 l 579 524 l 274 524 l 274 910 z "},"I":{"ha":853,"x_min":0,"x_max":0,"o":"m 171 82 l 171 0 l 682 0 l 682 82 l 506 115 l 506 794 l 682 828 l 682 910 l 171 910 l 171 828 l 350 794 l 350 115 z "},"J":{"ha":853,"x_min":0,"x_max":0,"o":"m 451 -18 b 733 263 639 -18 733 96 l 733 910 l 576 910 l 576 275 b 444 122 576 172 532 122 b 153 294 378 122 308 156 l 57 181 b 451 -18 239 18 331 -18 z "},"K":{"ha":853,"x_min":0,"x_max":0,"o":"m 279 910 l 122 910 l 122 0 l 279 0 l 279 442 l 631 0 l 829 0 l 829 3 l 454 468 l 818 907 l 818 910 l 631 910 l 279 472 z "},"L":{"ha":853,"x_min":0,"x_max":0,"o":"m 129 910 l 129 0 l 761 0 l 761 129 l 286 129 l 286 910 z "},"M":{"ha":853,"x_min":0,"x_max":0,"o":"m 733 910 l 576 910 l 429 496 l 281 910 l 119 910 l 81 0 l 224 0 l 246 706 l 411 240 l 440 240 l 604 713 l 626 0 l 772 0 z "},"N":{"ha":853,"x_min":0,"x_max":0,"o":"m 260 0 l 251 671 l 571 0 l 738 0 l 738 910 l 593 910 l 601 250 l 288 910 l 115 910 l 115 0 z "},"O":{"ha":853,"x_min":0,"x_max":0,"o":"m 779 456 b 428 931 779 775 644 931 b 74 453 211 931 74 769 b 425 -21 74 133 210 -21 b 779 456 642 -21 779 138 z m 233 456 b 426 800 233 706 306 800 b 619 453 546 800 619 706 b 426 110 619 203 547 110 b 233 456 307 110 233 204 z "},"P":{"ha":853,"x_min":0,"x_max":0,"o":"m 122 910 l 122 0 l 279 0 l 279 308 l 424 308 b 794 613 656 308 794 414 b 436 910 794 794 669 910 z m 443 779 b 636 610 571 779 636 718 b 433 435 636 501 565 435 l 279 435 l 279 779 z "},"Q":{"ha":853,"x_min":0,"x_max":0,"o":"m 856 -153 l 663 85 b 779 456 736 165 779 290 b 428 931 779 775 644 931 b 74 451 211 931 74 771 b 425 -18 74 135 210 -18 b 565 13 475 -18 522 -8 l 719 -240 z m 233 454 b 426 800 233 707 306 800 b 619 453 546 800 619 706 b 426 108 619 197 554 108 b 233 454 307 108 233 203 z "},"R":{"ha":853,"x_min":0,"x_max":0,"o":"m 819 6 l 615 253 b 461 378 554 326 518 351 l 461 386 b 758 654 693 422 758 521 b 460 910 758 813 657 910 l 122 910 l 122 0 l 278 0 l 278 347 b 454 229 363 338 394 311 l 624 0 l 819 0 z m 435 785 b 601 640 550 785 601 733 b 328 461 601 551 557 490 l 278 454 l 278 785 z "},"S":{"ha":853,"x_min":0,"x_max":0,"o":"m 424 111 b 122 179 349 111 246 136 l 89 46 b 421 -19 214 3 318 -19 b 757 253 639 -19 757 90 b 526 513 757 392 693 463 l 431 543 b 279 689 308 582 279 622 b 443 797 279 751 324 797 b 704 753 510 797 593 783 l 726 886 b 446 926 624 913 546 926 b 122 676 231 926 122 808 b 353 411 122 544 189 464 l 446 382 b 599 242 571 343 599 307 b 424 111 599 161 547 111 z "},"T":{"ha":853,"x_min":0,"x_max":0,"o":"m 63 779 l 349 779 l 349 0 l 504 0 l 504 779 l 790 779 l 790 910 l 63 910 z "},"U":{"ha":853,"x_min":0,"x_max":0,"o":"m 596 318 b 426 121 596 179 538 121 b 258 318 317 121 258 182 l 258 910 l 101 910 l 101 319 b 422 -21 101 90 208 -21 b 751 319 642 -21 751 86 l 751 910 l 596 910 z "},"V":{"ha":853,"x_min":0,"x_max":0,"o":"m 49 910 l 332 0 l 522 0 l 804 910 l 650 910 l 431 178 l 211 910 z "},"W":{"ha":853,"x_min":0,"x_max":0,"o":"m 678 0 l 794 910 l 649 910 l 576 239 l 444 738 l 411 738 l 278 238 l 207 910 l 58 910 l 175 0 l 315 0 l 424 458 l 533 0 z "},"X":{"ha":853,"x_min":0,"x_max":0,"o":"m 49 0 l 218 0 l 422 353 l 624 0 l 804 0 l 511 471 l 781 910 l 608 910 l 426 586 l 246 910 l 68 910 l 338 465 z "},"Y":{"ha":853,"x_min":0,"x_max":0,"o":"m 813 910 l 640 910 l 429 533 l 218 910 l 40 910 l 349 385 l 349 0 l 504 0 l 504 389 z "},"Z":{"ha":853,"x_min":0,"x_max":0,"o":"m 85 0 l 769 0 l 769 135 l 286 135 l 286 140 l 751 801 l 751 910 l 103 910 l 103 774 l 543 774 l 543 767 l 85 107 z "},"a":{"ha":853,"x_min":0,"x_max":0,"o":"m 697 182 l 697 450 b 401 667 697 601 624 667 b 142 644 344 667 254 661 l 157 521 b 394 543 261 536 346 543 b 549 449 521 543 549 517 l 549 408 l 313 383 b 79 178 135 363 79 303 b 279 -12 79 54 161 -12 b 542 82 379 -12 465 21 l 556 82 b 711 -1 575 28 621 3 l 799 -7 l 811 110 l 749 115 b 697 182 707 118 697 132 z m 319 104 b 231 188 260 104 231 136 b 349 286 231 240 251 274 l 549 313 l 549 200 b 319 104 443 125 379 104 z "},"b":{"ha":853,"x_min":0,"x_max":0,"o":"m 274 986 l 118 986 l 118 -1 l 146 -1 l 224 36 b 418 -11 286 3 351 -11 b 781 340 643 -11 781 144 b 493 669 781 546 651 669 b 274 572 413 669 344 642 z m 440 540 b 619 331 542 540 619 461 b 403 118 619 219 544 118 b 274 158 361 118 321 129 l 274 460 b 440 540 342 522 389 540 z "},"c":{"ha":853,"x_min":0,"x_max":0,"o":"m 461 542 b 690 457 521 542 576 532 l 763 569 b 456 672 629 657 544 672 b 88 329 246 672 88 521 b 438 -19 88 114 231 -19 b 767 83 542 -19 631 3 l 699 190 b 450 111 582 126 517 111 b 250 329 336 111 250 196 b 461 542 250 453 336 542 z "},"d":{"ha":853,"x_min":0,"x_max":0,"o":"m 360 -14 b 589 93 444 -14 515 15 l 601 0 l 735 0 l 735 986 l 579 986 l 579 610 b 406 663 522 650 468 663 b 72 315 213 663 72 518 b 360 -14 72 108 201 -14 z m 233 324 b 435 536 233 447 308 536 b 579 481 475 536 521 525 l 579 196 b 413 115 511 133 464 115 b 233 324 311 115 233 193 z "},"e":{"ha":853,"x_min":0,"x_max":0,"o":"m 513 110 b 246 274 335 115 263 161 l 754 274 b 761 340 758 290 761 314 b 439 675 761 550 635 675 b 93 318 232 675 93 519 b 463 -11 93 111 199 -7 l 629 -14 l 635 107 z m 440 556 b 610 383 536 556 601 499 l 247 383 b 440 556 267 494 342 556 z "},"f":{"ha":853,"x_min":0,"x_max":0,"o":"m 100 507 l 313 507 l 313 0 l 467 0 l 467 507 l 718 507 l 718 639 l 463 639 l 463 721 b 596 856 463 813 492 847 l 775 867 l 765 1000 l 582 988 b 313 711 378 974 313 910 l 313 639 l 100 639 z "},"g":{"ha":853,"x_min":0,"x_max":0,"o":"m 72 333 b 354 19 72 138 203 19 b 581 117 442 19 510 44 l 581 -3 b 406 -187 581 -125 535 -181 l 183 -200 l 189 -332 l 422 -321 b 736 1 661 -308 736 -214 l 736 660 l 713 660 l 622 626 b 435 669 563 656 499 669 b 72 333 210 669 72 519 z m 233 343 b 451 539 233 444 308 539 b 581 500 492 539 533 529 l 581 228 b 413 149 513 167 465 149 b 233 343 313 149 233 221 z "},"h":{"ha":853,"x_min":0,"x_max":0,"o":"m 278 986 l 122 986 l 122 0 l 278 0 l 278 394 b 492 521 381 486 439 521 b 581 424 554 521 581 489 l 581 0 l 736 0 l 736 451 b 543 665 736 589 675 665 b 278 533 460 665 388 631 z "},"i":{"ha":853,"x_min":0,"x_max":0,"o":"m 436 822 b 560 924 511 822 560 858 b 438 1028 560 990 517 1028 b 315 925 363 1028 315 983 b 436 822 315 857 363 822 z m 144 132 l 144 0 l 751 0 l 751 132 l 525 132 l 525 654 l 172 654 l 172 522 l 369 522 l 369 132 z "},"j":{"ha":853,"x_min":0,"x_max":0,"o":"m 521 822 b 644 922 596 822 644 858 b 524 1022 644 988 601 1022 b 401 922 447 1022 401 981 b 521 822 401 857 449 822 z m 611 -33 l 611 654 l 157 654 l 157 522 l 456 522 l 456 -43 b 318 -183 456 -139 419 -176 l 139 -196 l 144 -329 l 329 -319 b 611 -33 536 -308 611 -240 z "},"k":{"ha":853,"x_min":0,"x_max":0,"o":"m 292 986 l 136 986 l 136 0 l 292 0 l 292 311 l 588 0 l 792 0 l 792 3 l 454 340 l 789 651 l 789 654 l 593 654 l 292 360 z "},"l":{"ha":853,"x_min":0,"x_max":0,"o":"m 319 253 b 568 0 319 69 382 10 l 740 -8 l 747 125 l 596 133 b 474 267 507 139 474 172 l 474 986 l 81 986 l 81 854 l 319 854 z "},"m":{"ha":853,"x_min":0,"x_max":0,"o":"m 176 654 l 65 654 l 65 0 l 203 0 l 203 415 b 319 499 264 485 293 499 b 365 451 351 499 365 483 l 365 0 l 493 0 l 493 417 b 608 499 554 485 583 499 b 654 449 639 499 654 485 l 654 0 l 790 0 l 790 522 b 686 660 790 621 757 660 b 513 521 626 660 583 633 l 490 521 l 490 533 b 392 660 490 625 456 660 b 210 517 332 660 282 633 l 192 517 z "},"n":{"ha":853,"x_min":0,"x_max":0,"o":"m 256 654 l 122 654 l 122 0 l 278 0 l 278 394 b 492 521 381 486 439 521 b 581 424 554 521 581 489 l 581 0 l 736 0 l 736 451 b 543 665 736 589 675 665 b 268 524 457 665 383 628 z "},"o":{"ha":853,"x_min":0,"x_max":0,"o":"m 424 -21 b 775 326 629 -21 775 122 b 429 675 775 532 632 675 b 78 328 222 675 78 528 b 424 -21 78 118 221 -21 z m 426 108 b 239 328 311 108 239 188 b 426 544 239 468 315 544 b 614 326 542 544 614 463 b 426 108 614 182 539 108 z "},"p":{"ha":853,"x_min":0,"x_max":0,"o":"m 118 -319 l 274 -319 l 274 67 b 464 -8 342 7 401 -8 b 781 339 640 -8 781 132 b 499 667 781 544 650 667 b 264 554 408 667 340 635 l 251 654 l 118 654 z m 440 539 b 619 329 542 539 619 460 b 415 118 619 211 546 118 b 274 175 376 118 332 129 l 274 458 b 440 539 340 519 388 539 z "},"q":{"ha":853,"x_min":0,"x_max":0,"o":"m 72 314 b 360 -15 72 107 201 -15 b 579 82 440 -15 508 11 l 579 -319 l 735 -319 l 735 654 l 707 654 l 629 618 b 435 665 567 650 501 665 b 72 314 210 665 72 510 z m 233 322 b 450 535 233 433 308 535 b 579 496 492 535 532 524 l 579 194 b 413 114 511 132 464 114 b 233 322 311 114 233 193 z "},"r":{"ha":853,"x_min":0,"x_max":0,"o":"m 74 132 l 74 0 l 579 0 l 579 132 l 386 132 l 386 322 b 660 493 521 471 546 483 l 785 503 l 774 660 l 644 650 b 376 449 560 644 507 624 l 368 654 l 101 654 l 101 522 l 231 522 l 231 132 z "},"s":{"ha":853,"x_min":0,"x_max":0,"o":"m 736 189 b 522 383 736 288 699 344 l 393 411 b 292 485 310 432 292 449 b 450 547 292 522 325 547 b 688 521 506 547 589 539 l 703 649 b 454 672 614 664 515 672 b 133 475 225 672 133 592 b 342 286 133 381 168 324 l 474 258 b 578 181 558 239 578 218 b 408 106 578 138 539 106 b 138 136 351 106 250 115 l 121 8 b 404 -18 224 -10 306 -18 b 736 189 631 -18 736 74 z "},"t":{"ha":853,"x_min":0,"x_max":0,"o":"m 290 258 b 529 0 290 65 339 10 l 743 -10 l 754 124 l 565 135 b 446 278 471 140 446 171 l 446 522 l 718 522 l 718 654 l 443 654 l 443 888 l 292 888 l 292 654 l 79 654 l 79 522 l 290 522 z "},"u":{"ha":853,"x_min":0,"x_max":0,"o":"m 731 0 l 731 654 l 575 654 l 575 260 b 361 133 472 168 414 133 b 272 231 299 133 272 165 l 272 654 l 117 654 l 117 201 b 310 -12 117 65 178 -12 b 583 129 396 -12 469 25 l 593 0 z "},"v":{"ha":853,"x_min":0,"x_max":0,"o":"m 64 654 l 332 0 l 522 0 l 789 654 l 625 654 l 431 136 l 236 654 z "},"w":{"ha":853,"x_min":0,"x_max":0,"o":"m 675 0 l 803 654 l 654 654 l 575 182 l 438 571 l 417 571 l 279 176 l 200 654 l 51 654 l 176 0 l 319 0 l 424 311 l 528 0 z "},"x":{"ha":853,"x_min":0,"x_max":0,"o":"m 71 0 l 251 0 l 424 249 l 596 0 l 783 0 l 521 336 l 763 654 l 581 654 l 428 433 l 276 654 l 88 654 l 329 336 z "},"y":{"ha":853,"x_min":0,"x_max":0,"o":"m 460 -151 l 792 654 l 625 654 l 433 147 l 238 654 l 65 654 l 350 -33 l 315 -114 b 183 -186 293 -168 268 -183 l 54 -193 l 58 -326 l 228 -318 b 460 -151 349 -312 407 -281 z "},"z":{"ha":853,"x_min":0,"x_max":0,"o":"m 114 0 l 749 0 l 749 124 l 329 124 l 329 128 l 726 546 l 726 654 l 131 654 l 131 531 l 515 531 l 515 526 l 114 107 z "},".":{"ha":853,"x_min":0,"x_max":0,"o":"m 425 -21 b 569 110 517 -21 569 25 b 426 239 569 194 524 239 b 283 108 333 239 283 189 b 425 -21 283 24 331 -21 z "},",":{"ha":853,"x_min":0,"x_max":0,"o":"m 158 -224 l 306 -224 b 572 201 474 -87 539 3 l 333 201 b 158 -221 315 25 286 -40 z "},":":{"ha":853,"x_min":0,"x_max":0,"o":"m 425 428 b 569 550 517 428 569 469 b 426 672 569 631 524 672 b 283 550 333 672 283 622 b 425 428 283 468 338 428 z m 425 -21 b 569 100 517 -21 569 22 b 426 224 569 182 524 224 b 283 103 333 224 283 174 b 425 -21 283 19 338 -21 z "},";":{"ha":853,"x_min":0,"x_max":0,"o":"m 443 428 b 588 550 535 428 588 469 b 446 672 588 631 543 672 b 301 550 351 672 301 622 b 443 428 301 468 356 428 z m 150 -224 l 294 -224 b 563 201 464 -87 529 3 l 325 201 b 150 -221 307 25 278 -40 z "},"?":{"ha":853,"x_min":0,"x_max":0,"o":"m 407 358 b 471 486 422 453 426 464 l 575 536 b 757 764 703 601 757 651 b 461 1007 757 911 671 1007 b 89 942 351 1007 267 994 l 119 807 b 446 876 286 863 376 876 b 597 764 546 876 597 838 b 474 638 597 713 574 686 l 360 582 b 281 499 297 551 281 533 b 303 358 281 475 285 443 z m 346 -21 b 485 82 442 -21 485 14 b 349 188 485 151 450 188 b 211 83 249 188 211 146 b 346 -21 211 14 251 -21 z "},"!":{"ha":853,"x_min":0,"x_max":0,"o":"m 375 358 l 478 358 l 572 986 l 282 986 z m 419 -21 b 557 82 514 -21 557 14 b 422 188 557 151 522 188 b 285 83 322 188 285 146 b 419 -21 285 14 324 -21 z "},"¿":{"ha":853,"x_min":0,"x_max":0,"o":"m 511 1007 b 374 904 415 1007 374 972 b 508 799 374 835 407 799 b 646 903 608 799 646 840 b 511 1007 646 972 606 1007 z m 450 628 b 386 500 436 533 431 522 l 282 450 b 100 222 154 385 100 335 b 396 -21 100 75 188 -21 b 768 44 506 -21 590 -8 l 738 179 b 411 110 571 124 481 110 b 260 222 311 110 260 149 b 383 349 260 274 283 300 l 497 404 b 576 488 561 435 576 453 b 554 628 576 511 572 543 z "},"¡":{"ha":853,"x_min":0,"x_max":0,"o":"m 435 1007 b 297 904 340 1007 297 972 b 432 799 297 835 331 799 b 569 903 532 799 569 840 b 435 1007 569 972 529 1007 z m 478 628 l 376 628 l 281 0 l 572 0 z "},"…":{"ha":853,"x_min":0,"x_max":0,"o":"m 426 -21 b 515 93 485 -21 515 13 b 429 204 515 167 490 204 b 338 93 368 204 338 161 b 426 -21 338 8 372 -21 z m 711 -21 b 800 93 769 -21 800 13 b 714 204 800 167 775 204 b 622 93 653 204 622 161 b 711 -21 622 8 657 -21 z m 142 -21 b 231 93 200 -21 231 13 b 144 204 231 167 206 204 b 53 93 83 204 53 161 b 142 -21 53 8 88 -21 z "},"‥":{"ha":853,"x_min":0,"x_max":0,"o":"m 211 -21 b 329 110 286 -21 329 24 b 214 239 329 196 292 239 b 97 108 138 239 97 189 b 211 -21 97 24 135 -21 z m 639 -21 b 756 110 713 -21 756 24 b 639 239 756 196 718 239 b 524 108 564 239 524 189 b 639 -21 524 24 563 -21 z "},"“":{"ha":853,"x_min":0,"x_max":0,"o":"m 446 986 l 319 986 b 68 563 165 856 111 761 l 271 563 b 446 983 297 738 326 803 z m 801 986 l 675 986 b 425 563 521 856 468 761 l 628 563 b 801 983 654 738 682 803 z "},"”":{"ha":853,"x_min":0,"x_max":0,"o":"m 407 563 l 533 563 b 785 986 688 692 742 788 l 582 986 b 407 565 556 811 526 744 z m 50 563 l 178 563 b 428 986 332 692 385 788 l 225 986 b 50 565 199 811 169 744 z "},"„":{"ha":853,"x_min":0,"x_max":0,"o":"m 407 -222 l 533 -222 b 785 201 688 -93 742 3 l 582 201 b 407 -219 556 26 526 -40 z m 50 -222 l 178 -222 b 428 201 332 -93 385 3 l 225 201 b 50 -219 199 26 169 -40 z "},"‘":{"ha":853,"x_min":0,"x_max":0,"o":"m 653 986 l 507 986 b 240 569 343 864 267 756 l 476 569 b 653 983 489 729 529 819 z "},"’":{"ha":853,"x_min":0,"x_max":0,"o":"m 200 569 l 346 569 b 613 986 510 690 586 799 l 376 986 b 200 572 364 825 324 735 z "},"‚":{"ha":853,"x_min":0,"x_max":0,"o":"m 200 -217 l 346 -217 b 613 200 510 -96 586 13 l 376 200 b 200 -214 364 39 324 -51 z "},"«":{"ha":853,"x_min":0,"x_max":0,"o":"m 401 -21 l 401 124 l 215 331 l 401 532 l 401 672 l 79 390 l 79 263 z m 757 -21 l 757 124 l 572 331 l 757 532 l 757 672 l 435 390 l 435 263 z "},"»":{"ha":853,"x_min":0,"x_max":0,"o":"m 451 672 l 451 528 l 638 321 l 451 119 l 451 -21 l 774 261 l 774 389 z m 96 672 l 96 528 l 281 321 l 96 119 l 96 -21 l 418 261 l 418 389 z "},"‹":{"ha":853,"x_min":0,"x_max":0,"o":"m 625 -21 l 625 132 l 388 331 l 625 522 l 625 672 l 200 390 l 200 263 z "},"›":{"ha":853,"x_min":0,"x_max":0,"o":"m 228 672 l 228 519 l 465 321 l 228 129 l 228 -21 l 653 261 l 653 389 z "},"(":{"ha":853,"x_min":0,"x_max":0,"o":"m 150 453 b 665 -207 150 207 315 -18 l 746 -106 b 308 457 413 75 308 260 b 746 1019 308 654 413 839 l 665 1121 b 150 453 314 932 150 701 z "},")":{"ha":853,"x_min":0,"x_max":0,"o":"m 703 461 b 188 1121 703 707 538 932 l 107 1019 b 544 457 440 839 544 654 b 107 -106 544 260 440 75 l 188 -207 b 703 461 539 -18 703 213 z "},"[":{"ha":853,"x_min":0,"x_max":0,"o":"m 240 -196 l 740 -196 l 740 -65 l 397 -65 l 397 971 l 740 971 l 740 1100 l 240 1100 z "},"]":{"ha":853,"x_min":0,"x_max":0,"o":"m 113 971 l 456 971 l 456 -65 l 113 -65 l 113 -196 l 613 -196 l 613 1100 l 113 1100 z "},"{":{"ha":853,"x_min":0,"x_max":0,"o":"m 257 -15 b 432 -150 257 -83 296 -129 l 765 -199 l 785 -68 l 479 -25 b 431 10 442 -19 431 -8 b 469 71 431 22 438 36 l 538 143 b 614 269 604 214 614 240 b 224 451 614 326 586 375 l 224 468 b 614 650 588 544 614 593 b 538 776 614 679 604 706 l 469 849 b 431 910 438 885 431 897 b 479 944 431 928 442 939 l 785 988 l 765 1118 l 432 1069 b 257 935 296 1049 257 1003 b 329 797 257 896 275 856 l 397 725 b 438 660 432 686 438 675 b 94 528 438 631 421 608 l 94 392 b 438 260 421 311 438 289 b 397 194 438 246 432 233 l 329 122 b 257 -15 275 64 257 24 z "},"}":{"ha":853,"x_min":0,"x_max":0,"o":"m 596 -15 b 524 122 596 24 578 64 l 456 194 b 415 260 421 233 415 246 b 758 392 415 289 432 311 l 758 528 b 415 660 432 608 415 631 b 456 725 415 674 421 686 l 524 797 b 596 935 578 856 596 896 b 421 1069 596 1003 557 1049 l 88 1118 l 68 988 l 374 944 b 422 910 411 939 422 928 b 383 849 422 897 415 883 l 315 776 b 239 650 249 706 239 679 b 629 468 239 593 267 544 l 629 451 b 239 269 267 375 239 326 b 315 143 239 240 249 214 l 383 71 b 422 10 415 36 422 22 b 374 -25 422 -8 411 -19 l 68 -68 l 88 -199 l 421 -150 b 596 -15 557 -129 596 -83 z "},"/":{"ha":853,"x_min":0,"x_max":0,"o":"m 796 1049 l 646 1049 l 57 -139 l 208 -139 z "},"\\":{"ha":853,"x_min":0,"x_max":0,"o":"m 57 1049 l 644 -139 l 796 -139 l 207 1049 z "},"|":{"ha":853,"x_min":0,"x_max":0,"o":"m 497 1049 l 356 1049 l 356 -139 l 497 -139 z "},"-":{"ha":853,"x_min":0,"x_max":0,"o":"m 167 463 l 167 310 l 686 310 l 686 463 z "},"–":{"ha":853,"x_min":0,"x_max":0,"o":"m 111 463 l 111 310 l 742 310 l 742 463 z "},"—":{"ha":853,"x_min":0,"x_max":0,"o":"m 69 463 l 69 310 l 783 310 l 783 463 z "},"·":{"ha":853,"x_min":0,"x_max":0,"o":"m 425 332 b 569 463 517 332 569 378 b 426 592 569 547 524 592 b 283 461 333 592 283 542 b 425 332 283 376 331 332 z "},"•":{"ha":853,"x_min":0,"x_max":0,"o":"m 428 661 b 222 461 293 661 222 576 b 428 263 222 319 308 263 b 632 461 561 263 632 344 b 428 661 632 603 546 661 z "},"_":{"ha":853,"x_min":0,"x_max":0,"o":"m 108 -36 l 108 -182 l 744 -182 l 744 -36 z "},"&":{"ha":853,"x_min":0,"x_max":0,"o":"m 661 906 b 451 929 561 922 499 929 b 204 721 292 929 204 835 b 286 518 204 660 226 606 l 294 506 b 69 233 114 446 69 372 b 310 -15 69 75 168 -15 b 558 131 426 -15 490 19 l 647 -1 l 814 -1 l 638 257 l 772 542 l 656 588 l 557 364 l 396 604 b 346 724 356 664 346 694 b 457 807 346 774 386 807 b 643 786 501 807 553 803 z m 214 250 b 357 414 214 332 228 371 l 486 222 b 335 115 440 132 399 115 b 214 250 263 115 214 158 z "},"@":{"ha":853,"x_min":0,"x_max":0,"o":"m 683 -83 l 671 -15 b 481 -39 590 -33 529 -39 b 160 444 268 -39 160 79 b 456 936 160 831 272 936 b 689 715 594 936 664 899 l 558 715 b 294 449 386 715 294 640 b 531 179 294 261 368 179 b 778 497 690 179 778 249 b 464 1007 778 918 672 1007 b 83 438 229 1007 83 871 b 474 -110 83 33 211 -110 b 683 -83 542 -110 600 -101 z m 404 447 b 556 617 404 572 453 617 l 699 617 b 701 494 700 581 701 539 b 536 278 701 325 654 278 b 404 447 450 278 404 321 z "},"℗":{"ha":853,"x_min":0,"x_max":0,"o":"m 774 456 b 426 1007 774 875 642 1007 b 79 456 213 1007 79 875 b 426 -97 79 36 213 -97 b 774 456 642 -97 774 36 z m 147 456 b 426 944 147 840 254 944 b 706 456 600 944 706 840 b 426 -35 706 71 600 -35 b 147 456 254 -35 147 71 z m 290 764 l 290 146 l 389 146 l 389 349 l 415 349 b 613 554 544 349 613 403 b 431 764 613 708 554 764 z m 428 674 b 514 551 489 674 514 650 b 422 442 514 464 486 442 l 389 442 l 389 674 z "},"©":{"ha":853,"x_min":0,"x_max":0,"o":"m 774 456 b 426 1007 774 875 642 1007 b 79 456 213 1007 79 875 b 426 -97 79 36 213 -97 b 774 456 642 -97 774 36 z m 147 456 b 426 944 147 840 253 944 b 706 456 601 944 706 840 b 426 -35 706 71 601 -35 b 147 456 253 -35 147 71 z m 431 135 b 618 260 489 135 546 147 l 551 308 b 439 226 501 232 471 226 b 347 456 385 226 347 299 b 443 683 347 599 388 683 b 544 589 476 683 494 672 l 615 639 b 443 775 551 754 508 775 b 249 453 331 775 249 649 b 431 135 249 256 313 135 z "},"®":{"ha":853,"x_min":0,"x_max":0,"o":"m 94 646 b 426 289 94 431 222 289 b 758 649 628 289 758 432 b 426 1007 758 869 629 1007 b 94 646 224 1007 94 867 z m 426 338 b 150 649 258 338 150 457 b 426 957 150 840 256 957 b 704 646 599 957 704 839 b 426 338 704 456 599 338 z m 589 479 l 513 578 b 451 628 490 607 475 617 l 451 631 b 569 738 543 644 569 683 b 449 839 569 801 529 839 l 301 839 l 301 476 l 376 476 l 376 614 b 432 568 401 608 413 597 l 494 476 l 589 476 z m 436 778 b 493 731 475 778 493 761 b 393 668 493 700 478 679 l 376 667 l 376 778 z "},"℠":{"ha":853,"x_min":0,"x_max":0,"o":"m 197 621 b 63 656 164 621 113 635 l 44 585 b 197 551 101 561 150 551 b 344 676 288 551 344 596 b 240 806 344 746 317 778 l 192 824 b 138 882 150 839 138 854 b 201 926 138 906 157 926 b 318 903 232 926 269 919 l 332 974 b 201 996 281 989 246 996 b 61 881 104 996 61 939 b 160 754 61 821 86 781 l 207 736 b 267 675 251 719 267 701 b 197 621 267 642 243 621 z m 774 986 l 681 986 l 606 808 l 528 986 l 435 986 l 418 561 l 496 561 l 496 915 l 590 694 l 619 694 l 711 919 l 713 561 l 789 561 z "},"™":{"ha":853,"x_min":0,"x_max":0,"o":"m 51 906 l 168 906 l 168 561 l 256 561 l 256 906 l 368 906 l 368 986 l 51 986 z m 774 986 l 681 986 l 606 808 l 528 986 l 435 986 l 418 561 l 496 561 l 496 915 l 590 694 l 619 694 l 711 919 l 713 561 l 789 561 z "},"*":{"ha":853,"x_min":0,"x_max":0,"o":"m 147 319 l 265 218 b 428 482 325 286 357 394 b 590 218 499 394 531 286 l 708 319 b 469 517 649 389 546 435 b 774 569 576 550 689 540 l 721 718 b 454 569 638 688 558 613 b 506 875 458 681 506 785 l 349 875 b 401 569 349 785 397 683 b 133 718 299 611 218 688 l 82 569 b 386 517 167 540 279 550 b 147 319 310 435 206 389 z "},"†":{"ha":853,"x_min":0,"x_max":0,"o":"m 749 590 l 749 732 b 463 689 654 732 557 697 b 504 986 468 788 504 889 l 349 986 b 393 689 349 889 386 788 b 104 732 296 696 194 732 l 104 590 b 394 638 193 590 296 629 b 349 0 392 425 349 211 l 504 0 b 461 638 504 211 464 425 b 749 590 557 629 654 590 z "},"‡":{"ha":853,"x_min":0,"x_max":0,"o":"m 728 257 l 728 399 b 461 356 639 399 550 364 l 461 638 b 749 590 558 629 658 590 l 749 732 b 463 689 656 732 558 697 b 504 986 468 788 504 888 l 349 986 b 393 689 349 888 388 788 b 104 732 297 696 203 732 l 104 590 b 394 638 200 590 297 629 l 394 356 b 126 399 306 363 218 399 l 126 257 b 394 304 218 257 306 296 b 353 0 389 203 353 101 l 500 0 b 461 304 500 100 467 203 b 728 257 550 294 639 257 z "},"§":{"ha":853,"x_min":0,"x_max":0,"o":"m 74 267 b 283 35 74 176 113 107 l 454 -37 b 554 -129 542 -75 554 -96 b 408 -204 554 -174 525 -204 b 143 -165 339 -204 256 -192 l 124 -299 b 406 -333 228 -321 304 -333 b 710 -119 622 -333 710 -243 b 568 78 710 -24 664 32 b 779 328 742 167 779 233 b 569 560 779 418 740 488 l 399 632 b 299 725 311 669 299 690 b 444 799 299 768 328 799 b 710 760 515 799 597 786 l 729 893 b 447 928 625 915 549 928 b 143 714 232 928 143 838 b 285 517 143 618 189 563 b 74 267 111 428 74 361 z m 364 167 b 231 299 250 215 231 249 b 394 468 231 343 244 383 l 489 428 b 622 296 604 379 622 346 b 458 126 622 251 610 211 z "},"¶":{"ha":853,"x_min":0,"x_max":0,"o":"m 435 363 l 435 797 l 569 797 l 569 0 l 715 0 l 715 910 l 440 910 b 103 639 206 910 103 811 b 429 363 103 468 211 363 z "},"+":{"ha":853,"x_min":0,"x_max":0,"o":"m 92 393 l 354 393 l 354 115 l 497 115 l 497 393 l 761 393 l 761 519 l 497 519 l 497 796 l 354 796 l 354 519 l 92 519 z "},"÷":{"ha":853,"x_min":0,"x_max":0,"o":"m 426 663 b 546 758 503 663 546 693 b 428 853 546 819 508 853 b 310 757 350 853 310 817 b 426 663 310 694 349 663 z m 92 393 l 760 393 l 760 519 l 92 519 z m 426 63 b 546 157 503 63 546 92 b 428 251 546 218 508 251 b 310 156 350 251 310 215 b 426 63 310 93 349 63 z "},"−":{"ha":853,"x_min":0,"x_max":0,"o":"m 92 393 l 760 393 l 760 519 l 92 519 z "},"=":{"ha":853,"x_min":0,"x_max":0,"o":"m 121 538 l 732 538 l 732 664 l 121 664 z m 121 249 l 732 249 l 732 375 l 121 375 z "},"≠":{"ha":853,"x_min":0,"x_max":0,"o":"m 121 249 l 267 249 l 160 39 l 286 39 l 381 249 l 732 249 l 732 375 l 435 368 l 478 463 l 521 543 l 732 538 l 732 664 l 583 664 l 696 879 l 571 879 l 471 664 l 121 664 l 121 538 l 415 544 l 378 464 l 329 369 l 121 375 z "},"~":{"ha":853,"x_min":0,"x_max":0,"o":"m 801 597 l 681 633 b 581 443 624 476 607 443 b 447 525 558 443 543 451 b 265 624 344 603 314 624 b 51 324 181 624 128 575 l 172 288 b 272 476 229 443 246 476 b 406 394 294 476 310 468 b 588 296 507 317 539 296 b 801 597 672 296 725 344 z "},"≈":{"ha":853,"x_min":0,"x_max":0,"o":"m 796 763 l 682 801 b 585 626 621 651 610 626 b 450 708 561 626 547 635 b 263 807 340 790 299 807 b 57 533 188 807 143 768 l 171 494 b 268 669 231 643 242 669 b 403 588 290 669 304 660 b 590 488 511 506 554 488 b 796 763 665 488 710 526 z m 796 383 l 682 422 b 585 247 621 272 610 247 b 450 329 561 247 547 256 b 263 428 340 411 299 428 b 57 154 188 428 143 389 l 171 114 b 268 289 231 264 242 289 b 403 207 290 289 304 281 b 590 108 511 126 554 108 b 796 383 665 108 710 147 z "},"×":{"ha":853,"x_min":0,"x_max":0,"o":"m 188 125 l 424 368 l 658 128 l 758 225 l 515 460 l 760 697 l 665 790 l 428 547 l 193 788 l 94 689 l 336 456 l 93 219 z "},"<":{"ha":853,"x_min":0,"x_max":0,"o":"m 751 93 l 751 238 l 236 446 l 751 653 l 751 799 l 89 518 l 89 375 z "},">":{"ha":853,"x_min":0,"x_max":0,"o":"m 765 375 l 765 518 l 101 799 l 101 653 l 618 446 l 101 238 l 101 93 z "},"≤":{"ha":853,"x_min":0,"x_max":0,"o":"m 724 275 l 724 421 l 265 603 l 724 785 l 724 929 l 117 675 l 117 533 z m 117 0 l 724 0 l 724 126 l 117 126 z "},"≥":{"ha":853,"x_min":0,"x_max":0,"o":"m 126 275 l 733 533 l 733 675 l 126 929 l 126 785 l 585 603 l 126 421 z m 733 0 l 733 126 l 126 126 l 126 0 z "},"±":{"ha":853,"x_min":0,"x_max":0,"o":"m 92 535 l 354 535 l 354 285 l 497 285 l 497 535 l 760 535 l 760 661 l 497 661 l 497 910 l 354 910 l 354 661 l 92 661 z m 760 0 l 760 126 l 92 126 l 92 0 z "},"^":{"ha":853,"x_min":0,"x_max":0,"o":"m 58 376 l 215 376 l 425 808 l 633 376 l 794 376 l 519 910 l 332 910 z "},"µ":{"ha":853,"x_min":0,"x_max":0,"o":"m 349 -12 b 583 128 425 -12 479 25 l 593 0 l 731 0 l 731 654 l 575 654 l 575 260 b 361 133 472 168 414 133 b 272 231 299 133 272 165 l 272 654 l 117 654 l 117 -319 l 279 -319 l 279 -296 l 244 32 b 349 -12 274 3 310 -12 z "},"#":{"ha":853,"x_min":0,"x_max":0,"o":"m 51 219 l 206 219 l 164 -17 l 267 -17 l 308 221 l 463 221 l 419 -17 l 524 -17 l 565 219 l 758 219 l 758 365 l 592 365 l 625 553 l 801 553 l 801 699 l 651 699 l 692 925 l 588 925 l 546 697 l 393 697 l 435 925 l 329 925 l 289 699 l 96 699 l 96 553 l 264 553 l 231 365 l 51 365 z m 493 313 l 310 313 l 361 603 l 546 603 z "},"%":{"ha":853,"x_min":0,"x_max":0,"o":"m 58 686 b 261 440 58 535 125 440 b 468 688 399 440 468 536 b 263 931 468 839 399 931 b 58 686 126 931 58 838 z m 558 524 l 824 908 l 824 917 l 671 917 l 496 524 z m 261 842 b 365 686 333 842 365 783 b 263 532 365 586 335 532 b 160 688 190 532 160 588 b 261 842 160 783 189 842 z m 385 222 b 590 -21 385 71 454 -21 b 794 224 726 -21 794 72 b 592 469 794 375 728 469 b 385 222 454 469 385 374 z m 294 386 l 29 1 l 29 -7 l 182 -7 l 357 386 z m 592 68 b 488 224 519 68 488 126 b 590 378 488 324 518 378 b 693 222 663 378 693 322 b 592 68 693 126 664 68 z "},"\"":{"ha":853,"x_min":0,"x_max":0,"o":"m 550 535 l 690 535 l 717 986 l 525 986 z m 182 535 l 322 535 l 349 986 l 156 986 z "},"'":{"ha":853,"x_min":0,"x_max":0,"o":"m 347 535 l 506 535 l 531 986 l 322 986 z "},"ª":{"ha":853,"x_min":0,"x_max":0,"o":"m 638 599 l 638 796 b 396 961 638 911 578 961 b 192 943 357 961 283 956 l 203 844 b 390 863 289 857 354 863 b 519 796 496 863 519 843 l 519 771 l 328 751 b 143 593 185 738 143 688 b 303 451 143 501 208 451 b 511 524 382 451 451 475 l 525 524 b 646 458 540 483 578 460 l 711 456 l 719 546 l 676 550 b 638 599 647 551 638 565 z m 333 546 b 264 600 286 546 264 567 b 358 672 264 642 282 664 l 519 693 l 519 619 b 333 546 438 560 383 546 z m 169 331 l 169 238 l 700 238 l 700 331 z "},"º":{"ha":853,"x_min":0,"x_max":0,"o":"m 424 450 b 693 707 579 450 693 557 b 428 961 693 857 581 961 b 157 706 271 961 157 854 b 424 450 157 553 269 450 z m 425 553 b 281 706 339 553 281 607 b 425 858 281 806 342 858 b 569 706 511 858 569 803 b 425 553 569 606 510 553 z m 169 331 l 169 238 l 694 238 l 694 331 z "},"°":{"ha":853,"x_min":0,"x_max":0,"o":"m 136 679 b 426 400 136 510 257 400 b 717 681 597 400 717 513 b 428 961 717 850 599 961 b 136 679 258 961 136 849 z m 426 851 b 592 679 519 851 592 782 b 428 508 592 576 522 508 b 263 681 331 508 263 578 b 426 851 263 783 329 851 z "},"$":{"ha":853,"x_min":0,"x_max":0,"o":"m 421 129 b 118 193 344 129 242 153 l 86 61 b 382 1 196 25 289 6 l 382 -197 l 489 -197 l 489 4 b 753 261 661 25 753 124 b 524 514 753 397 689 464 l 428 543 b 276 681 306 581 276 617 b 439 781 276 739 321 781 b 701 739 506 781 590 767 l 722 871 b 489 908 636 890 568 904 l 489 1106 l 382 1106 l 382 907 b 119 668 207 888 119 785 b 350 413 119 542 186 463 l 443 383 b 596 251 565 343 596 313 b 421 129 596 176 544 129 z "},"£":{"ha":853,"x_min":0,"x_max":0,"o":"m 92 0 l 774 0 l 774 131 l 278 131 b 454 356 408 254 444 308 l 700 356 l 700 449 l 451 449 b 358 567 440 481 415 515 b 289 692 297 625 289 653 b 435 800 289 750 344 800 b 690 668 518 800 578 764 l 775 776 b 424 931 649 882 553 931 b 129 697 235 931 129 814 b 231 513 129 628 150 585 b 307 438 271 476 293 454 l 108 438 l 108 346 l 313 346 b 92 124 292 311 235 253 z "},"¥":{"ha":853,"x_min":0,"x_max":0,"o":"m 110 181 l 353 181 l 353 0 l 497 0 l 497 181 l 742 181 l 742 271 l 497 271 l 497 389 l 742 389 l 742 479 l 528 479 l 813 910 l 642 910 l 428 558 l 217 910 l 40 910 l 324 479 l 110 479 l 110 389 l 353 389 l 353 271 l 110 271 z "},"€":{"ha":853,"x_min":0,"x_max":0,"o":"m 63 300 l 185 300 b 532 -21 200 108 319 -21 b 788 31 619 -21 692 -6 l 761 160 b 529 108 656 121 589 108 b 342 304 406 108 349 183 l 603 304 l 603 393 l 340 393 l 340 517 l 603 517 l 603 606 l 342 606 b 532 799 350 732 410 799 b 756 749 589 799 653 786 l 782 879 b 536 928 689 913 621 928 b 186 610 331 928 204 797 l 63 610 l 63 517 l 183 517 l 183 393 l 63 393 z "},"₦":{"ha":853,"x_min":0,"x_max":0,"o":"m 271 0 l 265 290 l 424 290 l 507 0 l 710 0 l 710 288 l 828 288 l 828 378 l 710 378 l 710 540 l 828 540 l 828 631 l 710 631 l 710 910 l 582 910 l 588 628 l 428 628 l 347 910 l 143 910 l 143 631 l 25 631 l 25 540 l 143 540 l 143 378 l 25 378 l 25 288 l 143 288 l 143 0 z m 254 838 l 268 838 l 407 353 l 264 353 z m 446 565 l 589 565 l 599 76 l 585 76 z "},"₱":{"ha":853,"x_min":0,"x_max":0,"o":"m 26 568 l 143 568 l 143 0 l 300 0 l 300 308 l 375 308 b 726 568 572 308 706 407 l 833 568 l 833 658 l 726 658 b 393 910 707 813 589 910 l 143 910 l 143 658 l 26 658 z m 399 779 b 569 610 513 779 569 718 b 390 435 569 501 508 435 l 300 435 l 300 779 z "},"₺":{"ha":853,"x_min":0,"x_max":0,"o":"m 36 183 l 153 254 l 153 0 l 392 0 b 796 363 621 0 763 117 l 651 386 b 389 129 626 207 535 129 l 310 129 l 310 336 l 569 483 l 569 585 l 310 436 l 310 568 l 569 718 l 569 822 l 310 671 l 310 910 l 153 910 l 153 589 l 36 521 l 36 418 l 153 486 l 153 353 l 36 285 z "},"₽":{"ha":853,"x_min":0,"x_max":0,"o":"m 40 171 l 164 171 l 164 0 l 318 0 l 318 171 l 608 171 l 608 261 l 318 261 l 318 394 l 474 394 b 819 647 719 394 819 481 b 506 910 819 808 722 910 l 164 910 l 164 485 l 40 485 l 40 394 l 164 394 l 164 261 l 40 261 z m 488 779 b 665 635 613 779 665 728 b 464 485 665 544 607 485 l 318 485 l 318 779 z "},"₹":{"ha":853,"x_min":0,"x_max":0,"o":"m 89 568 l 482 568 b 313 407 475 461 426 407 l 89 407 l 89 297 l 521 0 l 753 0 l 753 3 l 336 285 l 336 288 b 639 568 532 296 631 393 l 771 568 l 771 667 l 639 667 l 639 819 l 771 819 l 771 910 l 89 910 l 89 819 l 482 819 l 482 667 l 89 667 z "},"฿":{"ha":853,"x_min":0,"x_max":0,"o":"m 489 -197 l 489 0 b 790 228 715 4 790 97 b 546 464 790 357 703 442 l 546 469 b 767 697 707 503 767 593 b 489 910 767 824 686 908 l 489 1106 l 381 1106 l 381 910 l 122 910 l 122 0 l 381 0 l 381 -197 z m 463 789 b 608 668 563 789 608 750 b 415 519 608 588 553 526 l 276 511 l 276 789 z m 417 396 b 633 247 574 389 633 331 b 464 119 633 169 585 119 l 276 119 l 276 403 z "},"₩":{"ha":853,"x_min":0,"x_max":0,"o":"m 418 563 l 433 563 l 531 0 l 696 0 l 722 432 l 833 432 l 833 524 l 728 524 l 751 910 l 658 910 l 638 517 l 518 517 l 485 707 l 368 707 l 335 517 l 215 517 l 196 910 l 101 910 l 125 524 l 19 524 l 19 432 l 129 432 l 156 0 l 322 0 z m 618 147 l 582 147 l 531 444 l 633 444 z m 235 147 l 219 444 l 322 444 l 271 147 z "},"¢":{"ha":853,"x_min":0,"x_max":0,"o":"m 414 -197 l 522 -197 l 522 6 b 765 104 594 17 668 46 l 697 210 b 447 132 581 146 515 132 b 249 343 335 132 249 214 b 460 549 249 464 335 549 b 689 464 518 549 575 540 l 761 578 b 522 676 658 643 588 668 l 522 878 l 414 878 l 414 679 b 86 344 225 661 86 519 b 414 0 86 139 219 10 z "},"₫":{"ha":853,"x_min":0,"x_max":0,"o":"m 344 -14 b 568 93 428 -14 496 15 l 581 0 l 715 0 l 715 692 l 826 692 l 826 782 l 715 782 l 715 910 l 558 910 l 558 782 l 343 782 l 343 692 l 558 692 l 558 522 b 388 576 500 564 449 576 b 72 279 207 576 72 453 b 344 -14 72 96 194 -14 z m 233 288 b 410 463 233 389 299 463 b 558 404 451 463 497 451 l 558 194 b 393 115 490 133 444 115 b 233 288 303 115 233 181 z m 103 -235 l 704 -235 l 704 -133 l 103 -133 z "},"½":{"ha":853,"x_min":0,"x_max":0,"o":"m 14 382 l 397 382 l 397 474 l 264 474 l 264 910 l 224 910 l 14 813 l 14 706 l 157 772 l 157 474 l 14 474 z m 440 281 l 853 593 l 769 689 l 415 311 l 0 -1 l 83 -97 z m 401 -319 l 814 -319 l 814 -228 l 547 -228 l 547 -225 l 664 -129 b 801 76 782 -33 801 14 b 631 225 801 168 728 225 b 392 115 553 225 489 197 l 444 38 b 621 131 536 115 576 131 b 692 65 667 131 692 104 b 578 -87 692 28 682 1 l 401 -240 z "},"⅓":{"ha":853,"x_min":0,"x_max":0,"o":"m 14 382 l 397 382 l 397 474 l 264 474 l 264 910 l 224 910 l 14 813 l 14 706 l 157 772 l 157 474 l 14 474 z m 440 281 l 853 593 l 769 689 l 415 311 l 0 -1 l 83 -97 z m 429 119 l 675 119 l 675 117 l 518 -36 l 538 -89 b 619 -81 571 -83 596 -81 b 738 -146 707 -81 738 -107 b 543 -232 738 -193 689 -221 l 436 -240 l 446 -333 l 553 -326 b 844 -146 764 -312 844 -246 b 667 0 844 -72 799 -4 l 667 3 l 813 139 l 813 208 l 429 208 z "},"⅔":{"ha":853,"x_min":0,"x_max":0,"o":"m 15 382 l 428 382 l 428 474 l 161 474 l 161 476 l 278 572 b 415 778 396 668 415 715 b 244 926 415 869 342 926 b 6 817 167 926 103 899 l 58 739 b 235 832 150 817 190 832 b 306 767 281 832 306 806 b 192 614 306 729 296 703 l 15 461 z m 440 281 l 853 593 l 769 689 l 415 311 l 0 -1 l 83 -97 z m 429 119 l 675 119 l 675 117 l 518 -36 l 538 -89 b 619 -81 571 -83 596 -81 b 738 -146 707 -81 738 -107 b 543 -232 738 -193 689 -221 l 436 -240 l 446 -333 l 553 -326 b 844 -146 764 -312 844 -246 b 667 0 844 -72 799 -4 l 667 3 l 813 139 l 813 208 l 429 208 z "},"¼":{"ha":853,"x_min":0,"x_max":0,"o":"m 14 382 l 397 382 l 397 474 l 264 474 l 264 910 l 224 910 l 14 813 l 14 706 l 157 772 l 157 474 l 14 474 z m 440 281 l 853 593 l 769 689 l 415 311 l 0 -1 l 83 -97 z m 343 -192 l 599 -192 l 599 -319 l 699 -319 l 699 -192 l 800 -192 l 800 -107 l 699 -107 l 699 208 l 578 208 l 343 -118 z m 607 139 l 607 -117 l 435 -117 l 435 -111 z "},"¾":{"ha":853,"x_min":0,"x_max":0,"o":"m 21 821 l 267 821 l 267 818 l 110 665 l 129 613 b 211 621 163 618 188 621 b 329 556 299 621 329 594 b 135 469 329 508 281 481 l 28 461 l 38 368 l 144 375 b 436 556 356 389 436 456 b 258 701 436 629 390 697 l 258 704 l 404 840 l 404 910 l 21 910 z m 440 281 l 853 593 l 769 689 l 415 311 l 0 -1 l 83 -97 z m 343 -192 l 599 -192 l 599 -319 l 699 -319 l 699 -192 l 800 -192 l 800 -107 l 699 -107 l 699 208 l 578 208 l 343 -118 z m 607 139 l 607 -117 l 435 -117 l 435 -111 z "},"⅕":{"ha":853,"x_min":0,"x_max":0,"o":"m 14 382 l 397 382 l 397 474 l 264 474 l 264 910 l 224 910 l 14 813 l 14 706 l 157 772 l 157 474 l 14 474 z m 440 281 l 853 593 l 769 689 l 415 311 l 0 -1 l 83 -97 z m 454 208 l 436 -82 l 439 -85 l 511 -97 b 636 -64 563 -72 603 -64 b 725 -136 694 -64 725 -87 b 521 -233 725 -187 679 -219 l 419 -242 l 431 -333 l 526 -325 b 828 -136 747 -306 828 -242 b 660 21 828 -36 757 21 b 529 -14 614 21 571 13 l 540 122 l 794 122 l 794 208 z "},"⅖":{"ha":853,"x_min":0,"x_max":0,"o":"m 15 382 l 428 382 l 428 474 l 161 474 l 161 476 l 278 572 b 415 778 396 668 415 715 b 244 926 415 869 342 926 b 6 817 167 926 103 899 l 58 739 b 235 832 150 817 190 832 b 306 767 281 832 306 806 b 192 614 306 729 296 703 l 15 461 z m 440 281 l 853 593 l 769 689 l 415 311 l 0 -1 l 83 -97 z m 454 208 l 436 -82 l 439 -85 l 511 -97 b 636 -64 563 -72 603 -64 b 725 -136 694 -64 725 -87 b 521 -233 725 -187 679 -219 l 419 -242 l 431 -333 l 526 -325 b 828 -136 747 -306 828 -242 b 660 21 828 -36 757 21 b 529 -14 614 21 571 13 l 540 122 l 794 122 l 794 208 z "},"⅗":{"ha":853,"x_min":0,"x_max":0,"o":"m 21 821 l 267 821 l 267 818 l 110 665 l 129 613 b 211 621 163 618 188 621 b 329 556 299 621 329 594 b 135 469 329 508 281 481 l 28 461 l 38 368 l 144 375 b 436 556 356 389 436 456 b 258 701 436 629 390 697 l 258 704 l 404 840 l 404 910 l 21 910 z m 440 281 l 853 593 l 769 689 l 415 311 l 0 -1 l 83 -97 z m 454 208 l 436 -82 l 439 -85 l 511 -97 b 636 -64 563 -72 603 -64 b 725 -136 694 -64 725 -87 b 521 -233 725 -187 679 -219 l 419 -242 l 431 -333 l 526 -325 b 828 -136 747 -306 828 -242 b 660 21 828 -36 757 21 b 529 -14 614 21 571 13 l 540 122 l 794 122 l 794 208 z "},"⅘":{"ha":853,"x_min":0,"x_max":0,"o":"m 10 510 l 265 510 l 265 382 l 365 382 l 365 510 l 467 510 l 467 594 l 365 594 l 365 910 l 244 910 l 10 583 z m 274 840 l 274 585 l 101 585 l 101 590 z m 440 281 l 853 593 l 769 689 l 415 311 l 0 -1 l 83 -97 z m 454 208 l 436 -82 l 439 -85 l 511 -97 b 636 -64 563 -72 603 -64 b 725 -136 694 -64 725 -87 b 521 -233 725 -187 679 -219 l 419 -242 l 431 -333 l 526 -325 b 828 -136 747 -306 828 -242 b 660 21 828 -36 757 21 b 529 -14 614 21 571 13 l 540 122 l 794 122 l 794 208 z "},"⅙":{"ha":853,"x_min":0,"x_max":0,"o":"m 14 382 l 397 382 l 397 474 l 264 474 l 264 910 l 224 910 l 14 813 l 14 706 l 157 772 l 157 474 l 14 474 z m 440 281 l 853 593 l 769 689 l 415 311 l 0 -1 l 83 -97 z m 788 -151 b 597 25 788 -40 715 25 b 533 17 578 25 556 22 b 611 101 554 43 579 72 l 722 207 l 722 208 l 585 208 l 515 138 b 363 -146 413 32 363 -40 b 571 -340 363 -262 446 -340 b 788 -151 697 -340 788 -262 z m 471 -142 b 488 -61 471 -115 476 -87 b 569 -49 515 -51 542 -49 b 678 -150 639 -49 678 -86 b 572 -251 678 -212 638 -251 b 471 -142 513 -251 471 -210 z "},"⅚":{"ha":853,"x_min":0,"x_max":0,"o":"m 61 910 l 43 619 l 46 617 l 118 604 b 243 638 169 629 210 638 b 332 565 301 638 332 614 b 128 468 332 514 286 482 l 26 460 l 38 368 l 133 376 b 435 565 354 396 435 460 b 267 722 435 665 364 722 b 136 688 221 722 178 714 l 147 824 l 401 824 l 401 910 z m 440 281 l 853 593 l 769 689 l 415 311 l 0 -1 l 83 -97 z m 788 -151 b 597 25 788 -40 715 25 b 533 17 578 25 556 22 b 611 101 554 43 579 72 l 722 207 l 722 208 l 585 208 l 515 138 b 363 -146 413 32 363 -40 b 571 -340 363 -262 446 -340 b 788 -151 697 -340 788 -262 z m 471 -142 b 488 -61 471 -115 476 -87 b 569 -49 515 -51 542 -49 b 678 -150 639 -49 678 -86 b 572 -251 678 -212 638 -251 b 471 -142 513 -251 471 -210 z "},"⅛":{"ha":853,"x_min":0,"x_max":0,"o":"m 14 382 l 397 382 l 397 474 l 264 474 l 264 910 l 224 910 l 14 813 l 14 706 l 157 772 l 157 474 l 14 474 z m 440 281 l 853 593 l 769 689 l 415 311 l 0 -1 l 83 -97 z m 610 -340 b 824 -183 733 -340 824 -279 b 700 -47 824 -119 772 -68 l 700 -44 b 807 81 765 -25 807 21 b 613 229 807 172 726 229 b 415 79 499 229 415 172 b 524 -46 415 19 457 -26 l 524 -49 b 399 -185 449 -69 399 -121 b 610 -340 399 -281 490 -340 z m 611 -11 b 517 68 560 -11 517 18 b 613 147 517 118 558 147 b 706 69 668 147 706 118 b 611 -11 706 19 664 -11 z m 611 -260 b 503 -172 549 -260 503 -226 b 611 -86 503 -119 549 -86 b 719 -171 674 -86 719 -118 b 611 -260 719 -225 674 -260 z "},"⅜":{"ha":853,"x_min":0,"x_max":0,"o":"m 21 821 l 267 821 l 267 818 l 110 665 l 129 613 b 211 621 163 618 188 621 b 329 556 299 621 329 594 b 135 469 329 508 281 481 l 28 461 l 38 368 l 144 375 b 436 556 356 389 436 456 b 258 701 436 629 390 697 l 258 704 l 404 840 l 404 910 l 21 910 z m 440 281 l 853 593 l 769 689 l 415 311 l 0 -1 l 83 -97 z m 610 -340 b 824 -183 733 -340 824 -279 b 700 -47 824 -119 772 -68 l 700 -44 b 807 81 765 -25 807 21 b 613 229 807 172 726 229 b 415 79 499 229 415 172 b 524 -46 415 19 457 -26 l 524 -49 b 399 -185 449 -69 399 -121 b 610 -340 399 -281 490 -340 z m 611 -11 b 517 68 560 -11 517 18 b 613 147 517 118 558 147 b 706 69 668 147 706 118 b 611 -11 706 19 664 -11 z m 611 -260 b 503 -172 549 -260 503 -226 b 611 -86 503 -119 549 -86 b 719 -171 674 -86 719 -118 b 611 -260 719 -225 674 -260 z "},"⅝":{"ha":853,"x_min":0,"x_max":0,"o":"m 61 910 l 43 619 l 46 617 l 118 604 b 243 638 169 629 210 638 b 332 565 301 638 332 614 b 128 468 332 514 286 482 l 26 460 l 38 368 l 133 376 b 435 565 354 396 435 460 b 267 722 435 665 364 722 b 136 688 221 722 178 714 l 147 824 l 401 824 l 401 910 z m 440 281 l 853 593 l 769 689 l 415 311 l 0 -1 l 83 -97 z m 610 -340 b 824 -183 733 -340 824 -279 b 700 -47 824 -119 772 -68 l 700 -44 b 807 81 765 -25 807 21 b 613 229 807 172 726 229 b 415 79 499 229 415 172 b 524 -46 415 19 457 -26 l 524 -49 b 399 -185 449 -69 399 -121 b 610 -340 399 -281 490 -340 z m 611 -11 b 517 68 560 -11 517 18 b 613 147 517 118 558 147 b 706 69 668 147 706 118 b 611 -11 706 19 664 -11 z m 611 -260 b 503 -172 549 -260 503 -226 b 611 -86 503 -119 549 -86 b 719 -171 674 -86 719 -118 b 611 -260 719 -225 674 -260 z "},"⅞":{"ha":853,"x_min":0,"x_max":0,"o":"m 240 382 l 464 817 l 464 910 l 54 910 l 54 818 l 360 818 l 360 815 l 118 385 l 118 382 z m 440 281 l 853 593 l 769 689 l 415 311 l 0 -1 l 83 -97 z m 610 -340 b 824 -183 733 -340 824 -279 b 700 -47 824 -119 772 -68 l 700 -44 b 807 81 765 -25 807 21 b 613 229 807 172 726 229 b 415 79 499 229 415 172 b 524 -46 415 19 457 -26 l 524 -49 b 399 -185 449 -69 399 -121 b 610 -340 399 -281 490 -340 z m 611 -11 b 517 68 560 -11 517 18 b 613 147 517 118 558 147 b 706 69 668 147 706 118 b 611 -11 706 19 664 -11 z m 611 -260 b 503 -172 549 -260 503 -226 b 611 -86 503 -119 549 -86 b 719 -171 674 -86 719 -118 b 611 -260 719 -225 674 -260 z "},"⁰":{"ha":853,"x_min":0,"x_max":0,"o":"m 643 724 b 428 1007 643 915 564 1007 b 210 721 290 1007 210 914 b 425 438 210 528 289 438 b 643 724 563 438 643 531 z m 311 722 b 426 911 311 863 349 911 b 525 844 475 911 507 893 l 314 668 b 311 722 313 683 311 703 z m 542 722 b 426 532 542 582 504 532 b 328 599 378 532 346 551 l 539 778 b 542 722 540 761 542 743 z "},"¹":{"ha":853,"x_min":0,"x_max":0,"o":"m 246 458 l 629 458 l 629 550 l 496 550 l 496 986 l 456 986 l 246 889 l 246 782 l 389 849 l 389 550 l 246 550 z "},"²":{"ha":853,"x_min":0,"x_max":0,"o":"m 226 458 l 639 458 l 639 550 l 372 550 l 372 553 l 489 649 b 626 854 607 744 626 792 b 456 1003 626 946 553 1003 b 217 893 378 1003 314 975 l 269 815 b 446 908 361 893 401 908 b 517 843 492 908 517 882 b 403 690 517 806 507 779 l 226 538 z "},"³":{"ha":853,"x_min":0,"x_max":0,"o":"m 226 897 l 472 897 l 472 894 l 315 742 l 335 689 b 417 697 368 694 393 697 b 535 632 504 697 535 671 b 340 546 535 585 486 557 l 233 538 l 243 444 l 350 451 b 642 632 561 465 642 532 b 464 778 642 706 596 774 l 464 781 l 610 917 l 610 986 l 226 986 z "},"⁴":{"ha":853,"x_min":0,"x_max":0,"o":"m 210 586 l 465 586 l 465 458 l 565 458 l 565 586 l 667 586 l 667 671 l 565 671 l 565 986 l 444 986 l 210 660 z m 474 917 l 474 661 l 301 661 l 301 667 z "},"⁵":{"ha":853,"x_min":0,"x_max":0,"o":"m 256 986 l 238 696 l 240 693 l 313 681 b 438 714 364 706 404 714 b 526 642 496 714 526 690 b 322 544 526 590 481 558 l 221 536 l 232 444 l 328 453 b 629 642 549 472 629 536 b 461 799 629 742 558 799 b 331 764 415 799 372 790 l 342 900 l 596 900 l 596 986 z "},"⁶":{"ha":853,"x_min":0,"x_max":0,"o":"m 640 626 b 450 803 640 738 568 803 b 386 794 431 803 408 800 b 464 879 407 821 432 850 l 575 985 l 575 986 l 438 986 l 368 915 b 215 632 265 810 215 738 b 424 438 215 515 299 438 b 640 626 550 438 640 515 z m 324 636 b 340 717 324 663 329 690 b 422 729 368 726 394 729 b 531 628 492 729 531 692 b 425 526 531 565 490 526 b 324 636 365 526 324 568 z "},"⁷":{"ha":853,"x_min":0,"x_max":0,"o":"m 394 458 l 618 893 l 618 986 l 208 986 l 208 894 l 514 894 l 514 892 l 272 461 l 272 458 z "},"⁸":{"ha":853,"x_min":0,"x_max":0,"o":"m 425 438 b 639 594 549 438 639 499 b 515 731 639 658 588 710 l 515 733 b 622 858 581 753 622 799 b 428 1007 622 950 542 1007 b 231 857 314 1007 231 950 b 339 732 231 797 272 751 l 339 729 b 214 593 264 708 214 657 b 425 438 214 497 306 438 z m 426 767 b 332 846 375 767 332 796 b 428 925 332 896 374 925 b 521 847 483 925 521 896 b 426 767 521 797 479 767 z m 426 518 b 318 606 364 518 318 551 b 426 692 318 658 364 692 b 535 607 489 692 535 660 b 426 518 535 553 489 518 z "},"⁹":{"ha":853,"x_min":0,"x_max":0,"o":"m 485 528 b 638 811 588 632 638 707 b 432 1007 638 928 556 1007 b 213 817 303 1007 213 929 b 403 640 213 706 285 640 b 468 650 424 640 446 643 b 389 564 447 622 421 593 l 278 460 l 278 458 l 415 458 z m 529 807 b 513 726 529 781 524 753 b 431 714 485 717 458 714 b 322 815 363 714 322 751 b 428 918 322 878 364 918 b 529 807 488 918 529 876 z "},"₀":{"ha":853,"x_min":0,"x_max":0,"o":"m 643 -54 b 428 229 643 138 564 229 b 210 -57 290 229 210 136 b 425 -340 210 -250 289 -340 b 643 -54 563 -340 643 -247 z m 311 -56 b 426 133 311 85 349 133 b 525 67 475 133 507 115 l 314 -110 b 311 -56 313 -94 311 -75 z m 542 -56 b 426 -246 542 -196 504 -246 b 328 -179 378 -246 346 -226 l 539 0 b 542 -56 540 -17 542 -35 z "},"₁":{"ha":853,"x_min":0,"x_max":0,"o":"m 246 -319 l 629 -319 l 629 -228 l 496 -228 l 496 208 l 456 208 l 246 111 l 246 4 l 389 71 l 389 -228 l 246 -228 z "},"₂":{"ha":853,"x_min":0,"x_max":0,"o":"m 226 -319 l 639 -319 l 639 -228 l 372 -228 l 372 -225 l 489 -129 b 626 76 607 -33 626 14 b 456 225 626 168 553 225 b 217 115 378 225 314 197 l 269 38 b 446 131 361 115 401 131 b 517 65 492 131 517 104 b 403 -87 517 28 507 1 l 226 -240 z "},"₃":{"ha":853,"x_min":0,"x_max":0,"o":"m 226 119 l 472 119 l 472 117 l 315 -36 l 335 -89 b 417 -81 368 -83 393 -81 b 535 -146 504 -81 535 -107 b 340 -232 535 -193 486 -221 l 233 -240 l 243 -333 l 350 -326 b 642 -146 561 -312 642 -246 b 464 0 642 -72 596 -4 l 464 3 l 610 139 l 610 208 l 226 208 z "},"₄":{"ha":853,"x_min":0,"x_max":0,"o":"m 210 -192 l 465 -192 l 465 -319 l 565 -319 l 565 -192 l 667 -192 l 667 -107 l 565 -107 l 565 208 l 444 208 l 210 -118 z m 474 139 l 474 -117 l 301 -117 l 301 -111 z "},"₅":{"ha":853,"x_min":0,"x_max":0,"o":"m 256 208 l 238 -82 l 240 -85 l 313 -97 b 438 -64 364 -72 404 -64 b 526 -136 496 -64 526 -87 b 322 -233 526 -187 481 -219 l 221 -242 l 232 -333 l 328 -325 b 629 -136 549 -306 629 -242 b 461 21 629 -36 558 21 b 331 -14 415 21 372 13 l 342 122 l 596 122 l 596 208 z "},"₆":{"ha":853,"x_min":0,"x_max":0,"o":"m 640 -151 b 450 25 640 -40 568 25 b 386 17 431 25 408 22 b 464 101 407 43 432 72 l 575 207 l 575 208 l 438 208 l 368 138 b 215 -146 265 32 215 -40 b 424 -340 215 -262 299 -340 b 640 -151 550 -340 640 -262 z m 324 -142 b 340 -61 324 -115 329 -87 b 422 -49 368 -51 394 -49 b 531 -150 492 -49 531 -86 b 425 -251 531 -212 490 -251 b 324 -142 365 -251 324 -210 z "},"₇":{"ha":853,"x_min":0,"x_max":0,"o":"m 394 -319 l 618 115 l 618 208 l 208 208 l 208 117 l 514 117 l 514 114 l 272 -317 l 272 -319 z "},"₈":{"ha":853,"x_min":0,"x_max":0,"o":"m 425 -340 b 639 -183 549 -340 639 -279 b 515 -47 639 -119 588 -68 l 515 -44 b 622 81 581 -25 622 21 b 428 229 622 172 542 229 b 231 79 314 229 231 172 b 339 -46 231 19 272 -26 l 339 -49 b 214 -185 264 -69 214 -121 b 425 -340 214 -281 306 -340 z m 426 -11 b 332 68 375 -11 332 18 b 428 147 332 118 374 147 b 521 69 483 147 521 118 b 426 -11 521 19 479 -11 z m 426 -260 b 318 -172 364 -260 318 -226 b 426 -86 318 -119 364 -86 b 535 -171 489 -86 535 -118 b 426 -260 535 -225 489 -260 z "},"₉":{"ha":853,"x_min":0,"x_max":0,"o":"m 485 -250 b 638 33 588 -146 638 -71 b 432 229 638 150 556 229 b 213 39 303 229 213 151 b 403 -137 213 -72 285 -137 b 468 -128 424 -137 446 -135 b 389 -214 447 -156 421 -185 l 278 -318 l 278 -319 l 415 -319 z m 529 29 b 513 -51 529 3 524 -25 b 431 -64 485 -61 458 -64 b 322 38 363 -64 322 -26 b 428 140 322 100 364 140 b 529 29 488 140 529 99 z "},"ʹ":{"ha":853,"x_min":0,"x_max":0,"o":"m 347 535 l 506 535 l 531 986 l 322 986 z "},"ʺ":{"ha":853,"x_min":0,"x_max":0,"o":"m 550 535 l 690 535 l 717 986 l 525 986 z m 182 535 l 322 535 l 349 986 l 156 986 z "},"ʻ":{"ha":853,"x_min":0,"x_max":0,"o":"m 653 986 l 507 986 b 240 569 343 864 267 756 l 476 569 b 653 983 489 729 529 819 z "},"ʼ":{"ha":853,"x_min":0,"x_max":0,"o":"m 200 569 l 346 569 b 613 986 510 690 586 799 l 376 986 b 200 572 364 825 324 735 z "},"ʿ":{"ha":853,"x_min":0,"x_max":0,"o":"m 581 1007 b 214 726 322 1007 214 885 b 581 438 214 563 322 438 l 581 557 b 354 726 404 557 354 624 b 581 888 354 824 406 888 z "},"ʾ":{"ha":853,"x_min":0,"x_max":0,"o":"m 250 438 b 617 726 508 438 617 564 b 250 1007 617 886 508 1007 l 250 888 b 476 726 425 888 476 824 b 250 557 476 625 425 557 z "},"ˈ":{"ha":853,"x_min":0,"x_max":0,"o":"m 501 449 l 501 993 l 351 993 l 351 449 z "},"ˌ":{"ha":853,"x_min":0,"x_max":0,"o":"m 501 -319 l 501 225 l 351 225 l 351 -319 z "},"´":{"ha":853,"x_min":0,"x_max":0,"o":"m 294 843 l 346 760 l 664 942 l 600 1044 z "},"˝":{"ha":853,"x_min":0,"x_max":0,"o":"m 164 822 l 233 760 l 425 965 l 329 1040 z m 493 822 l 563 760 l 753 965 l 658 1040 z "},"`":{"ha":853,"x_min":0,"x_max":0,"o":"m 558 842 l 253 1044 l 189 942 l 507 758 z "},"ˆ":{"ha":853,"x_min":0,"x_max":0,"o":"m 168 824 l 224 760 l 426 925 l 629 760 l 685 824 l 463 1044 l 390 1044 z "},"ˇ":{"ha":853,"x_min":0,"x_max":0,"o":"m 685 979 l 629 1044 l 426 878 l 224 1044 l 168 979 l 390 760 l 463 760 z "},"˘":{"ha":853,"x_min":0,"x_max":0,"o":"m 426 867 b 256 1035 354 867 299 911 l 161 1003 b 426 760 208 826 306 760 b 692 1003 547 760 644 826 l 597 1035 b 426 867 554 911 499 867 z "},"˜":{"ha":853,"x_min":0,"x_max":0,"o":"m 399 847 b 538 760 474 774 506 760 b 710 1003 592 760 636 783 l 618 1036 b 536 878 568 894 554 878 b 451 943 521 878 511 886 b 313 1032 376 1017 346 1032 b 140 788 258 1032 214 1007 l 235 754 b 314 913 283 896 296 913 b 399 847 328 913 339 906 z "},"¯":{"ha":853,"x_min":0,"x_max":0,"o":"m 193 815 l 660 815 l 660 925 l 193 925 z "},"¨":{"ha":853,"x_min":0,"x_max":0,"o":"m 264 788 b 356 874 321 788 356 817 b 265 963 356 931 325 963 b 174 874 208 963 174 926 b 264 788 174 817 207 788 z m 586 788 b 679 874 643 788 679 817 b 588 963 679 931 647 963 b 497 874 532 963 497 926 b 586 788 497 817 529 788 z "},"˙":{"ha":853,"x_min":0,"x_max":0,"o":"m 426 788 b 524 879 486 788 524 819 b 428 972 524 940 490 972 b 331 879 368 972 331 935 b 426 788 331 819 367 788 z "},"˚":{"ha":853,"x_min":0,"x_max":0,"o":"m 425 760 b 633 942 546 760 633 826 b 428 1121 633 1053 549 1121 b 219 940 306 1121 219 1051 b 425 760 219 825 306 760 z m 426 850 b 318 939 357 850 318 876 b 425 1031 318 1003 358 1031 b 533 943 496 1031 533 1003 b 426 850 533 878 494 850 z "},"ꞈ":{"ha":853,"x_min":0,"x_max":0,"o":"m 168 -326 l 224 -390 l 426 -225 l 629 -390 l 685 -326 l 463 -106 l 390 -106 z "},"ˍ":{"ha":853,"x_min":0,"x_max":0,"o":"m 193 -272 l 660 -272 l 660 -161 l 193 -161 z "},"¸":{"ha":853,"x_min":0,"x_max":0,"o":"m 397 29 l 340 -137 l 349 -151 b 533 -207 504 -157 533 -176 b 268 -283 533 -243 500 -262 l 292 -368 b 644 -204 607 -342 644 -287 b 438 -81 644 -142 606 -99 l 472 29 z "},"˛":{"ha":853,"x_min":0,"x_max":0,"o":"m 269 -217 b 397 -319 269 -282 306 -315 l 529 -325 l 540 -222 l 449 -217 b 388 -165 400 -214 388 -197 b 481 13 388 -142 393 -107 l 408 18 b 269 -217 294 -118 269 -174 z "},"Á":{"ha":853,"x_min":0,"x_max":0,"o":"m 292 1100 l 338 1015 l 669 1179 l 611 1285 z m 204 0 l 271 215 l 574 215 l 640 0 l 804 0 l 524 910 l 329 910 l 49 0 z m 304 339 l 422 747 l 539 339 z "},"À":{"ha":853,"x_min":0,"x_max":0,"o":"m 544 1100 l 225 1285 l 167 1179 l 499 1015 z m 204 0 l 271 215 l 574 215 l 640 0 l 804 0 l 524 910 l 329 910 l 49 0 z m 304 339 l 422 747 l 539 339 z "},"Â":{"ha":853,"x_min":0,"x_max":0,"o":"m 150 1078 l 201 1001 l 418 1144 l 636 1001 l 688 1078 l 446 1264 l 390 1264 z m 204 0 l 271 215 l 574 215 l 640 0 l 804 0 l 524 910 l 329 910 l 49 0 z m 304 339 l 422 747 l 539 339 z "},"Ậ":{"ha":853,"x_min":0,"x_max":0,"o":"m 150 1078 l 201 1001 l 418 1144 l 636 1001 l 688 1078 l 446 1264 l 390 1264 z m 204 0 l 271 215 l 574 215 l 640 0 l 804 0 l 524 910 l 329 910 l 49 0 z m 304 339 l 422 747 l 539 339 z m 418 -312 b 515 -219 478 -312 515 -281 b 419 -126 515 -160 482 -126 b 322 -219 360 -126 322 -165 b 418 -312 322 -281 358 -312 z "},"Ấ":{"ha":853,"x_min":0,"x_max":0,"o":"m 539 1313 l 583 1225 l 806 1332 l 749 1438 z m 150 1078 l 201 1001 l 418 1126 l 636 1001 l 688 1078 l 446 1246 l 390 1246 z m 204 0 l 271 215 l 574 215 l 640 0 l 804 0 l 524 910 l 329 910 l 49 0 z m 304 339 l 422 747 l 539 339 z "},"Ầ":{"ha":853,"x_min":0,"x_max":0,"o":"m 747 1317 l 529 1447 l 472 1340 l 703 1229 z m 150 1078 l 201 1001 l 418 1126 l 636 1001 l 688 1078 l 446 1246 l 390 1246 z m 204 0 l 271 215 l 574 215 l 640 0 l 804 0 l 524 910 l 329 910 l 49 0 z m 304 339 l 422 747 l 539 339 z "},"Ẩ":{"ha":853,"x_min":0,"x_max":0,"o":"m 572 1238 b 825 1379 768 1265 825 1324 b 539 1506 825 1438 772 1475 l 476 1426 l 476 1424 b 688 1364 664 1396 688 1385 b 539 1307 688 1344 665 1331 l 539 1304 z m 150 1078 l 201 1001 l 418 1126 l 636 1001 l 688 1078 l 446 1246 l 390 1246 z m 204 0 l 271 215 l 574 215 l 640 0 l 804 0 l 524 910 l 329 910 l 49 0 z m 304 339 l 422 747 l 539 339 z "},"Ẫ":{"ha":853,"x_min":0,"x_max":0,"o":"m 446 1450 b 324 1508 375 1500 353 1508 b 169 1318 275 1508 231 1492 l 258 1285 b 333 1399 300 1385 314 1399 b 425 1350 350 1399 364 1392 b 546 1292 496 1300 517 1292 b 703 1489 596 1292 640 1310 l 615 1522 b 536 1401 571 1417 557 1401 b 446 1450 519 1401 506 1408 z m 150 1078 l 201 1001 l 418 1126 l 636 1001 l 688 1078 l 446 1246 l 390 1246 z m 204 0 l 271 215 l 574 215 l 640 0 l 804 0 l 524 910 l 329 910 l 49 0 z m 304 339 l 422 747 l 539 339 z "},"Ǎ":{"ha":853,"x_min":0,"x_max":0,"o":"m 688 1201 l 636 1278 l 418 1136 l 200 1278 l 150 1201 l 392 1015 l 446 1015 z m 204 0 l 271 215 l 574 215 l 640 0 l 804 0 l 524 910 l 329 910 l 49 0 z m 304 339 l 422 747 l 539 339 z "},"Ă":{"ha":853,"x_min":0,"x_max":0,"o":"m 418 1124 b 247 1275 346 1124 288 1161 l 153 1243 b 418 1015 197 1078 297 1015 b 683 1243 539 1015 639 1078 l 589 1275 b 418 1124 550 1161 490 1124 z m 204 0 l 271 215 l 574 215 l 640 0 l 804 0 l 524 910 l 329 910 l 49 0 z m 304 339 l 422 747 l 539 339 z "},"Ặ":{"ha":853,"x_min":0,"x_max":0,"o":"m 418 1124 b 247 1275 346 1124 288 1161 l 153 1243 b 418 1015 197 1078 297 1015 b 683 1243 539 1015 639 1078 l 589 1275 b 418 1124 550 1161 490 1124 z m 204 0 l 271 215 l 574 215 l 640 0 l 804 0 l 524 910 l 329 910 l 49 0 z m 304 339 l 422 747 l 539 339 z m 418 -312 b 515 -219 478 -312 515 -281 b 419 -126 515 -160 482 -126 b 322 -219 360 -126 322 -165 b 418 -312 322 -281 358 -312 z "},"Ắ":{"ha":853,"x_min":0,"x_max":0,"o":"m 328 1331 l 363 1243 l 706 1375 l 661 1483 z m 418 1124 b 247 1258 346 1124 283 1156 l 153 1226 b 418 1015 194 1072 297 1015 b 683 1217 539 1015 643 1069 l 589 1250 b 418 1124 554 1153 490 1124 z m 204 0 l 271 215 l 574 215 l 640 0 l 804 0 l 524 910 l 329 910 l 49 0 z m 304 339 l 422 747 l 539 339 z "},"Ằ":{"ha":853,"x_min":0,"x_max":0,"o":"m 510 1331 l 176 1483 l 132 1375 l 475 1243 z m 418 1124 b 247 1250 346 1124 282 1153 l 153 1217 b 418 1015 193 1069 297 1015 b 683 1226 539 1015 642 1072 l 589 1258 b 418 1124 553 1156 490 1124 z m 204 0 l 271 215 l 574 215 l 640 0 l 804 0 l 524 910 l 329 910 l 49 0 z m 304 339 l 422 747 l 539 339 z "},"Ẳ":{"ha":853,"x_min":0,"x_max":0,"o":"m 356 1249 b 608 1390 551 1276 608 1335 b 322 1515 608 1449 556 1486 l 260 1438 l 260 1435 b 472 1375 447 1407 472 1394 b 322 1317 472 1354 449 1342 l 322 1314 z m 418 1124 b 247 1258 346 1124 283 1156 l 153 1226 b 418 1015 194 1072 297 1015 b 683 1217 539 1015 643 1069 l 589 1250 b 418 1124 554 1153 490 1124 z m 204 0 l 271 215 l 574 215 l 640 0 l 804 0 l 524 910 l 329 910 l 49 0 z m 304 339 l 422 747 l 539 339 z "},"Ẵ":{"ha":853,"x_min":0,"x_max":0,"o":"m 429 1461 b 307 1519 358 1511 336 1519 b 153 1329 258 1519 214 1503 l 242 1296 b 318 1410 283 1396 297 1410 b 408 1361 333 1410 349 1403 b 529 1303 479 1311 500 1303 b 688 1500 579 1303 624 1321 l 599 1533 b 519 1413 554 1428 540 1413 b 429 1461 503 1413 489 1419 z m 418 1124 b 249 1246 347 1124 282 1151 l 154 1214 b 418 1015 193 1068 297 1015 b 683 1226 539 1015 642 1072 l 589 1258 b 418 1124 553 1156 490 1124 z m 204 0 l 271 215 l 574 215 l 640 0 l 804 0 l 524 910 l 329 910 l 49 0 z m 304 339 l 422 747 l 539 339 z "},"Ã":{"ha":853,"x_min":0,"x_max":0,"o":"m 701 1236 l 610 1269 b 528 1131 563 1143 546 1131 b 432 1192 513 1131 497 1136 b 301 1264 367 1249 336 1264 b 132 1043 249 1264 203 1243 l 224 1010 b 306 1149 271 1136 288 1149 b 401 1088 321 1149 336 1143 b 531 1015 467 1031 497 1015 b 701 1236 583 1015 631 1036 z m 204 0 l 271 215 l 574 215 l 640 0 l 804 0 l 524 910 l 329 910 l 49 0 z m 304 339 l 422 747 l 539 339 z "},"Ā":{"ha":853,"x_min":0,"x_max":0,"o":"m 186 1071 l 650 1071 l 650 1185 l 186 1185 z m 204 0 l 271 215 l 574 215 l 640 0 l 804 0 l 524 910 l 329 910 l 49 0 z m 304 339 l 422 747 l 539 339 z "},"Ä":{"ha":853,"x_min":0,"x_max":0,"o":"m 239 1043 b 332 1132 296 1043 332 1074 b 240 1222 332 1190 300 1222 b 147 1132 182 1222 147 1185 b 239 1043 147 1074 181 1043 z m 594 1043 b 689 1132 653 1043 689 1074 b 596 1222 689 1190 656 1222 b 503 1132 539 1222 503 1185 b 594 1043 503 1074 538 1043 z m 204 0 l 271 215 l 574 215 l 640 0 l 804 0 l 524 910 l 329 910 l 49 0 z m 304 339 l 422 747 l 539 339 z "},"Ȧ":{"ha":853,"x_min":0,"x_max":0,"o":"m 418 1043 b 517 1138 479 1043 517 1076 b 419 1232 517 1199 483 1232 b 321 1138 358 1232 321 1193 b 418 1043 321 1076 357 1043 z m 204 0 l 271 215 l 574 215 l 640 0 l 804 0 l 524 910 l 329 910 l 49 0 z m 304 339 l 422 747 l 539 339 z "},"Å":{"ha":853,"x_min":0,"x_max":0,"o":"m 204 0 l 271 215 l 574 215 l 640 0 l 804 0 l 551 817 b 650 968 614 846 650 900 b 426 1143 650 1075 564 1143 b 200 967 288 1143 200 1074 b 300 814 200 897 236 843 l 49 0 z m 425 881 b 310 965 349 881 310 910 b 425 1054 310 1025 346 1054 b 540 969 501 1054 540 1025 b 425 881 540 910 503 881 z m 304 339 l 422 747 l 539 339 z "},"Ả":{"ha":853,"x_min":0,"x_max":0,"o":"m 306 1015 b 606 1174 538 1047 606 1113 b 319 1311 606 1238 553 1281 l 258 1233 l 258 1229 b 469 1158 444 1201 469 1182 b 272 1083 469 1132 438 1117 l 272 1081 z m 204 0 l 271 215 l 574 215 l 640 0 l 804 0 l 524 910 l 329 910 l 49 0 z m 304 339 l 422 747 l 539 339 z "},"Ạ":{"ha":853,"x_min":0,"x_max":0,"o":"m 204 0 l 271 215 l 574 215 l 640 0 l 804 0 l 524 910 l 329 910 l 49 0 z m 304 339 l 422 747 l 539 339 z m 418 -312 b 515 -219 478 -312 515 -281 b 419 -126 515 -160 482 -126 b 322 -219 360 -126 322 -165 b 418 -312 322 -281 358 -312 z "},"Ą":{"ha":853,"x_min":0,"x_max":0,"o":"m 204 0 l 271 215 l 574 215 l 640 0 l 667 0 b 544 -217 565 -124 544 -175 b 672 -319 544 -282 581 -315 l 804 -325 l 815 -222 l 724 -217 b 663 -165 675 -214 663 -197 b 746 0 663 -143 668 -110 l 804 0 l 524 910 l 329 910 l 49 0 z m 304 339 l 422 747 l 539 339 z "},"Æ":{"ha":853,"x_min":0,"x_max":0,"o":"m 136 0 l 206 228 l 408 228 l 408 0 l 806 0 l 806 124 l 557 124 l 557 399 l 779 399 l 779 519 l 557 519 l 557 786 l 806 786 l 806 910 l 285 910 l -6 0 z m 240 343 l 374 786 l 408 786 l 408 343 z "},"Ḇ":{"ha":853,"x_min":0,"x_max":0,"o":"m 122 910 l 122 0 l 471 0 b 790 228 711 0 790 94 b 542 465 790 358 701 443 l 542 471 b 750 697 692 508 750 593 b 468 910 750 825 668 910 z m 446 789 b 593 668 546 789 593 750 b 399 519 593 588 536 526 l 276 513 l 276 789 z m 417 396 b 633 247 574 389 633 331 b 464 119 633 169 585 119 l 276 119 l 276 403 z m 206 -272 l 672 -272 l 672 -161 l 206 -161 z "},"Ć":{"ha":853,"x_min":0,"x_max":0,"o":"m 361 1104 l 407 1019 l 739 1183 l 681 1289 z m 457 -21 b 793 106 558 -21 667 13 l 722 213 b 478 110 614 135 540 110 b 233 456 343 110 233 211 b 486 800 233 681 347 800 b 711 700 544 800 601 783 l 785 813 b 483 931 661 901 583 931 b 74 453 242 931 74 733 b 457 -21 74 149 217 -21 z "},"Ĉ":{"ha":853,"x_min":0,"x_max":0,"o":"m 219 1089 l 271 1013 l 488 1156 l 706 1013 l 757 1089 l 515 1275 l 460 1275 z m 457 -21 b 793 106 558 -21 667 13 l 722 213 b 478 110 614 135 540 110 b 233 456 343 110 233 211 b 486 800 233 681 347 800 b 711 700 544 800 601 783 l 785 813 b 483 931 661 901 583 931 b 74 453 242 931 74 733 b 457 -21 74 149 217 -21 z "},"Č":{"ha":853,"x_min":0,"x_max":0,"o":"m 757 1206 l 706 1282 l 488 1140 l 269 1282 l 219 1206 l 461 1019 l 515 1019 z m 457 -21 b 793 106 558 -21 667 13 l 722 213 b 478 110 614 135 540 110 b 233 456 343 110 233 211 b 486 800 233 681 347 800 b 711 700 544 800 601 783 l 785 813 b 483 931 661 901 583 931 b 74 453 242 931 74 733 b 457 -21 74 149 217 -21 z "},"Ċ":{"ha":853,"x_min":0,"x_max":0,"o":"m 488 1047 b 586 1142 549 1047 586 1081 b 489 1236 586 1203 553 1236 b 390 1142 428 1236 390 1197 b 488 1047 390 1081 426 1047 z m 457 -21 b 793 106 558 -21 667 13 l 722 213 b 478 110 614 135 540 110 b 233 456 343 110 233 211 b 486 800 233 681 347 800 b 711 700 544 800 601 783 l 785 813 b 483 931 661 901 583 931 b 74 453 242 931 74 733 b 457 -21 74 149 217 -21 z "},"Ç":{"ha":853,"x_min":0,"x_max":0,"o":"m 685 -211 b 478 -87 685 -149 646 -106 l 500 -19 b 793 106 589 -11 685 25 l 722 213 b 478 110 614 135 540 110 b 233 456 343 110 233 211 b 486 800 233 681 347 800 b 711 700 544 800 601 783 l 785 813 b 483 931 661 901 583 931 b 74 453 242 931 74 733 b 424 -19 74 163 203 -4 l 381 -144 l 389 -158 b 575 -214 546 -164 575 -183 b 308 -290 575 -250 540 -269 l 332 -375 b 685 -211 647 -349 685 -294 z "},"Ď":{"ha":853,"x_min":0,"x_max":0,"o":"m 657 1201 l 606 1278 l 388 1136 l 169 1278 l 119 1201 l 361 1015 l 415 1015 z m 118 910 l 118 0 l 239 0 b 785 465 610 0 785 183 b 276 910 785 744 608 910 z m 325 778 b 625 463 506 772 625 675 b 294 132 625 242 511 140 l 274 131 l 274 781 z "},"Ḓ":{"ha":853,"x_min":0,"x_max":0,"o":"m 118 910 l 118 0 l 239 0 b 785 465 610 0 785 183 b 276 910 785 744 608 910 z m 325 778 b 625 463 506 772 625 675 b 294 132 625 242 511 140 l 274 131 l 274 781 z m 131 -326 l 186 -390 l 389 -225 l 592 -390 l 647 -326 l 425 -106 l 353 -106 z "},"Ḏ":{"ha":853,"x_min":0,"x_max":0,"o":"m 118 910 l 118 0 l 239 0 b 785 465 610 0 785 183 b 276 910 785 744 608 910 z m 325 778 b 625 463 506 772 625 675 b 294 132 625 242 511 140 l 274 131 l 274 781 z m 156 -272 l 622 -272 l 622 -161 l 156 -161 z "},"Ḍ":{"ha":853,"x_min":0,"x_max":0,"o":"m 118 910 l 118 0 l 239 0 b 785 465 610 0 785 183 b 276 910 785 744 608 910 z m 325 778 b 625 463 506 772 625 675 b 294 132 625 242 511 140 l 274 131 l 274 781 z m 389 -319 b 486 -226 449 -319 486 -287 b 390 -133 486 -167 453 -133 b 293 -226 331 -133 293 -172 b 389 -319 293 -287 329 -319 z "},"Đ":{"ha":853,"x_min":0,"x_max":0,"o":"m 36 414 l 147 414 l 147 0 l 239 0 b 785 465 610 0 785 183 b 276 910 785 744 608 910 l 147 910 l 147 503 l 36 503 z m 449 414 l 449 503 l 300 503 l 300 783 b 629 463 504 779 629 675 b 300 128 629 243 513 139 l 300 414 z "},"É":{"ha":853,"x_min":0,"x_max":0,"o":"m 321 1100 l 367 1015 l 699 1179 l 640 1285 z m 129 910 l 129 0 l 753 0 l 753 131 l 286 131 l 286 394 l 686 394 l 686 524 l 286 524 l 286 779 l 747 779 l 747 910 z "},"È":{"ha":853,"x_min":0,"x_max":0,"o":"m 574 1100 l 254 1285 l 196 1179 l 528 1015 z m 129 910 l 129 0 l 753 0 l 753 131 l 286 131 l 286 394 l 686 394 l 686 524 l 286 524 l 286 779 l 747 779 l 747 910 z "},"Ê":{"ha":853,"x_min":0,"x_max":0,"o":"m 179 1092 l 231 1015 l 447 1158 l 665 1015 l 717 1092 l 475 1278 l 419 1278 z m 129 910 l 129 0 l 753 0 l 753 131 l 286 131 l 286 394 l 686 394 l 686 524 l 286 524 l 286 779 l 747 779 l 747 910 z "},"Ệ":{"ha":853,"x_min":0,"x_max":0,"o":"m 179 1092 l 231 1015 l 447 1158 l 665 1015 l 717 1092 l 475 1278 l 419 1278 z m 129 910 l 129 0 l 753 0 l 753 131 l 286 131 l 286 394 l 686 394 l 686 524 l 286 524 l 286 779 l 747 779 l 747 910 z m 447 -319 b 544 -226 507 -319 544 -287 b 449 -133 544 -167 511 -133 b 351 -226 389 -133 351 -172 b 447 -319 351 -287 388 -319 z "},"Ế":{"ha":853,"x_min":0,"x_max":0,"o":"m 568 1326 l 613 1239 l 835 1346 l 778 1451 z m 179 1092 l 231 1015 l 447 1140 l 665 1015 l 717 1092 l 475 1260 l 419 1260 z m 129 910 l 129 0 l 753 0 l 753 131 l 286 131 l 286 394 l 686 394 l 686 524 l 286 524 l 286 779 l 747 779 l 747 910 z "},"Ề":{"ha":853,"x_min":0,"x_max":0,"o":"m 776 1331 l 558 1461 l 501 1354 l 732 1243 z m 179 1092 l 231 1015 l 447 1140 l 665 1015 l 717 1092 l 475 1260 l 419 1260 z m 129 910 l 129 0 l 753 0 l 753 131 l 286 131 l 286 394 l 686 394 l 686 524 l 286 524 l 286 779 l 747 779 l 747 910 z "},"Ể":{"ha":853,"x_min":0,"x_max":0,"o":"m 601 1251 b 854 1393 797 1279 854 1338 b 568 1519 854 1451 801 1489 l 506 1440 l 506 1438 b 717 1378 693 1410 717 1399 b 568 1321 717 1358 694 1344 l 568 1318 z m 179 1092 l 231 1015 l 447 1140 l 665 1015 l 717 1092 l 475 1260 l 419 1260 z m 129 910 l 129 0 l 753 0 l 753 131 l 286 131 l 286 394 l 686 394 l 686 524 l 286 524 l 286 779 l 747 779 l 747 910 z "},"Ễ":{"ha":853,"x_min":0,"x_max":0,"o":"m 475 1464 b 353 1522 404 1514 382 1522 b 199 1332 304 1522 260 1506 l 288 1299 b 363 1413 329 1399 343 1413 b 454 1364 379 1413 393 1406 b 575 1306 525 1314 546 1306 b 732 1503 625 1306 669 1324 l 644 1536 b 565 1415 600 1431 586 1415 b 475 1464 549 1415 535 1422 z m 179 1092 l 231 1015 l 447 1140 l 665 1015 l 717 1092 l 475 1260 l 419 1260 z m 129 910 l 129 0 l 753 0 l 753 131 l 286 131 l 286 394 l 686 394 l 686 524 l 286 524 l 286 779 l 747 779 l 747 910 z "},"Ě":{"ha":853,"x_min":0,"x_max":0,"o":"m 717 1201 l 665 1278 l 447 1136 l 229 1278 l 179 1201 l 421 1015 l 475 1015 z m 129 910 l 129 0 l 753 0 l 753 131 l 286 131 l 286 394 l 686 394 l 686 524 l 286 524 l 286 779 l 747 779 l 747 910 z "},"Ĕ":{"ha":853,"x_min":0,"x_max":0,"o":"m 447 1124 b 276 1275 375 1124 317 1161 l 182 1243 b 447 1015 226 1078 326 1015 b 713 1243 568 1015 668 1078 l 618 1275 b 447 1124 579 1161 519 1124 z m 129 910 l 129 0 l 753 0 l 753 131 l 286 131 l 286 394 l 686 394 l 686 524 l 286 524 l 286 779 l 747 779 l 747 910 z "},"Ẽ":{"ha":853,"x_min":0,"x_max":0,"o":"m 731 1236 l 639 1269 b 557 1131 592 1143 575 1131 b 461 1192 542 1131 526 1136 b 331 1264 396 1249 365 1264 b 161 1043 278 1264 232 1243 l 253 1010 b 335 1149 300 1136 317 1149 b 431 1088 350 1149 365 1143 b 560 1015 496 1031 526 1015 b 731 1236 613 1015 660 1036 z m 129 910 l 129 0 l 753 0 l 753 131 l 286 131 l 286 394 l 686 394 l 686 524 l 286 524 l 286 779 l 747 779 l 747 910 z "},"Ē":{"ha":853,"x_min":0,"x_max":0,"o":"m 215 1071 l 679 1071 l 679 1185 l 215 1185 z m 129 910 l 129 0 l 753 0 l 753 131 l 286 131 l 286 394 l 686 394 l 686 524 l 286 524 l 286 779 l 747 779 l 747 910 z "},"Ë":{"ha":853,"x_min":0,"x_max":0,"o":"m 268 1043 b 361 1132 325 1043 361 1074 b 269 1222 361 1190 329 1222 b 176 1132 211 1222 176 1185 b 268 1043 176 1074 210 1043 z m 624 1043 b 718 1132 682 1043 718 1074 b 625 1222 718 1190 685 1222 b 532 1132 568 1222 532 1185 b 624 1043 532 1074 567 1043 z m 129 910 l 129 0 l 753 0 l 753 131 l 286 131 l 286 394 l 686 394 l 686 524 l 286 524 l 286 779 l 747 779 l 747 910 z "},"Ė":{"ha":853,"x_min":0,"x_max":0,"o":"m 447 1043 b 546 1138 508 1043 546 1076 b 449 1232 546 1199 513 1232 b 350 1138 388 1232 350 1193 b 447 1043 350 1076 386 1043 z m 129 910 l 129 0 l 753 0 l 753 131 l 286 131 l 286 394 l 686 394 l 686 524 l 286 524 l 286 779 l 747 779 l 747 910 z "},"Ẻ":{"ha":853,"x_min":0,"x_max":0,"o":"m 335 1015 b 635 1174 567 1047 635 1113 b 349 1311 635 1238 582 1281 l 288 1233 l 288 1229 b 499 1158 474 1201 499 1182 b 301 1083 499 1132 467 1117 l 301 1081 z m 129 910 l 129 0 l 753 0 l 753 131 l 286 131 l 286 394 l 686 394 l 686 524 l 286 524 l 286 779 l 747 779 l 747 910 z "},"Ẹ":{"ha":853,"x_min":0,"x_max":0,"o":"m 129 910 l 129 0 l 753 0 l 753 131 l 286 131 l 286 394 l 686 394 l 686 524 l 286 524 l 286 779 l 747 779 l 747 910 z m 447 -319 b 544 -226 507 -319 544 -287 b 449 -133 544 -167 511 -133 b 351 -226 389 -133 351 -172 b 447 -319 351 -287 388 -319 z "},"Ę":{"ha":853,"x_min":0,"x_max":0,"o":"m 486 -217 b 614 -319 486 -282 524 -315 l 747 -325 l 757 -222 l 665 -217 b 604 -165 617 -214 604 -197 b 688 0 604 -143 610 -110 l 753 0 l 753 131 l 286 131 l 286 394 l 686 394 l 686 524 l 286 524 l 286 779 l 747 779 l 747 910 l 129 910 l 129 0 l 610 0 b 486 -217 508 -124 486 -175 z "},"Ĝ":{"ha":853,"x_min":0,"x_max":0,"o":"m 203 1088 l 254 1011 l 471 1154 l 689 1011 l 740 1088 l 499 1274 l 443 1274 z m 692 781 l 704 910 b 554 924 640 919 603 924 b 72 450 253 924 72 746 b 506 -21 72 138 221 -21 b 771 17 593 -21 682 -7 l 771 503 l 431 503 l 431 381 l 622 381 l 622 121 b 522 110 588 113 554 110 b 233 456 324 110 233 217 b 563 792 233 682 358 792 b 692 781 606 792 638 789 z "},"Ǧ":{"ha":853,"x_min":0,"x_max":0,"o":"m 740 1204 l 689 1281 l 471 1139 l 253 1281 l 203 1204 l 444 1018 l 499 1018 z m 692 781 l 704 910 b 554 924 640 919 603 924 b 72 450 253 924 72 746 b 506 -21 72 138 221 -21 b 771 17 593 -21 682 -7 l 771 503 l 431 503 l 431 381 l 622 381 l 622 121 b 522 110 588 113 554 110 b 233 456 324 110 233 217 b 563 792 233 682 358 792 b 692 781 606 792 638 789 z "},"Ğ":{"ha":853,"x_min":0,"x_max":0,"o":"m 471 1126 b 300 1278 399 1126 340 1164 l 206 1246 b 471 1018 250 1081 350 1018 b 736 1246 592 1018 692 1081 l 642 1278 b 471 1126 603 1164 543 1126 z m 692 781 l 704 910 b 554 924 640 919 603 924 b 72 450 253 924 72 746 b 506 -21 72 138 221 -21 b 771 17 593 -21 682 -7 l 771 503 l 431 503 l 431 381 l 622 381 l 622 121 b 522 110 588 113 554 110 b 233 456 324 110 233 217 b 563 792 233 682 358 792 b 692 781 606 792 638 789 z "},"Ḡ":{"ha":853,"x_min":0,"x_max":0,"o":"m 239 1074 l 703 1074 l 703 1188 l 239 1188 z m 692 781 l 704 910 b 554 924 640 919 603 924 b 72 450 253 924 72 746 b 506 -21 72 138 221 -21 b 771 17 593 -21 682 -7 l 771 503 l 431 503 l 431 381 l 622 381 l 622 121 b 522 110 588 113 554 110 b 233 456 324 110 233 217 b 563 792 233 682 358 792 b 692 781 606 792 638 789 z "},"Ġ":{"ha":853,"x_min":0,"x_max":0,"o":"m 471 1046 b 569 1140 532 1046 569 1079 b 472 1235 569 1201 536 1235 b 374 1140 411 1235 374 1196 b 471 1046 374 1079 410 1046 z m 692 781 l 704 910 b 554 924 640 919 603 924 b 72 450 253 924 72 746 b 506 -21 72 138 221 -21 b 771 17 593 -21 682 -7 l 771 503 l 431 503 l 431 381 l 622 381 l 622 121 b 522 110 588 113 554 110 b 233 456 324 110 233 217 b 563 792 233 682 358 792 b 692 781 606 792 638 789 z "},"Ģ":{"ha":853,"x_min":0,"x_max":0,"o":"m 692 781 l 704 910 b 554 924 640 919 603 924 b 72 450 253 924 72 746 b 506 -21 72 138 221 -21 b 771 17 593 -21 682 -7 l 771 503 l 431 503 l 431 381 l 622 381 l 622 121 b 522 110 588 113 554 110 b 233 456 324 110 233 217 b 563 792 233 682 358 792 b 692 781 606 792 638 789 z m 353 -428 b 643 -260 576 -400 643 -325 b 368 -112 643 -190 593 -142 l 306 -190 l 306 -194 b 507 -275 483 -219 507 -247 b 319 -358 507 -304 476 -331 l 319 -361 z "},"Ĥ":{"ha":853,"x_min":0,"x_max":0,"o":"m 158 1092 l 210 1015 l 426 1158 l 644 1015 l 696 1092 l 454 1278 l 399 1278 z m 118 910 l 118 0 l 274 0 l 274 393 l 579 393 l 579 0 l 735 0 l 735 910 l 579 910 l 579 524 l 274 524 l 274 910 z "},"Ḫ":{"ha":853,"x_min":0,"x_max":0,"o":"m 118 910 l 118 0 l 274 0 l 274 393 l 579 393 l 579 0 l 735 0 l 735 910 l 579 910 l 579 524 l 274 524 l 274 910 z m 426 -274 b 256 -106 354 -274 299 -231 l 161 -137 b 426 -382 208 -314 306 -382 b 692 -137 547 -382 644 -314 l 597 -106 b 426 -274 554 -229 499 -274 z "},"Ḥ":{"ha":853,"x_min":0,"x_max":0,"o":"m 118 910 l 118 0 l 274 0 l 274 393 l 579 393 l 579 0 l 735 0 l 735 910 l 579 910 l 579 524 l 274 524 l 274 910 z m 426 -312 b 524 -219 486 -312 524 -281 b 428 -126 524 -160 490 -126 b 331 -219 368 -126 331 -165 b 426 -312 331 -281 367 -312 z "},"Ḩ":{"ha":853,"x_min":0,"x_max":0,"o":"m 118 910 l 118 0 l 156 0 l 108 -137 l 117 -151 b 301 -207 272 -157 301 -176 b 36 -283 301 -243 268 -262 l 60 -368 b 413 -204 375 -342 413 -287 b 206 -81 413 -142 374 -99 l 231 0 l 274 0 l 274 393 l 579 393 l 579 0 l 735 0 l 735 910 l 579 910 l 579 524 l 274 524 l 274 910 z "},"Ħ":{"ha":853,"x_min":0,"x_max":0,"o":"m 36 650 l 147 650 l 147 0 l 300 0 l 300 344 l 553 344 l 553 0 l 706 0 l 706 650 l 817 650 l 817 736 l 706 736 l 706 910 l 553 910 l 553 732 l 300 732 l 300 910 l 147 910 l 147 736 l 36 736 z m 300 465 l 300 654 l 553 654 l 553 465 z "},"Í":{"ha":853,"x_min":0,"x_max":0,"o":"m 300 1100 l 346 1015 l 678 1179 l 619 1285 z m 171 82 l 171 0 l 682 0 l 682 82 l 506 115 l 506 794 l 682 828 l 682 910 l 171 910 l 171 828 l 350 794 l 350 115 z "},"Ì":{"ha":853,"x_min":0,"x_max":0,"o":"m 553 1100 l 233 1285 l 175 1179 l 507 1015 z m 171 82 l 171 0 l 682 0 l 682 82 l 506 115 l 506 794 l 682 828 l 682 910 l 171 910 l 171 828 l 350 794 l 350 115 z "},"Î":{"ha":853,"x_min":0,"x_max":0,"o":"m 158 1092 l 210 1015 l 426 1158 l 644 1015 l 696 1092 l 454 1278 l 399 1278 z m 171 82 l 171 0 l 682 0 l 682 82 l 506 115 l 506 794 l 682 828 l 682 910 l 171 910 l 171 828 l 350 794 l 350 115 z "},"Ǐ":{"ha":853,"x_min":0,"x_max":0,"o":"m 696 1201 l 644 1278 l 426 1136 l 208 1278 l 158 1201 l 400 1015 l 454 1015 z m 171 82 l 171 0 l 682 0 l 682 82 l 506 115 l 506 794 l 682 828 l 682 910 l 171 910 l 171 828 l 350 794 l 350 115 z "},"Ĭ":{"ha":853,"x_min":0,"x_max":0,"o":"m 426 1124 b 256 1275 354 1124 296 1161 l 161 1243 b 426 1015 206 1078 306 1015 b 692 1243 547 1015 647 1078 l 597 1275 b 426 1124 558 1161 499 1124 z m 171 82 l 171 0 l 682 0 l 682 82 l 506 115 l 506 794 l 682 828 l 682 910 l 171 910 l 171 828 l 350 794 l 350 115 z "},"Ĩ":{"ha":853,"x_min":0,"x_max":0,"o":"m 710 1236 l 618 1269 b 536 1131 571 1143 554 1131 b 440 1192 521 1131 506 1136 b 310 1264 375 1249 344 1264 b 140 1043 257 1264 211 1243 l 232 1010 b 314 1149 279 1136 296 1149 b 410 1088 329 1149 344 1143 b 539 1015 475 1031 506 1015 b 710 1236 592 1015 639 1036 z m 171 82 l 171 0 l 682 0 l 682 82 l 506 115 l 506 794 l 682 828 l 682 910 l 171 910 l 171 828 l 350 794 l 350 115 z "},"Ī":{"ha":853,"x_min":0,"x_max":0,"o":"m 194 1071 l 658 1071 l 658 1185 l 194 1185 z m 171 82 l 171 0 l 682 0 l 682 82 l 506 115 l 506 794 l 682 828 l 682 910 l 171 910 l 171 828 l 350 794 l 350 115 z "},"Ï":{"ha":853,"x_min":0,"x_max":0,"o":"m 247 1043 b 340 1132 304 1043 340 1074 b 249 1222 340 1190 308 1222 b 156 1132 190 1222 156 1185 b 247 1043 156 1074 189 1043 z m 603 1043 b 697 1132 661 1043 697 1074 b 604 1222 697 1190 664 1222 b 511 1132 547 1222 511 1185 b 603 1043 511 1074 546 1043 z m 171 82 l 171 0 l 682 0 l 682 82 l 506 115 l 506 794 l 682 828 l 682 910 l 171 910 l 171 828 l 350 794 l 350 115 z "},"İ":{"ha":853,"x_min":0,"x_max":0,"o":"m 426 1043 b 525 1138 488 1043 525 1076 b 428 1232 525 1199 492 1232 b 329 1138 367 1232 329 1193 b 426 1043 329 1076 365 1043 z m 171 82 l 171 0 l 682 0 l 682 82 l 506 115 l 506 794 l 682 828 l 682 910 l 171 910 l 171 828 l 350 794 l 350 115 z "},"Ỉ":{"ha":853,"x_min":0,"x_max":0,"o":"m 314 1015 b 614 1174 546 1047 614 1113 b 328 1311 614 1238 561 1281 l 267 1233 l 267 1229 b 478 1158 453 1201 478 1182 b 281 1083 478 1132 446 1117 l 281 1081 z m 171 82 l 171 0 l 682 0 l 682 82 l 506 115 l 506 794 l 682 828 l 682 910 l 171 910 l 171 828 l 350 794 l 350 115 z "},"Ị":{"ha":853,"x_min":0,"x_max":0,"o":"m 171 82 l 171 0 l 682 0 l 682 82 l 506 115 l 506 794 l 682 828 l 682 910 l 171 910 l 171 828 l 350 794 l 350 115 z m 426 -319 b 524 -226 486 -319 524 -287 b 428 -133 524 -167 490 -133 b 331 -226 368 -133 331 -172 b 426 -319 331 -287 367 -319 z "},"Į":{"ha":853,"x_min":0,"x_max":0,"o":"m 171 82 l 171 0 l 393 0 b 269 -217 292 -122 269 -175 b 397 -319 269 -281 306 -314 l 529 -325 l 540 -222 l 449 -217 b 388 -164 400 -214 388 -197 b 471 0 388 -143 393 -110 l 682 0 l 682 82 l 506 115 l 506 794 l 682 828 l 682 910 l 171 910 l 171 828 l 350 794 l 350 115 z "},"Ĵ":{"ha":853,"x_min":0,"x_max":0,"o":"m 386 1078 l 438 1001 l 654 1144 l 872 1001 l 924 1078 l 682 1264 l 626 1264 z m 451 -18 b 733 263 639 -18 733 96 l 733 910 l 576 910 l 576 275 b 444 122 576 172 532 122 b 153 294 378 122 308 156 l 57 181 b 451 -18 239 18 331 -18 z "},"Ḵ":{"ha":853,"x_min":0,"x_max":0,"o":"m 279 910 l 122 910 l 122 0 l 279 0 l 279 442 l 631 0 l 829 0 l 829 3 l 454 468 l 818 907 l 818 910 l 631 910 l 279 472 z m 206 -272 l 672 -272 l 672 -161 l 206 -161 z "},"Ķ":{"ha":853,"x_min":0,"x_max":0,"o":"m 279 910 l 122 910 l 122 0 l 279 0 l 279 442 l 631 0 l 829 0 l 829 3 l 454 468 l 818 907 l 818 910 l 631 910 l 279 472 z m 308 -421 b 599 -253 532 -393 599 -318 b 324 -106 599 -183 549 -135 l 261 -183 l 261 -187 b 463 -268 439 -212 463 -240 b 275 -351 463 -297 432 -324 l 275 -354 z "},"Ḳ":{"ha":853,"x_min":0,"x_max":0,"o":"m 279 910 l 122 910 l 122 0 l 279 0 l 279 442 l 631 0 l 829 0 l 829 3 l 454 468 l 818 907 l 818 910 l 631 910 l 279 472 z m 439 -319 b 536 -226 499 -319 536 -287 b 440 -133 536 -167 503 -133 b 343 -226 381 -133 343 -172 b 439 -319 343 -287 379 -319 z "},"Ĺ":{"ha":853,"x_min":0,"x_max":0,"o":"m 88 1100 l 133 1015 l 465 1179 l 407 1285 z m 129 910 l 129 0 l 761 0 l 761 129 l 286 129 l 286 910 z "},"Ľ":{"ha":853,"x_min":0,"x_max":0,"o":"m 129 910 l 129 0 l 761 0 l 761 129 l 286 129 l 286 910 z m 490 599 l 593 599 l 631 910 l 490 910 z "},"Ļ":{"ha":853,"x_min":0,"x_max":0,"o":"m 129 910 l 129 0 l 761 0 l 761 129 l 286 129 l 286 910 z m 322 -421 b 613 -253 546 -393 613 -318 b 338 -106 613 -183 563 -135 l 275 -183 l 275 -187 b 476 -268 453 -212 476 -240 b 289 -351 476 -297 446 -324 l 289 -354 z "},"Ḽ":{"ha":853,"x_min":0,"x_max":0,"o":"m 129 910 l 129 0 l 761 0 l 761 129 l 286 129 l 286 910 z m 194 -326 l 250 -390 l 453 -225 l 656 -390 l 711 -326 l 489 -106 l 417 -106 z "},"Ḻ":{"ha":853,"x_min":0,"x_max":0,"o":"m 129 910 l 129 0 l 761 0 l 761 129 l 286 129 l 286 910 z m 219 -272 l 686 -272 l 686 -161 l 219 -161 z "},"Ḹ":{"ha":853,"x_min":0,"x_max":0,"o":"m -18 1071 l 446 1071 l 446 1185 l -18 1185 z m 129 910 l 129 0 l 761 0 l 761 129 l 286 129 l 286 910 z m 453 -319 b 550 -226 513 -319 550 -287 b 454 -133 550 -167 517 -133 b 357 -226 394 -133 357 -172 b 453 -319 357 -287 393 -319 z "},"Ḷ":{"ha":853,"x_min":0,"x_max":0,"o":"m 129 910 l 129 0 l 761 0 l 761 129 l 286 129 l 286 910 z m 453 -319 b 550 -226 513 -319 550 -287 b 454 -133 550 -167 517 -133 b 357 -226 394 -133 357 -172 b 453 -319 357 -287 393 -319 z "},"Ŀ":{"ha":853,"x_min":0,"x_max":0,"o":"m 129 910 l 129 0 l 761 0 l 761 129 l 286 129 l 286 910 z m 643 392 b 753 522 711 392 753 436 b 643 650 753 607 717 650 b 535 521 574 650 535 601 b 643 392 535 436 571 392 z "},"Ł":{"ha":853,"x_min":0,"x_max":0,"o":"m 51 264 l 164 342 l 164 0 l 761 0 l 761 129 l 321 129 l 321 440 l 583 625 l 583 735 l 321 551 l 321 910 l 164 910 l 164 451 l 51 372 z "},"Ḿ":{"ha":853,"x_min":0,"x_max":0,"o":"m 303 1097 l 349 1013 l 681 1176 l 622 1282 z m 733 910 l 576 910 l 429 496 l 281 910 l 119 910 l 81 0 l 224 0 l 246 706 l 411 240 l 440 240 l 604 713 l 626 0 l 772 0 z "},"Ṁ":{"ha":853,"x_min":0,"x_max":0,"o":"m 429 1040 b 528 1135 490 1040 528 1074 b 431 1229 528 1196 494 1229 b 332 1135 369 1229 332 1190 b 429 1040 332 1074 368 1040 z m 733 910 l 576 910 l 429 496 l 281 910 l 119 910 l 81 0 l 224 0 l 246 706 l 411 240 l 440 240 l 604 713 l 626 0 l 772 0 z "},"Ṃ":{"ha":853,"x_min":0,"x_max":0,"o":"m 733 910 l 576 910 l 429 496 l 281 910 l 119 910 l 81 0 l 224 0 l 246 706 l 411 240 l 440 240 l 604 713 l 626 0 l 772 0 z m 429 -319 b 526 -226 489 -319 526 -287 b 431 -133 526 -167 493 -133 b 333 -226 371 -133 333 -172 b 429 -319 333 -287 369 -319 z "},"Ń":{"ha":853,"x_min":0,"x_max":0,"o":"m 307 1093 l 353 1008 l 685 1172 l 626 1278 z m 260 0 l 251 671 l 571 0 l 738 0 l 738 910 l 593 910 l 601 250 l 288 910 l 115 910 l 115 0 z "},"Ǹ":{"ha":853,"x_min":0,"x_max":0,"o":"m 560 1093 l 240 1278 l 182 1172 l 514 1008 z m 260 0 l 251 671 l 571 0 l 738 0 l 738 910 l 593 910 l 601 250 l 288 910 l 115 910 l 115 0 z "},"Ň":{"ha":853,"x_min":0,"x_max":0,"o":"m 703 1194 l 651 1271 l 433 1129 l 215 1271 l 165 1194 l 407 1008 l 461 1008 z m 260 0 l 251 671 l 571 0 l 738 0 l 738 910 l 593 910 l 601 250 l 288 910 l 115 910 l 115 0 z "},"Ñ":{"ha":853,"x_min":0,"x_max":0,"o":"m 717 1236 l 625 1269 b 543 1131 578 1143 561 1131 b 447 1192 528 1131 513 1136 b 317 1264 382 1249 351 1264 b 147 1043 264 1264 218 1243 l 239 1010 b 321 1149 286 1136 303 1149 b 417 1088 336 1149 351 1143 b 546 1015 482 1031 513 1015 b 717 1236 599 1015 646 1036 z m 260 0 l 251 671 l 571 0 l 738 0 l 738 910 l 593 910 l 601 250 l 288 910 l 115 910 l 115 0 z "},"Ṅ":{"ha":853,"x_min":0,"x_max":0,"o":"m 433 1036 b 532 1131 494 1036 532 1069 b 435 1225 532 1192 499 1225 b 336 1131 374 1225 336 1186 b 433 1036 336 1069 372 1036 z m 260 0 l 251 671 l 571 0 l 738 0 l 738 910 l 593 910 l 601 250 l 288 910 l 115 910 l 115 0 z "},"Ṋ":{"ha":853,"x_min":0,"x_max":0,"o":"m 260 0 l 251 671 l 571 0 l 738 0 l 738 910 l 593 910 l 601 250 l 288 910 l 115 910 l 115 0 z m 171 -319 l 226 -383 l 429 -218 l 632 -383 l 688 -319 l 465 -99 l 393 -99 z "},"Ņ":{"ha":853,"x_min":0,"x_max":0,"o":"m 260 0 l 251 671 l 571 0 l 738 0 l 738 910 l 593 910 l 601 250 l 288 910 l 115 910 l 115 0 z m 299 -414 b 589 -246 522 -386 589 -311 b 314 -99 589 -176 539 -128 l 251 -176 l 251 -181 b 453 -261 429 -206 453 -233 b 265 -344 453 -290 422 -317 l 265 -347 z "},"Ṇ":{"ha":853,"x_min":0,"x_max":0,"o":"m 260 0 l 251 671 l 571 0 l 738 0 l 738 910 l 593 910 l 601 250 l 288 910 l 115 910 l 115 0 z m 429 -312 b 526 -219 489 -312 526 -281 b 431 -126 526 -160 493 -126 b 333 -219 371 -126 333 -165 b 429 -312 333 -281 369 -312 z "},"Ṉ":{"ha":853,"x_min":0,"x_max":0,"o":"m 260 0 l 251 671 l 571 0 l 738 0 l 738 910 l 593 910 l 601 250 l 288 910 l 115 910 l 115 0 z m 196 -272 l 663 -272 l 663 -161 l 196 -161 z "},"Ŋ":{"ha":853,"x_min":0,"x_max":0,"o":"m 260 0 l 251 674 l 603 -57 b 444 -196 597 -154 543 -189 l 283 -208 l 289 -329 l 456 -319 b 738 -33 661 -307 738 -236 l 738 910 l 593 910 l 600 260 l 288 910 l 115 910 l 115 0 z "},"Ó":{"ha":853,"x_min":0,"x_max":0,"o":"m 301 1107 l 347 1022 l 679 1186 l 621 1292 z m 779 456 b 428 931 779 775 644 931 b 74 453 211 931 74 769 b 425 -21 74 133 210 -21 b 779 456 642 -21 779 138 z m 233 456 b 426 800 233 706 306 800 b 619 453 546 800 619 706 b 426 110 619 203 547 110 b 233 456 307 110 233 204 z "},"Ő":{"ha":853,"x_min":0,"x_max":0,"o":"m 189 1092 l 261 1021 l 454 1203 l 363 1288 z m 521 1092 l 593 1021 l 786 1203 l 693 1288 z m 779 456 b 428 931 779 775 644 931 b 74 453 211 931 74 769 b 425 -21 74 133 210 -21 b 779 456 642 -21 779 138 z m 233 456 b 426 800 233 706 306 800 b 619 453 546 800 619 706 b 426 110 619 203 547 110 b 233 456 307 110 233 204 z "},"Ò":{"ha":853,"x_min":0,"x_max":0,"o":"m 554 1107 l 235 1292 l 176 1186 l 508 1022 z m 779 456 b 428 931 779 775 644 931 b 74 453 211 931 74 769 b 425 -21 74 133 210 -21 b 779 456 642 -21 779 138 z m 233 456 b 426 800 233 706 306 800 b 619 453 546 800 619 706 b 426 110 619 203 547 110 b 233 456 307 110 233 204 z "},"Ô":{"ha":853,"x_min":0,"x_max":0,"o":"m 160 1092 l 211 1015 l 428 1158 l 646 1015 l 697 1092 l 456 1278 l 400 1278 z m 779 456 b 428 931 779 775 644 931 b 74 453 211 931 74 769 b 425 -21 74 133 210 -21 b 779 456 642 -21 779 138 z m 233 456 b 426 800 233 706 306 800 b 619 453 546 800 619 706 b 426 110 619 203 547 110 b 233 456 307 110 233 204 z "},"Ộ":{"ha":853,"x_min":0,"x_max":0,"o":"m 160 1092 l 211 1015 l 428 1158 l 646 1015 l 697 1092 l 456 1278 l 400 1278 z m 779 456 b 428 931 779 775 644 931 b 74 453 211 931 74 769 b 425 -21 74 133 210 -21 b 779 456 642 -21 779 138 z m 233 456 b 426 800 233 706 306 800 b 619 453 546 800 619 706 b 426 110 619 203 547 110 b 233 456 307 110 233 204 z m 429 -326 b 526 -233 489 -326 526 -294 b 431 -140 526 -174 493 -140 b 333 -233 371 -140 333 -179 b 429 -326 333 -294 369 -326 z "},"Ố":{"ha":853,"x_min":0,"x_max":0,"o":"m 549 1326 l 593 1239 l 815 1346 l 758 1451 z m 160 1092 l 211 1015 l 428 1140 l 646 1015 l 697 1092 l 456 1260 l 400 1260 z m 779 456 b 428 931 779 775 644 931 b 74 453 211 931 74 769 b 425 -21 74 133 210 -21 b 779 456 642 -21 779 138 z m 233 456 b 426 800 233 706 306 800 b 619 453 546 800 619 706 b 426 110 619 203 547 110 b 233 456 307 110 233 204 z "},"Ồ":{"ha":853,"x_min":0,"x_max":0,"o":"m 757 1331 l 539 1461 l 482 1354 l 713 1243 z m 160 1092 l 211 1015 l 428 1140 l 646 1015 l 697 1092 l 456 1260 l 400 1260 z m 779 456 b 428 931 779 775 644 931 b 74 453 211 931 74 769 b 425 -21 74 133 210 -21 b 779 456 642 -21 779 138 z m 233 456 b 426 800 233 706 306 800 b 619 453 546 800 619 706 b 426 110 619 203 547 110 b 233 456 307 110 233 204 z "},"Ổ":{"ha":853,"x_min":0,"x_max":0,"o":"m 582 1251 b 835 1393 778 1279 835 1338 b 549 1519 835 1451 782 1489 l 486 1440 l 486 1438 b 697 1378 674 1410 697 1399 b 549 1321 697 1358 675 1344 l 549 1318 z m 160 1092 l 211 1015 l 428 1140 l 646 1015 l 697 1092 l 456 1260 l 400 1260 z m 779 456 b 428 931 779 775 644 931 b 74 453 211 931 74 769 b 425 -21 74 133 210 -21 b 779 456 642 -21 779 138 z m 233 456 b 426 800 233 706 306 800 b 619 453 546 800 619 706 b 426 110 619 203 547 110 b 233 456 307 110 233 204 z "},"Ỗ":{"ha":853,"x_min":0,"x_max":0,"o":"m 456 1464 b 333 1522 385 1514 363 1522 b 179 1332 285 1522 240 1506 l 268 1299 b 343 1413 310 1399 324 1413 b 435 1364 360 1413 374 1406 b 556 1306 506 1314 526 1306 b 713 1503 606 1306 650 1324 l 625 1536 b 546 1415 581 1431 567 1415 b 456 1464 529 1415 515 1422 z m 160 1092 l 211 1015 l 428 1140 l 646 1015 l 697 1092 l 456 1260 l 400 1260 z m 779 456 b 428 931 779 775 644 931 b 74 453 211 931 74 769 b 425 -21 74 133 210 -21 b 779 456 642 -21 779 138 z m 233 456 b 426 800 233 706 306 800 b 619 453 546 800 619 706 b 426 110 619 203 547 110 b 233 456 307 110 233 204 z "},"Ǒ":{"ha":853,"x_min":0,"x_max":0,"o":"m 697 1208 l 646 1285 l 428 1143 l 210 1285 l 160 1208 l 401 1022 l 456 1022 z m 779 456 b 428 931 779 775 644 931 b 74 453 211 931 74 769 b 425 -21 74 133 210 -21 b 779 456 642 -21 779 138 z m 233 456 b 426 800 233 706 306 800 b 619 453 546 800 619 706 b 426 110 619 203 547 110 b 233 456 307 110 233 204 z "},"Ŏ":{"ha":853,"x_min":0,"x_max":0,"o":"m 428 1131 b 257 1282 356 1131 297 1168 l 163 1250 b 428 1022 207 1085 307 1022 b 693 1250 549 1022 649 1085 l 599 1282 b 428 1131 560 1168 500 1131 z m 779 456 b 428 931 779 775 644 931 b 74 453 211 931 74 769 b 425 -21 74 133 210 -21 b 779 456 642 -21 779 138 z m 233 456 b 426 800 233 706 306 800 b 619 453 546 800 619 706 b 426 110 619 203 547 110 b 233 456 307 110 233 204 z "},"Õ":{"ha":853,"x_min":0,"x_max":0,"o":"m 711 1243 l 619 1276 b 538 1138 572 1150 556 1138 b 442 1199 522 1138 507 1143 b 311 1271 376 1256 346 1271 b 142 1050 258 1271 213 1250 l 233 1017 b 315 1156 281 1143 297 1156 b 411 1094 331 1156 346 1150 b 540 1022 476 1038 507 1022 b 711 1243 593 1022 640 1043 z m 779 456 b 428 931 779 775 644 931 b 74 453 211 931 74 769 b 425 -21 74 133 210 -21 b 779 456 642 -21 779 138 z m 233 456 b 426 800 233 706 306 800 b 619 453 546 800 619 706 b 426 110 619 203 547 110 b 233 456 307 110 233 204 z "},"Ō":{"ha":853,"x_min":0,"x_max":0,"o":"m 196 1078 l 660 1078 l 660 1192 l 196 1192 z m 779 456 b 428 931 779 775 644 931 b 74 453 211 931 74 769 b 425 -21 74 133 210 -21 b 779 456 642 -21 779 138 z m 233 456 b 426 800 233 706 306 800 b 619 453 546 800 619 706 b 426 110 619 203 547 110 b 233 456 307 110 233 204 z "},"Ö":{"ha":853,"x_min":0,"x_max":0,"o":"m 249 1050 b 342 1139 306 1050 342 1081 b 250 1229 342 1197 310 1229 b 157 1139 192 1229 157 1192 b 249 1050 157 1081 190 1050 z m 604 1050 b 699 1139 663 1050 699 1081 b 606 1229 699 1197 665 1229 b 513 1139 549 1229 513 1192 b 604 1050 513 1081 547 1050 z m 779 456 b 428 931 779 775 644 931 b 74 453 211 931 74 769 b 425 -21 74 133 210 -21 b 779 456 642 -21 779 138 z m 233 456 b 426 800 233 706 306 800 b 619 453 546 800 619 706 b 426 110 619 203 547 110 b 233 456 307 110 233 204 z "},"Ȯ":{"ha":853,"x_min":0,"x_max":0,"o":"m 428 1050 b 526 1144 489 1050 526 1083 b 429 1239 526 1206 493 1239 b 331 1144 368 1239 331 1200 b 428 1050 331 1083 367 1050 z m 779 456 b 428 931 779 775 644 931 b 74 453 211 931 74 769 b 425 -21 74 133 210 -21 b 779 456 642 -21 779 138 z m 233 456 b 426 800 233 706 306 800 b 619 453 546 800 619 706 b 426 110 619 203 547 110 b 233 456 307 110 233 204 z "},"Ỏ":{"ha":853,"x_min":0,"x_max":0,"o":"m 315 1022 b 615 1181 547 1054 615 1119 b 329 1318 615 1244 563 1288 l 268 1240 l 268 1236 b 479 1165 454 1208 479 1189 b 282 1090 479 1139 447 1124 l 282 1088 z m 779 456 b 428 931 779 775 644 931 b 74 453 211 931 74 769 b 425 -21 74 133 210 -21 b 779 456 642 -21 779 138 z m 233 456 b 426 800 233 706 306 800 b 619 453 546 800 619 706 b 426 110 619 203 547 110 b 233 456 307 110 233 204 z "},"Ọ":{"ha":853,"x_min":0,"x_max":0,"o":"m 779 456 b 428 931 779 775 644 931 b 74 453 211 931 74 769 b 425 -21 74 133 210 -21 b 779 456 642 -21 779 138 z m 233 456 b 426 800 233 706 306 800 b 619 453 546 800 619 706 b 426 110 619 203 547 110 b 233 456 307 110 233 204 z m 429 -326 b 526 -233 489 -326 526 -294 b 431 -140 526 -174 493 -140 b 333 -233 371 -140 333 -179 b 429 -326 333 -294 369 -326 z "},"Ǫ":{"ha":853,"x_min":0,"x_max":0,"o":"m 285 -224 b 413 -326 285 -289 321 -322 l 544 -332 l 556 -229 l 464 -224 b 403 -172 415 -221 403 -204 b 479 -17 403 -150 407 -118 b 779 456 664 8 779 165 b 428 931 779 775 644 931 b 74 453 211 931 74 769 b 399 -19 74 147 199 -7 b 285 -224 306 -133 285 -183 z m 233 456 b 426 800 233 706 306 800 b 619 453 546 800 619 706 b 426 110 619 203 547 110 b 233 456 307 110 233 204 z "},"Ø":{"ha":853,"x_min":0,"x_max":0,"o":"m 779 456 b 682 804 779 607 742 724 l 808 1008 l 679 1008 l 608 875 b 428 931 557 911 494 931 b 74 453 211 931 74 769 b 169 106 74 303 110 186 l 44 -99 l 171 -99 l 242 35 b 425 -21 294 -1 357 -21 b 779 456 642 -21 779 138 z m 233 456 b 426 800 233 706 306 800 b 619 453 551 800 619 713 b 426 110 619 203 547 110 b 233 456 300 110 233 194 z "},"Œ":{"ha":853,"x_min":0,"x_max":0,"o":"m 403 0 l 807 0 l 807 124 l 558 124 l 558 399 l 781 399 l 781 519 l 558 519 l 558 786 l 807 786 l 807 910 l 442 910 b 38 444 164 910 38 726 b 403 0 38 165 164 0 z m 356 124 b 188 447 254 126 188 228 b 386 786 188 674 256 781 l 410 788 l 410 121 z "},"Ơ":{"ha":853,"x_min":0,"x_max":0,"o":"m 426 910 b 74 446 211 910 74 754 b 425 -21 74 131 210 -21 b 779 449 642 -21 779 135 b 606 822 779 643 719 753 l 610 832 b 694 819 647 822 674 819 b 863 1067 800 819 858 889 l 721 1067 b 583 910 715 947 690 910 z m 233 449 b 426 779 233 689 306 779 b 619 446 546 779 619 689 b 426 110 619 201 547 110 b 233 449 307 110 233 203 z "},"Ớ":{"ha":853,"x_min":0,"x_max":0,"o":"m 301 1107 l 347 1022 l 679 1186 l 621 1292 z m 426 910 b 74 446 211 910 74 754 b 425 -21 74 131 210 -21 b 779 449 642 -21 779 135 b 606 822 779 643 719 753 l 610 832 b 694 819 647 822 674 819 b 863 1067 800 819 858 889 l 721 1067 b 583 910 715 947 690 910 z m 233 449 b 426 779 233 689 306 779 b 619 446 546 779 619 689 b 426 110 619 201 547 110 b 233 449 307 110 233 203 z "},"Ờ":{"ha":853,"x_min":0,"x_max":0,"o":"m 554 1107 l 235 1292 l 176 1186 l 508 1022 z m 426 910 b 74 446 211 910 74 754 b 425 -21 74 131 210 -21 b 779 449 642 -21 779 135 b 606 822 779 643 719 753 l 610 832 b 694 819 647 822 674 819 b 863 1067 800 819 858 889 l 721 1067 b 583 910 715 947 690 910 z m 233 449 b 426 779 233 689 306 779 b 619 446 546 779 619 689 b 426 110 619 201 547 110 b 233 449 307 110 233 203 z "},"Ỡ":{"ha":853,"x_min":0,"x_max":0,"o":"m 711 1243 l 619 1276 b 538 1138 572 1150 556 1138 b 442 1199 522 1138 507 1143 b 311 1271 376 1256 346 1271 b 142 1050 258 1271 213 1250 l 233 1017 b 315 1156 281 1143 297 1156 b 411 1094 331 1156 346 1150 b 540 1022 476 1038 507 1022 b 711 1243 593 1022 640 1043 z m 426 910 b 74 446 211 910 74 754 b 425 -21 74 131 210 -21 b 779 449 642 -21 779 135 b 606 822 779 643 719 753 l 610 832 b 694 819 647 822 674 819 b 863 1067 800 819 858 889 l 721 1067 b 583 910 715 947 690 910 z m 233 449 b 426 779 233 689 306 779 b 619 446 546 779 619 689 b 426 110 619 201 547 110 b 233 449 307 110 233 203 z "},"Ở":{"ha":853,"x_min":0,"x_max":0,"o":"m 315 1022 b 615 1181 547 1054 615 1119 b 329 1318 615 1244 563 1288 l 268 1240 l 268 1236 b 479 1165 454 1208 479 1189 b 282 1090 479 1139 447 1124 l 282 1088 z m 426 910 b 74 446 211 910 74 754 b 425 -21 74 131 210 -21 b 779 449 642 -21 779 135 b 606 822 779 643 719 753 l 610 832 b 694 819 647 822 674 819 b 863 1067 800 819 858 889 l 721 1067 b 583 910 715 947 690 910 z m 233 449 b 426 779 233 689 306 779 b 619 446 546 779 619 689 b 426 110 619 201 547 110 b 233 449 307 110 233 203 z "},"Ợ":{"ha":853,"x_min":0,"x_max":0,"o":"m 426 910 b 74 446 211 910 74 754 b 425 -21 74 131 210 -21 b 779 449 642 -21 779 135 b 606 822 779 643 719 753 l 610 832 b 694 819 647 822 674 819 b 863 1067 800 819 858 889 l 721 1067 b 583 910 715 947 690 910 z m 233 449 b 426 779 233 689 306 779 b 619 446 546 779 619 689 b 426 110 619 201 547 110 b 233 449 307 110 233 203 z m 429 -326 b 526 -233 489 -326 526 -294 b 431 -140 526 -174 493 -140 b 333 -233 371 -140 333 -179 b 429 -326 333 -294 369 -326 z "},"Ŕ":{"ha":853,"x_min":0,"x_max":0,"o":"m 311 1100 l 357 1015 l 689 1179 l 631 1285 z m 819 6 l 615 253 b 461 378 554 326 518 351 l 461 386 b 758 654 693 422 758 521 b 460 910 758 813 657 910 l 122 910 l 122 0 l 278 0 l 278 347 b 454 229 363 338 394 311 l 624 0 l 819 0 z m 435 785 b 601 640 550 785 601 733 b 328 461 601 551 557 490 l 278 454 l 278 785 z "},"Ř":{"ha":853,"x_min":0,"x_max":0,"o":"m 707 1201 l 656 1278 l 438 1136 l 219 1278 l 169 1201 l 411 1015 l 465 1015 z m 819 6 l 615 253 b 461 378 554 326 518 351 l 461 386 b 758 654 693 422 758 521 b 460 910 758 813 657 910 l 122 910 l 122 0 l 278 0 l 278 347 b 454 229 363 338 394 311 l 624 0 l 819 0 z m 435 785 b 601 640 550 785 601 733 b 328 461 601 551 557 490 l 278 454 l 278 785 z "},"Ṙ":{"ha":853,"x_min":0,"x_max":0,"o":"m 438 1043 b 536 1138 499 1043 536 1076 b 439 1232 536 1199 503 1232 b 340 1138 378 1232 340 1193 b 438 1043 340 1076 376 1043 z m 819 6 l 615 253 b 461 378 554 326 518 351 l 461 386 b 758 654 693 422 758 521 b 460 910 758 813 657 910 l 122 910 l 122 0 l 278 0 l 278 347 b 454 229 363 338 394 311 l 624 0 l 819 0 z m 435 785 b 601 640 550 785 601 733 b 328 461 601 551 557 490 l 278 454 l 278 785 z "},"Ṝ":{"ha":853,"x_min":0,"x_max":0,"o":"m 206 1071 l 669 1071 l 669 1185 l 206 1185 z m 819 6 l 615 253 b 461 378 554 326 518 351 l 461 386 b 758 654 693 422 758 521 b 460 910 758 813 657 910 l 122 910 l 122 0 l 278 0 l 278 347 b 454 229 363 338 394 311 l 624 0 l 819 0 z m 435 785 b 601 640 550 785 601 733 b 328 461 601 551 557 490 l 278 454 l 278 785 z m 438 -319 b 535 -226 497 -319 535 -287 b 439 -133 535 -167 501 -133 b 342 -226 379 -133 342 -172 b 438 -319 342 -287 378 -319 z "},"Ŗ":{"ha":853,"x_min":0,"x_max":0,"o":"m 819 6 l 615 253 b 461 378 554 326 518 351 l 461 386 b 758 654 693 422 758 521 b 460 910 758 813 657 910 l 122 910 l 122 0 l 278 0 l 278 347 b 454 229 363 338 394 311 l 624 0 l 819 0 z m 435 785 b 601 640 550 785 601 733 b 328 461 601 551 557 490 l 278 454 l 278 785 z m 307 -421 b 597 -253 531 -393 597 -318 b 322 -106 597 -183 547 -135 l 260 -183 l 260 -187 b 461 -268 438 -212 461 -240 b 274 -351 461 -297 431 -324 l 274 -354 z "},"Ṛ":{"ha":853,"x_min":0,"x_max":0,"o":"m 819 6 l 615 253 b 461 378 554 326 518 351 l 461 386 b 758 654 693 422 758 521 b 460 910 758 813 657 910 l 122 910 l 122 0 l 278 0 l 278 347 b 454 229 363 338 394 311 l 624 0 l 819 0 z m 435 785 b 601 640 550 785 601 733 b 328 461 601 551 557 490 l 278 454 l 278 785 z m 438 -319 b 535 -226 497 -319 535 -287 b 439 -133 535 -167 501 -133 b 342 -226 379 -133 342 -172 b 438 -319 342 -287 378 -319 z "},"Ṟ":{"ha":853,"x_min":0,"x_max":0,"o":"m 819 6 l 615 253 b 461 378 554 326 518 351 l 461 386 b 758 654 693 422 758 521 b 460 910 758 813 657 910 l 122 910 l 122 0 l 278 0 l 278 347 b 454 229 363 338 394 311 l 624 0 l 819 0 z m 435 785 b 601 640 550 785 601 733 b 328 461 601 551 557 490 l 278 454 l 278 785 z m 204 -272 l 671 -272 l 671 -161 l 204 -161 z "},"Ś":{"ha":853,"x_min":0,"x_max":0,"o":"m 315 1107 l 361 1022 l 693 1186 l 635 1292 z m 424 111 b 122 179 349 111 246 136 l 89 46 b 421 -19 214 3 318 -19 b 757 253 639 -19 757 90 b 526 513 757 392 693 463 l 431 543 b 279 689 308 582 279 622 b 443 797 279 751 324 797 b 704 753 510 797 593 783 l 726 886 b 446 926 624 913 546 926 b 122 676 231 926 122 808 b 353 411 122 544 189 464 l 446 382 b 599 242 571 343 599 307 b 424 111 599 161 547 111 z "},"Ŝ":{"ha":853,"x_min":0,"x_max":0,"o":"m 174 1092 l 225 1015 l 442 1158 l 660 1015 l 711 1092 l 469 1278 l 414 1278 z m 424 111 b 122 179 349 111 246 136 l 89 46 b 421 -19 214 3 318 -19 b 757 253 639 -19 757 90 b 526 513 757 392 693 463 l 431 543 b 279 689 308 582 279 622 b 443 797 279 751 324 797 b 704 753 510 797 593 783 l 726 886 b 446 926 624 913 546 926 b 122 676 231 926 122 808 b 353 411 122 544 189 464 l 446 382 b 599 242 571 343 599 307 b 424 111 599 161 547 111 z "},"Š":{"ha":853,"x_min":0,"x_max":0,"o":"m 711 1208 l 660 1285 l 442 1143 l 224 1285 l 174 1208 l 415 1022 l 469 1022 z m 424 111 b 122 179 349 111 246 136 l 89 46 b 421 -19 214 3 318 -19 b 757 253 639 -19 757 90 b 526 513 757 392 693 463 l 431 543 b 279 689 308 582 279 622 b 443 797 279 751 324 797 b 704 753 510 797 593 783 l 726 886 b 446 926 624 913 546 926 b 122 676 231 926 122 808 b 353 411 122 544 189 464 l 446 382 b 599 242 571 343 599 307 b 424 111 599 161 547 111 z "},"Ș":{"ha":853,"x_min":0,"x_max":0,"o":"m 424 111 b 122 179 349 111 246 136 l 89 46 b 421 -19 214 3 318 -19 b 757 253 639 -19 757 90 b 526 513 757 392 693 463 l 431 543 b 279 689 308 582 279 622 b 443 797 279 751 324 797 b 704 753 510 797 593 783 l 726 886 b 446 926 624 913 546 926 b 122 676 231 926 122 808 b 353 411 122 544 189 464 l 446 382 b 599 242 571 343 599 307 b 424 111 599 161 547 111 z m 286 -425 b 576 -257 510 -397 576 -322 b 301 -110 576 -187 526 -139 l 239 -187 l 239 -192 b 440 -272 417 -217 440 -244 b 253 -356 440 -301 410 -328 l 253 -358 z "},"Ṣ":{"ha":853,"x_min":0,"x_max":0,"o":"m 424 111 b 122 179 349 111 246 136 l 89 46 b 421 -19 214 3 318 -19 b 757 253 639 -19 757 90 b 526 513 757 392 693 463 l 431 543 b 279 689 308 582 279 622 b 443 797 279 751 324 797 b 704 753 510 797 593 783 l 726 886 b 446 926 624 913 546 926 b 122 676 231 926 122 808 b 353 411 122 544 189 464 l 446 382 b 599 242 571 343 599 307 b 424 111 599 161 547 111 z m 417 -324 b 514 -231 476 -324 514 -292 b 418 -137 514 -171 481 -137 b 321 -231 358 -137 321 -176 b 417 -324 321 -292 357 -324 z "},"Ş":{"ha":853,"x_min":0,"x_max":0,"o":"m 424 111 b 122 179 349 111 246 136 l 89 46 b 376 -18 196 8 288 -12 l 333 -144 l 342 -158 b 528 -214 499 -164 528 -183 b 261 -290 528 -250 494 -269 l 286 -375 b 638 -211 601 -349 638 -294 b 432 -87 638 -149 600 -106 l 454 -18 b 757 253 651 -8 757 99 b 526 513 757 392 693 463 l 431 543 b 279 689 308 582 279 622 b 443 797 279 751 324 797 b 704 753 510 797 593 783 l 726 886 b 446 926 624 913 546 926 b 122 676 231 926 122 808 b 353 411 122 544 189 464 l 446 382 b 599 242 571 343 599 307 b 424 111 599 161 547 111 z "},"ẞ":{"ha":853,"x_min":0,"x_max":0,"o":"m 453 432 b 657 204 631 303 657 265 b 554 117 657 156 628 117 b 449 126 517 117 488 119 l 439 3 b 574 -8 478 -4 518 -8 b 806 200 715 -8 806 75 b 603 482 806 294 778 357 l 761 776 l 761 810 b 426 931 618 903 522 931 b 108 593 236 931 108 815 l 108 0 l 265 0 l 265 601 b 436 800 265 740 326 800 b 600 751 488 800 535 786 l 453 478 z "},"Ť":{"ha":853,"x_min":0,"x_max":0,"o":"m 696 1201 l 644 1278 l 426 1136 l 208 1278 l 158 1201 l 400 1015 l 454 1015 z m 63 779 l 349 779 l 349 0 l 504 0 l 504 779 l 790 779 l 790 910 l 63 910 z "},"Ṱ":{"ha":853,"x_min":0,"x_max":0,"o":"m 63 779 l 349 779 l 349 0 l 504 0 l 504 779 l 790 779 l 790 910 l 63 910 z m 168 -326 l 224 -390 l 426 -225 l 629 -390 l 685 -326 l 463 -106 l 390 -106 z "},"Ț":{"ha":853,"x_min":0,"x_max":0,"o":"m 63 779 l 349 779 l 349 0 l 504 0 l 504 779 l 790 779 l 790 910 l 63 910 z m 296 -421 b 586 -253 519 -393 586 -318 b 311 -106 586 -183 536 -135 l 249 -183 l 249 -187 b 450 -268 426 -212 450 -240 b 263 -351 450 -297 419 -324 l 263 -354 z "},"Ṭ":{"ha":853,"x_min":0,"x_max":0,"o":"m 63 779 l 349 779 l 349 0 l 504 0 l 504 779 l 790 779 l 790 910 l 63 910 z m 426 -319 b 524 -226 486 -319 524 -287 b 428 -133 524 -167 490 -133 b 331 -226 368 -133 331 -172 b 426 -319 331 -287 367 -319 z "},"Ṯ":{"ha":853,"x_min":0,"x_max":0,"o":"m 63 779 l 349 779 l 349 0 l 504 0 l 504 779 l 790 779 l 790 910 l 63 910 z m 193 -272 l 660 -272 l 660 -161 l 193 -161 z "},"Ţ":{"ha":853,"x_min":0,"x_max":0,"o":"m 63 779 l 349 779 l 349 0 l 383 0 l 338 -136 l 346 -150 b 532 -206 503 -157 532 -175 b 265 -282 532 -242 497 -262 l 289 -367 b 642 -203 604 -340 642 -286 b 435 -79 642 -142 603 -97 l 460 0 l 504 0 l 504 779 l 790 779 l 790 910 l 63 910 z "},"Ŧ":{"ha":853,"x_min":0,"x_max":0,"o":"m 154 388 l 349 388 l 349 0 l 504 0 l 504 388 l 700 388 l 700 476 l 504 476 l 504 779 l 790 779 l 790 910 l 63 910 l 63 779 l 349 779 l 349 476 l 154 476 z "},"Ú":{"ha":853,"x_min":0,"x_max":0,"o":"m 300 1093 l 346 1008 l 678 1172 l 619 1278 z m 596 318 b 426 121 596 179 538 121 b 258 318 317 121 258 182 l 258 910 l 101 910 l 101 319 b 422 -21 101 90 208 -21 b 751 319 642 -21 751 86 l 751 910 l 596 910 z "},"Ű":{"ha":853,"x_min":0,"x_max":0,"o":"m 188 1085 l 260 1014 l 453 1196 l 361 1281 z m 519 1085 l 592 1014 l 785 1196 l 692 1281 z m 596 318 b 426 121 596 179 538 121 b 258 318 317 121 258 182 l 258 910 l 101 910 l 101 319 b 422 -21 101 90 208 -21 b 751 319 642 -21 751 86 l 751 910 l 596 910 z "},"Ù":{"ha":853,"x_min":0,"x_max":0,"o":"m 553 1093 l 233 1278 l 175 1172 l 507 1008 z m 596 318 b 426 121 596 179 538 121 b 258 318 317 121 258 182 l 258 910 l 101 910 l 101 319 b 422 -21 101 90 208 -21 b 751 319 642 -21 751 86 l 751 910 l 596 910 z "},"Û":{"ha":853,"x_min":0,"x_max":0,"o":"m 158 1092 l 210 1015 l 426 1158 l 644 1015 l 696 1092 l 454 1278 l 399 1278 z m 596 318 b 426 121 596 179 538 121 b 258 318 317 121 258 182 l 258 910 l 101 910 l 101 319 b 422 -21 101 90 208 -21 b 751 319 642 -21 751 86 l 751 910 l 596 910 z "},"Ǔ":{"ha":853,"x_min":0,"x_max":0,"o":"m 696 1194 l 644 1271 l 426 1129 l 208 1271 l 158 1194 l 400 1008 l 454 1008 z m 596 318 b 426 121 596 179 538 121 b 258 318 317 121 258 182 l 258 910 l 101 910 l 101 319 b 422 -21 101 90 208 -21 b 751 319 642 -21 751 86 l 751 910 l 596 910 z "},"Ŭ":{"ha":853,"x_min":0,"x_max":0,"o":"m 426 1117 b 256 1268 354 1117 296 1154 l 161 1236 b 426 1008 206 1071 306 1008 b 692 1236 547 1008 647 1071 l 597 1268 b 426 1117 558 1154 499 1117 z m 596 318 b 426 121 596 179 538 121 b 258 318 317 121 258 182 l 258 910 l 101 910 l 101 319 b 422 -21 101 90 208 -21 b 751 319 642 -21 751 86 l 751 910 l 596 910 z "},"Ũ":{"ha":853,"x_min":0,"x_max":0,"o":"m 710 1236 l 618 1269 b 536 1131 571 1143 554 1131 b 440 1192 521 1131 506 1136 b 310 1264 375 1249 344 1264 b 140 1043 257 1264 211 1243 l 232 1010 b 314 1149 279 1136 296 1149 b 410 1088 329 1149 344 1143 b 539 1015 475 1031 506 1015 b 710 1236 592 1015 639 1036 z m 596 318 b 426 121 596 179 538 121 b 258 318 317 121 258 182 l 258 910 l 101 910 l 101 319 b 422 -21 101 90 208 -21 b 751 319 642 -21 751 86 l 751 910 l 596 910 z "},"Ū":{"ha":853,"x_min":0,"x_max":0,"o":"m 194 1071 l 658 1071 l 658 1185 l 194 1185 z m 596 318 b 426 121 596 179 538 121 b 258 318 317 121 258 182 l 258 910 l 101 910 l 101 319 b 422 -21 101 90 208 -21 b 751 319 642 -21 751 86 l 751 910 l 596 910 z "},"Ü":{"ha":853,"x_min":0,"x_max":0,"o":"m 247 1043 b 340 1132 304 1043 340 1074 b 249 1222 340 1190 308 1222 b 156 1132 190 1222 156 1185 b 247 1043 156 1074 189 1043 z m 603 1043 b 697 1132 661 1043 697 1074 b 604 1222 697 1190 664 1222 b 511 1132 547 1222 511 1185 b 603 1043 511 1074 546 1043 z m 596 318 b 426 121 596 179 538 121 b 258 318 317 121 258 182 l 258 910 l 101 910 l 101 319 b 422 -21 101 90 208 -21 b 751 319 642 -21 751 86 l 751 910 l 596 910 z "},"Ǘ":{"ha":853,"x_min":0,"x_max":0,"o":"m 371 1256 l 714 1389 l 669 1497 l 336 1344 z m 247 1043 b 340 1126 304 1043 340 1072 b 249 1211 340 1182 308 1211 b 157 1126 192 1211 157 1176 b 247 1043 157 1072 190 1043 z m 603 1043 b 696 1126 660 1043 696 1072 b 604 1211 696 1182 664 1211 b 513 1126 547 1211 513 1176 b 603 1043 513 1072 546 1043 z m 596 318 b 426 121 596 179 538 121 b 258 318 317 121 258 182 l 258 910 l 101 910 l 101 319 b 422 -21 101 90 208 -21 b 751 319 642 -21 751 86 l 751 910 l 596 910 z "},"Ǜ":{"ha":853,"x_min":0,"x_max":0,"o":"m 518 1344 l 185 1497 l 140 1389 l 483 1256 z m 247 1043 b 340 1126 304 1043 340 1072 b 249 1211 340 1182 308 1211 b 157 1126 192 1211 157 1176 b 247 1043 157 1072 190 1043 z m 603 1043 b 696 1126 660 1043 696 1072 b 604 1211 696 1182 664 1211 b 513 1126 547 1211 513 1176 b 603 1043 513 1072 546 1043 z m 596 318 b 426 121 596 179 538 121 b 258 318 317 121 258 182 l 258 910 l 101 910 l 101 319 b 422 -21 101 90 208 -21 b 751 319 642 -21 751 86 l 751 910 l 596 910 z "},"Ǚ":{"ha":853,"x_min":0,"x_max":0,"o":"m 690 1425 l 644 1497 l 426 1364 l 208 1497 l 163 1425 l 400 1250 l 454 1250 z m 247 1043 b 340 1126 304 1043 340 1072 b 249 1211 340 1182 308 1211 b 157 1126 192 1211 157 1176 b 247 1043 157 1072 190 1043 z m 603 1043 b 696 1126 660 1043 696 1072 b 604 1211 696 1182 664 1211 b 513 1126 547 1211 513 1176 b 603 1043 513 1072 546 1043 z m 596 318 b 426 121 596 179 538 121 b 258 318 317 121 258 182 l 258 910 l 101 910 l 101 319 b 422 -21 101 90 208 -21 b 751 319 642 -21 751 86 l 751 910 l 596 910 z "},"Ǖ":{"ha":853,"x_min":0,"x_max":0,"o":"m 194 1325 l 658 1325 l 658 1439 l 194 1439 z m 247 1043 b 340 1126 304 1043 340 1072 b 249 1211 340 1182 308 1211 b 157 1126 192 1211 157 1176 b 247 1043 157 1072 190 1043 z m 603 1043 b 696 1126 660 1043 696 1072 b 604 1211 696 1182 664 1211 b 513 1126 547 1211 513 1176 b 603 1043 513 1072 546 1043 z m 596 318 b 426 121 596 179 538 121 b 258 318 317 121 258 182 l 258 910 l 101 910 l 101 319 b 422 -21 101 90 208 -21 b 751 319 642 -21 751 86 l 751 910 l 596 910 z "},"Ů":{"ha":853,"x_min":0,"x_max":0,"o":"m 425 1008 b 651 1186 564 1008 651 1079 b 428 1361 651 1293 565 1361 b 201 1183 289 1361 201 1292 b 425 1008 201 1076 288 1008 z m 426 1097 b 311 1182 350 1097 311 1128 b 426 1272 311 1243 347 1272 b 542 1188 503 1272 542 1242 b 426 1097 542 1128 504 1097 z m 596 318 b 426 121 596 179 538 121 b 258 318 317 121 258 182 l 258 910 l 101 910 l 101 319 b 422 -21 101 90 208 -21 b 751 319 642 -21 751 86 l 751 910 l 596 910 z "},"Ủ":{"ha":853,"x_min":0,"x_max":0,"o":"m 314 1008 b 614 1167 546 1040 614 1106 b 328 1304 614 1231 561 1274 l 267 1226 l 267 1222 b 478 1151 453 1194 478 1175 b 281 1076 478 1125 446 1110 l 281 1074 z m 596 318 b 426 121 596 179 538 121 b 258 318 317 121 258 182 l 258 910 l 101 910 l 101 319 b 422 -21 101 90 208 -21 b 751 319 642 -21 751 86 l 751 910 l 596 910 z "},"Ụ":{"ha":853,"x_min":0,"x_max":0,"o":"m 596 318 b 426 121 596 179 538 121 b 258 318 317 121 258 182 l 258 910 l 101 910 l 101 319 b 422 -21 101 90 208 -21 b 751 319 642 -21 751 86 l 751 910 l 596 910 z m 426 -326 b 524 -233 486 -326 524 -294 b 428 -140 524 -174 490 -140 b 331 -233 368 -140 331 -179 b 426 -326 331 -294 367 -326 z "},"Ų":{"ha":853,"x_min":0,"x_max":0,"o":"m 282 -224 b 410 -326 282 -289 318 -322 l 542 -332 l 553 -229 l 461 -224 b 400 -172 413 -221 400 -204 b 476 -18 400 -150 404 -118 b 751 319 660 -1 751 106 l 751 910 l 596 910 l 596 318 b 426 121 596 179 538 121 b 258 318 317 121 258 182 l 258 910 l 101 910 l 101 319 b 394 -21 101 100 199 -11 b 282 -224 303 -133 282 -183 z "},"Ư":{"ha":853,"x_min":0,"x_max":0,"o":"m 596 318 b 426 121 596 179 538 121 b 258 318 317 121 258 182 l 258 910 l 101 910 l 101 319 b 422 -21 101 90 208 -21 b 751 319 642 -21 751 86 l 751 817 b 939 1067 869 817 935 883 l 797 1067 b 661 910 792 944 767 910 l 596 910 z "},"Ứ":{"ha":853,"x_min":0,"x_max":0,"o":"m 300 1093 l 346 1008 l 678 1172 l 619 1278 z m 596 318 b 426 121 596 179 538 121 b 258 318 317 121 258 182 l 258 910 l 101 910 l 101 319 b 422 -21 101 90 208 -21 b 751 319 642 -21 751 86 l 751 817 b 939 1067 869 817 935 883 l 797 1067 b 661 910 792 944 767 910 l 596 910 z "},"Ừ":{"ha":853,"x_min":0,"x_max":0,"o":"m 553 1093 l 233 1278 l 175 1172 l 507 1008 z m 596 318 b 426 121 596 179 538 121 b 258 318 317 121 258 182 l 258 910 l 101 910 l 101 319 b 422 -21 101 90 208 -21 b 751 319 642 -21 751 86 l 751 817 b 939 1067 869 817 935 883 l 797 1067 b 661 910 792 944 767 910 l 596 910 z "},"Ữ":{"ha":853,"x_min":0,"x_max":0,"o":"m 710 1236 l 618 1269 b 536 1131 571 1143 554 1131 b 440 1192 521 1131 506 1136 b 310 1264 375 1249 344 1264 b 140 1043 257 1264 211 1243 l 232 1010 b 314 1149 279 1136 296 1149 b 410 1088 329 1149 344 1143 b 539 1015 475 1031 506 1015 b 710 1236 592 1015 639 1036 z m 596 318 b 426 121 596 179 538 121 b 258 318 317 121 258 182 l 258 910 l 101 910 l 101 319 b 422 -21 101 90 208 -21 b 751 319 642 -21 751 86 l 751 817 b 939 1067 869 817 935 883 l 797 1067 b 661 910 792 944 767 910 l 596 910 z "},"Ử":{"ha":853,"x_min":0,"x_max":0,"o":"m 314 1008 b 614 1167 546 1040 614 1106 b 328 1304 614 1231 561 1274 l 267 1226 l 267 1222 b 478 1151 453 1194 478 1175 b 281 1076 478 1125 446 1110 l 281 1074 z m 596 318 b 426 121 596 179 538 121 b 258 318 317 121 258 182 l 258 910 l 101 910 l 101 319 b 422 -21 101 90 208 -21 b 751 319 642 -21 751 86 l 751 817 b 939 1067 869 817 935 883 l 797 1067 b 661 910 792 944 767 910 l 596 910 z "},"Ự":{"ha":853,"x_min":0,"x_max":0,"o":"m 596 318 b 426 121 596 179 538 121 b 258 318 317 121 258 182 l 258 910 l 101 910 l 101 319 b 422 -21 101 90 208 -21 b 751 319 642 -21 751 86 l 751 817 b 939 1067 869 817 935 883 l 797 1067 b 661 910 792 944 767 910 l 596 910 z m 426 -326 b 524 -233 486 -326 524 -294 b 428 -140 524 -174 490 -140 b 331 -233 368 -140 331 -179 b 426 -326 331 -294 367 -326 z "},"Ṿ":{"ha":853,"x_min":0,"x_max":0,"o":"m 49 910 l 332 0 l 522 0 l 804 910 l 650 910 l 431 178 l 211 910 z m 429 -319 b 526 -226 489 -319 526 -287 b 431 -133 526 -167 493 -133 b 333 -226 371 -133 333 -172 b 429 -319 333 -287 369 -319 z "},"Ẃ":{"ha":853,"x_min":0,"x_max":0,"o":"m 300 1086 l 346 1001 l 678 1165 l 619 1271 z m 678 0 l 794 910 l 649 910 l 576 239 l 444 738 l 411 738 l 278 238 l 207 910 l 58 910 l 175 0 l 315 0 l 424 458 l 533 0 z "},"Ẁ":{"ha":853,"x_min":0,"x_max":0,"o":"m 553 1086 l 233 1271 l 175 1165 l 507 1001 z m 678 0 l 794 910 l 649 910 l 576 239 l 444 738 l 411 738 l 278 238 l 207 910 l 58 910 l 175 0 l 315 0 l 424 458 l 533 0 z "},"Ŵ":{"ha":853,"x_min":0,"x_max":0,"o":"m 158 1092 l 210 1015 l 426 1158 l 644 1015 l 696 1092 l 454 1278 l 399 1278 z m 678 0 l 794 910 l 649 910 l 576 239 l 444 738 l 411 738 l 278 238 l 207 910 l 58 910 l 175 0 l 315 0 l 424 458 l 533 0 z "},"Ẅ":{"ha":853,"x_min":0,"x_max":0,"o":"m 247 1043 b 340 1132 304 1043 340 1074 b 249 1222 340 1190 308 1222 b 156 1132 190 1222 156 1185 b 247 1043 156 1074 189 1043 z m 603 1043 b 697 1132 661 1043 697 1074 b 604 1222 697 1190 664 1222 b 511 1132 547 1222 511 1185 b 603 1043 511 1074 546 1043 z m 678 0 l 794 910 l 649 910 l 576 239 l 444 738 l 411 738 l 278 238 l 207 910 l 58 910 l 175 0 l 315 0 l 424 458 l 533 0 z "},"Ẍ":{"ha":853,"x_min":0,"x_max":0,"o":"m 249 1043 b 342 1132 306 1043 342 1074 b 250 1222 342 1190 310 1222 b 157 1132 192 1222 157 1185 b 249 1043 157 1074 190 1043 z m 604 1043 b 699 1132 663 1043 699 1074 b 606 1222 699 1190 665 1222 b 513 1132 549 1222 513 1185 b 604 1043 513 1074 547 1043 z m 49 0 l 218 0 l 422 353 l 624 0 l 804 0 l 511 471 l 781 910 l 608 910 l 426 586 l 246 910 l 68 910 l 338 465 z "},"Ý":{"ha":853,"x_min":0,"x_max":0,"o":"m 301 1093 l 347 1008 l 679 1172 l 621 1278 z m 813 910 l 640 910 l 429 533 l 218 910 l 40 910 l 349 385 l 349 0 l 504 0 l 504 389 z "},"Ỳ":{"ha":853,"x_min":0,"x_max":0,"o":"m 554 1093 l 235 1278 l 176 1172 l 508 1008 z m 813 910 l 640 910 l 429 533 l 218 910 l 40 910 l 349 385 l 349 0 l 504 0 l 504 389 z "},"Ŷ":{"ha":853,"x_min":0,"x_max":0,"o":"m 160 1092 l 211 1015 l 428 1158 l 646 1015 l 697 1092 l 456 1278 l 400 1278 z m 813 910 l 640 910 l 429 533 l 218 910 l 40 910 l 349 385 l 349 0 l 504 0 l 504 389 z "},"Ỹ":{"ha":853,"x_min":0,"x_max":0,"o":"m 711 1236 l 619 1269 b 538 1131 572 1143 556 1131 b 442 1192 522 1131 507 1136 b 311 1264 376 1249 346 1264 b 142 1043 258 1264 213 1243 l 233 1010 b 315 1149 281 1136 297 1149 b 411 1088 331 1149 346 1143 b 540 1015 476 1031 507 1015 b 711 1236 593 1015 640 1036 z m 813 910 l 640 910 l 429 533 l 218 910 l 40 910 l 349 385 l 349 0 l 504 0 l 504 389 z "},"Ȳ":{"ha":853,"x_min":0,"x_max":0,"o":"m 196 1071 l 660 1071 l 660 1185 l 196 1185 z m 813 910 l 640 910 l 429 533 l 218 910 l 40 910 l 349 385 l 349 0 l 504 0 l 504 389 z "},"Ÿ":{"ha":853,"x_min":0,"x_max":0,"o":"m 249 1043 b 342 1132 306 1043 342 1074 b 250 1222 342 1190 310 1222 b 157 1132 192 1222 157 1185 b 249 1043 157 1074 190 1043 z m 604 1043 b 699 1132 663 1043 699 1074 b 606 1222 699 1190 665 1222 b 513 1132 549 1222 513 1185 b 604 1043 513 1074 547 1043 z m 813 910 l 640 910 l 429 533 l 218 910 l 40 910 l 349 385 l 349 0 l 504 0 l 504 389 z "},"Ẏ":{"ha":853,"x_min":0,"x_max":0,"o":"m 428 1036 b 526 1131 489 1036 526 1069 b 429 1225 526 1192 493 1225 b 331 1131 368 1225 331 1186 b 428 1036 331 1069 367 1036 z m 813 910 l 640 910 l 429 533 l 218 910 l 40 910 l 349 385 l 349 0 l 504 0 l 504 389 z "},"Ỷ":{"ha":853,"x_min":0,"x_max":0,"o":"m 315 1008 b 615 1167 547 1040 615 1106 b 329 1304 615 1231 563 1274 l 268 1226 l 268 1222 b 479 1151 454 1194 479 1175 b 282 1076 479 1125 447 1110 l 282 1074 z m 813 910 l 640 910 l 429 533 l 218 910 l 40 910 l 349 385 l 349 0 l 504 0 l 504 389 z "},"Ỵ":{"ha":853,"x_min":0,"x_max":0,"o":"m 813 910 l 640 910 l 429 533 l 218 910 l 40 910 l 349 385 l 349 0 l 504 0 l 504 389 z m 429 -319 b 526 -226 489 -319 526 -287 b 431 -133 526 -167 493 -133 b 333 -226 371 -133 333 -172 b 429 -319 333 -287 369 -319 z "},"Ź":{"ha":853,"x_min":0,"x_max":0,"o":"m 308 1100 l 354 1015 l 686 1179 l 628 1285 z m 85 0 l 769 0 l 769 135 l 286 135 l 286 140 l 751 801 l 751 910 l 103 910 l 103 774 l 543 774 l 543 767 l 85 107 z "},"Ẑ":{"ha":853,"x_min":0,"x_max":0,"o":"m 167 1092 l 218 1015 l 435 1158 l 653 1015 l 704 1092 l 463 1278 l 407 1278 z m 85 0 l 769 0 l 769 135 l 286 135 l 286 140 l 751 801 l 751 910 l 103 910 l 103 774 l 543 774 l 543 767 l 85 107 z "},"Ž":{"ha":853,"x_min":0,"x_max":0,"o":"m 704 1201 l 653 1278 l 435 1136 l 217 1278 l 167 1201 l 408 1015 l 463 1015 z m 85 0 l 769 0 l 769 135 l 286 135 l 286 140 l 751 801 l 751 910 l 103 910 l 103 774 l 543 774 l 543 767 l 85 107 z "},"Ż":{"ha":853,"x_min":0,"x_max":0,"o":"m 435 1043 b 533 1138 496 1043 533 1076 b 436 1232 533 1199 500 1232 b 338 1138 375 1232 338 1193 b 435 1043 338 1076 374 1043 z m 85 0 l 769 0 l 769 135 l 286 135 l 286 140 l 751 801 l 751 910 l 103 910 l 103 774 l 543 774 l 543 767 l 85 107 z "},"Ẓ":{"ha":853,"x_min":0,"x_max":0,"o":"m 85 0 l 769 0 l 769 135 l 286 135 l 286 140 l 751 801 l 751 910 l 103 910 l 103 774 l 543 774 l 543 767 l 85 107 z m 435 -319 b 532 -226 494 -319 532 -287 b 436 -133 532 -167 499 -133 b 339 -226 376 -133 339 -172 b 435 -319 339 -287 375 -319 z "},"Ẕ":{"ha":853,"x_min":0,"x_max":0,"o":"m 85 0 l 769 0 l 769 135 l 286 135 l 286 140 l 751 801 l 751 910 l 103 910 l 103 774 l 543 774 l 543 767 l 85 107 z m 201 -272 l 668 -272 l 668 -161 l 201 -161 z "},"Ð":{"ha":853,"x_min":0,"x_max":0,"o":"m 36 414 l 147 414 l 147 0 l 239 0 b 785 465 610 0 785 183 b 276 910 785 744 608 910 l 147 910 l 147 503 l 36 503 z m 449 414 l 449 503 l 300 503 l 300 783 b 629 463 504 779 629 675 b 300 128 629 243 513 139 l 300 414 z "},"Þ":{"ha":853,"x_min":0,"x_max":0,"o":"m 122 910 l 122 0 l 279 0 l 279 192 l 461 192 b 794 457 664 192 794 292 b 474 717 794 615 679 717 l 279 717 l 279 910 z m 479 586 b 636 454 583 586 636 539 b 471 319 636 371 579 319 l 279 319 l 279 586 z "},"Ə":{"ha":853,"x_min":0,"x_max":0,"o":"m 774 456 b 360 924 774 768 657 924 b 194 910 308 924 258 919 l 207 781 b 353 793 261 790 310 793 b 613 529 517 793 599 735 l 88 529 b 79 432 82 488 79 456 b 415 -21 79 129 185 -21 b 774 456 644 -21 774 129 z m 414 110 b 236 407 314 110 242 171 l 614 407 b 414 110 607 171 536 110 z "},"á":{"ha":853,"x_min":0,"x_max":0,"o":"m 286 850 l 338 767 l 656 949 l 592 1051 z m 697 182 l 697 450 b 401 667 697 601 624 667 b 142 644 344 667 254 661 l 157 521 b 394 543 261 536 346 543 b 549 449 521 543 549 517 l 549 408 l 313 383 b 79 178 135 363 79 303 b 279 -12 79 54 161 -12 b 542 82 379 -12 465 21 l 556 82 b 711 -1 575 28 621 3 l 799 -7 l 811 110 l 749 115 b 697 182 707 118 697 132 z m 319 104 b 231 188 260 104 231 136 b 349 286 231 240 251 274 l 549 313 l 549 200 b 319 104 443 125 379 104 z "},"à":{"ha":853,"x_min":0,"x_max":0,"o":"m 550 849 l 244 1051 l 181 949 l 499 765 z m 697 182 l 697 450 b 401 667 697 601 624 667 b 142 644 344 667 254 661 l 157 521 b 394 543 261 536 346 543 b 549 449 521 543 549 517 l 549 408 l 313 383 b 79 178 135 363 79 303 b 279 -12 79 54 161 -12 b 542 82 379 -12 465 21 l 556 82 b 711 -1 575 28 621 3 l 799 -7 l 811 110 l 749 115 b 697 182 707 118 697 132 z m 319 104 b 231 188 260 104 231 136 b 349 286 231 240 251 274 l 549 313 l 549 200 b 319 104 443 125 379 104 z "},"â":{"ha":853,"x_min":0,"x_max":0,"o":"m 160 824 l 215 760 l 418 925 l 621 760 l 676 824 l 454 1044 l 382 1044 z m 697 182 l 697 450 b 401 667 697 601 624 667 b 142 644 344 667 254 661 l 157 521 b 394 543 261 536 346 543 b 549 449 521 543 549 517 l 549 408 l 313 383 b 79 178 135 363 79 303 b 279 -12 79 54 161 -12 b 542 82 379 -12 465 21 l 556 82 b 711 -1 575 28 621 3 l 799 -7 l 811 110 l 749 115 b 697 182 707 118 697 132 z m 319 104 b 231 188 260 104 231 136 b 349 286 231 240 251 274 l 549 313 l 549 200 b 319 104 443 125 379 104 z "},"ậ":{"ha":853,"x_min":0,"x_max":0,"o":"m 160 824 l 215 760 l 418 925 l 621 760 l 676 824 l 454 1044 l 382 1044 z m 697 182 l 697 450 b 401 667 697 601 624 667 b 142 644 344 667 254 661 l 157 521 b 394 543 261 536 346 543 b 549 449 521 543 549 517 l 549 408 l 313 383 b 79 178 135 363 79 303 b 279 -12 79 54 161 -12 b 542 82 379 -12 465 21 l 556 82 b 711 -1 575 28 621 3 l 799 -7 l 811 110 l 749 115 b 697 182 707 118 697 132 z m 319 104 b 231 188 260 104 231 136 b 349 286 231 240 251 274 l 549 313 l 549 200 b 319 104 443 125 379 104 z m 411 -319 b 508 -226 471 -319 508 -287 b 413 -133 508 -167 475 -133 b 315 -226 353 -133 315 -172 b 411 -319 315 -287 351 -319 z "},"ấ":{"ha":853,"x_min":0,"x_max":0,"o":"m 544 1079 l 588 1001 l 821 1118 l 768 1215 z m 160 824 l 215 760 l 418 904 l 621 760 l 676 824 l 454 1021 l 382 1021 z m 697 182 l 697 450 b 401 667 697 601 624 667 b 142 644 344 667 254 661 l 157 521 b 394 543 261 536 346 543 b 549 449 521 543 549 517 l 549 408 l 313 383 b 79 178 135 363 79 303 b 279 -12 79 54 161 -12 b 542 82 379 -12 465 21 l 556 82 b 711 -1 575 28 621 3 l 799 -7 l 811 110 l 749 115 b 697 182 707 118 697 132 z m 319 104 b 231 188 260 104 231 136 b 349 286 231 240 251 274 l 549 313 l 549 200 b 319 104 443 125 379 104 z "},"ầ":{"ha":853,"x_min":0,"x_max":0,"o":"m 738 1061 l 526 1219 l 463 1129 l 685 989 z m 160 824 l 215 760 l 418 904 l 621 760 l 676 824 l 454 1021 l 382 1021 z m 697 182 l 697 450 b 401 667 697 601 624 667 b 142 644 344 667 254 661 l 157 521 b 394 543 261 536 346 543 b 549 449 521 543 549 517 l 549 408 l 313 383 b 79 178 135 363 79 303 b 279 -12 79 54 161 -12 b 542 82 379 -12 465 21 l 556 82 b 711 -1 575 28 621 3 l 799 -7 l 811 110 l 749 115 b 697 182 707 118 697 132 z m 319 104 b 231 188 260 104 231 136 b 349 286 231 240 251 274 l 549 313 l 549 200 b 319 104 443 125 379 104 z "},"ẩ":{"ha":853,"x_min":0,"x_max":0,"o":"m 569 1001 b 835 1156 774 1033 835 1096 b 560 1282 835 1215 788 1247 l 497 1208 l 497 1206 b 699 1140 675 1179 699 1163 b 536 1071 699 1117 671 1100 l 536 1068 z m 160 824 l 215 760 l 418 904 l 621 760 l 676 824 l 454 1021 l 382 1021 z m 697 182 l 697 450 b 401 667 697 601 624 667 b 142 644 344 667 254 661 l 157 521 b 394 543 261 536 346 543 b 549 449 521 543 549 517 l 549 408 l 313 383 b 79 178 135 363 79 303 b 279 -12 79 54 161 -12 b 542 82 379 -12 465 21 l 556 82 b 711 -1 575 28 621 3 l 799 -7 l 811 110 l 749 115 b 697 182 707 118 697 132 z m 319 104 b 231 188 260 104 231 136 b 349 286 231 240 251 274 l 549 313 l 549 200 b 319 104 443 125 379 104 z "},"ẫ":{"ha":853,"x_min":0,"x_max":0,"o":"m 443 1221 b 322 1283 376 1271 354 1283 b 165 1081 265 1283 224 1242 l 253 1053 b 333 1175 297 1167 315 1175 b 419 1124 349 1175 358 1168 b 540 1060 486 1072 508 1060 b 697 1263 597 1060 639 1101 l 610 1292 b 529 1168 565 1176 547 1168 b 443 1221 514 1168 503 1176 z m 160 824 l 215 760 l 418 904 l 621 760 l 676 824 l 454 1021 l 382 1021 z m 697 182 l 697 450 b 401 667 697 601 624 667 b 142 644 344 667 254 661 l 157 521 b 394 543 261 536 346 543 b 549 449 521 543 549 517 l 549 408 l 313 383 b 79 178 135 363 79 303 b 279 -12 79 54 161 -12 b 542 82 379 -12 465 21 l 556 82 b 711 -1 575 28 621 3 l 799 -7 l 811 110 l 749 115 b 697 182 707 118 697 132 z m 319 104 b 231 188 260 104 231 136 b 349 286 231 240 251 274 l 549 313 l 549 200 b 319 104 443 125 379 104 z "},"ǎ":{"ha":853,"x_min":0,"x_max":0,"o":"m 676 986 l 621 1051 l 418 885 l 215 1051 l 160 986 l 382 767 l 454 767 z m 697 182 l 697 450 b 401 667 697 601 624 667 b 142 644 344 667 254 661 l 157 521 b 394 543 261 536 346 543 b 549 449 521 543 549 517 l 549 408 l 313 383 b 79 178 135 363 79 303 b 279 -12 79 54 161 -12 b 542 82 379 -12 465 21 l 556 82 b 711 -1 575 28 621 3 l 799 -7 l 811 110 l 749 115 b 697 182 707 118 697 132 z m 319 104 b 231 188 260 104 231 136 b 349 286 231 240 251 274 l 549 313 l 549 200 b 319 104 443 125 379 104 z "},"ă":{"ha":853,"x_min":0,"x_max":0,"o":"m 418 874 b 247 1042 346 874 290 918 l 153 1010 b 418 767 200 833 297 767 b 683 1010 539 767 636 833 l 589 1042 b 418 874 546 918 490 874 z m 697 182 l 697 450 b 401 667 697 601 624 667 b 142 644 344 667 254 661 l 157 521 b 394 543 261 536 346 543 b 549 449 521 543 549 517 l 549 408 l 313 383 b 79 178 135 363 79 303 b 279 -12 79 54 161 -12 b 542 82 379 -12 465 21 l 556 82 b 711 -1 575 28 621 3 l 799 -7 l 811 110 l 749 115 b 697 182 707 118 697 132 z m 319 104 b 231 188 260 104 231 136 b 349 286 231 240 251 274 l 549 313 l 549 200 b 319 104 443 125 379 104 z "},"ặ":{"ha":853,"x_min":0,"x_max":0,"o":"m 418 874 b 247 1042 346 874 290 918 l 153 1010 b 418 767 200 833 297 767 b 683 1010 539 767 636 833 l 589 1042 b 418 874 546 918 490 874 z m 697 182 l 697 450 b 401 667 697 601 624 667 b 142 644 344 667 254 661 l 157 521 b 394 543 261 536 346 543 b 549 449 521 543 549 517 l 549 408 l 313 383 b 79 178 135 363 79 303 b 279 -12 79 54 161 -12 b 542 82 379 -12 465 21 l 556 82 b 711 -1 575 28 621 3 l 799 -7 l 811 110 l 749 115 b 697 182 707 118 697 132 z m 319 104 b 231 188 260 104 231 136 b 349 286 231 240 251 274 l 549 313 l 549 200 b 319 104 443 125 379 104 z m 411 -319 b 508 -226 471 -319 508 -287 b 413 -133 508 -167 475 -133 b 315 -226 353 -133 315 -172 b 411 -319 315 -287 351 -319 z "},"ắ":{"ha":853,"x_min":0,"x_max":0,"o":"m 322 1118 l 364 1033 l 699 1181 l 649 1286 z m 418 874 b 247 1028 346 874 288 913 l 153 996 b 418 767 197 829 297 767 b 683 996 539 767 639 829 l 589 1028 b 418 874 549 914 490 874 z m 697 182 l 697 450 b 401 667 697 601 624 667 b 142 644 344 667 254 661 l 157 521 b 394 543 261 536 346 543 b 549 449 521 543 549 517 l 549 408 l 313 383 b 79 178 135 363 79 303 b 279 -12 79 54 161 -12 b 542 82 379 -12 465 21 l 556 82 b 711 -1 575 28 621 3 l 799 -7 l 811 110 l 749 115 b 697 182 707 118 697 132 z m 319 104 b 231 188 260 104 231 136 b 349 286 231 240 251 274 l 549 313 l 549 200 b 319 104 443 125 379 104 z "},"ằ":{"ha":853,"x_min":0,"x_max":0,"o":"m 514 1118 l 188 1286 l 138 1181 l 471 1033 z m 418 874 b 247 1028 346 874 288 913 l 153 996 b 418 767 197 829 297 767 b 683 996 539 767 639 829 l 589 1028 b 418 874 549 914 490 874 z m 697 182 l 697 450 b 401 667 697 601 624 667 b 142 644 344 667 254 661 l 157 521 b 394 543 261 536 346 543 b 549 449 521 543 549 517 l 549 408 l 313 383 b 79 178 135 363 79 303 b 279 -12 79 54 161 -12 b 542 82 379 -12 465 21 l 556 82 b 711 -1 575 28 621 3 l 799 -7 l 811 110 l 749 115 b 697 182 707 118 697 132 z m 319 104 b 231 188 260 104 231 136 b 349 286 231 240 251 274 l 549 313 l 549 200 b 319 104 443 125 379 104 z "},"ẳ":{"ha":853,"x_min":0,"x_max":0,"o":"m 351 1031 b 617 1185 556 1063 617 1125 b 340 1311 617 1244 569 1276 l 279 1236 l 279 1233 b 479 1169 457 1208 479 1192 b 318 1099 479 1144 453 1129 l 318 1096 z m 418 874 b 247 1028 346 874 288 913 l 153 996 b 418 767 197 829 297 767 b 683 996 539 767 639 829 l 589 1028 b 418 874 549 914 490 874 z m 697 182 l 697 450 b 401 667 697 601 624 667 b 142 644 344 667 254 661 l 157 521 b 394 543 261 536 346 543 b 549 449 521 543 549 517 l 549 408 l 313 383 b 79 178 135 363 79 303 b 279 -12 79 54 161 -12 b 542 82 379 -12 465 21 l 556 82 b 711 -1 575 28 621 3 l 799 -7 l 811 110 l 749 115 b 697 182 707 118 697 132 z m 319 104 b 231 188 260 104 231 136 b 349 286 231 240 251 274 l 549 313 l 549 200 b 319 104 443 125 379 104 z "},"ẵ":{"ha":853,"x_min":0,"x_max":0,"o":"m 436 1235 b 315 1297 369 1285 347 1297 b 161 1101 258 1297 217 1257 l 249 1074 b 325 1189 290 1181 308 1189 b 411 1138 340 1189 351 1181 b 532 1074 478 1086 500 1074 b 689 1276 590 1074 632 1115 l 601 1306 b 522 1182 557 1190 540 1182 b 436 1235 507 1182 496 1190 z m 418 874 b 249 1025 346 874 288 913 l 154 993 b 418 767 197 828 297 767 b 683 996 539 767 639 829 l 589 1028 b 418 874 549 914 490 874 z m 697 182 l 697 450 b 401 667 697 601 624 667 b 142 644 344 667 254 661 l 157 521 b 394 543 261 536 346 543 b 549 449 521 543 549 517 l 549 408 l 313 383 b 79 178 135 363 79 303 b 279 -12 79 54 161 -12 b 542 82 379 -12 465 21 l 556 82 b 711 -1 575 28 621 3 l 799 -7 l 811 110 l 749 115 b 697 182 707 118 697 132 z m 319 104 b 231 188 260 104 231 136 b 349 286 231 240 251 274 l 549 313 l 549 200 b 319 104 443 125 379 104 z "},"ã":{"ha":853,"x_min":0,"x_max":0,"o":"m 390 854 b 529 767 465 781 497 767 b 701 1010 583 767 628 790 l 610 1043 b 528 885 560 901 546 885 b 443 950 513 885 503 893 b 304 1039 368 1024 338 1039 b 132 794 250 1039 206 1014 l 226 761 b 306 919 275 903 288 919 b 390 854 319 919 331 913 z m 697 182 l 697 450 b 401 667 697 601 624 667 b 142 644 344 667 254 661 l 157 521 b 394 543 261 536 346 543 b 549 449 521 543 549 517 l 549 408 l 313 383 b 79 178 135 363 79 303 b 279 -12 79 54 161 -12 b 542 82 379 -12 465 21 l 556 82 b 711 -1 575 28 621 3 l 799 -7 l 811 110 l 749 115 b 697 182 707 118 697 132 z m 319 104 b 231 188 260 104 231 136 b 349 286 231 240 251 274 l 549 313 l 549 200 b 319 104 443 125 379 104 z "},"ā":{"ha":853,"x_min":0,"x_max":0,"o":"m 185 822 l 651 822 l 651 932 l 185 932 z m 697 182 l 697 450 b 401 667 697 601 624 667 b 142 644 344 667 254 661 l 157 521 b 394 543 261 536 346 543 b 549 449 521 543 549 517 l 549 408 l 313 383 b 79 178 135 363 79 303 b 279 -12 79 54 161 -12 b 542 82 379 -12 465 21 l 556 82 b 711 -1 575 28 621 3 l 799 -7 l 811 110 l 749 115 b 697 182 707 118 697 132 z m 319 104 b 231 188 260 104 231 136 b 349 286 231 240 251 274 l 549 313 l 549 200 b 319 104 443 125 379 104 z "},"ä":{"ha":853,"x_min":0,"x_max":0,"o":"m 256 794 b 347 881 313 794 347 824 b 257 969 347 938 317 969 b 165 881 200 969 165 933 b 256 794 165 824 199 794 z m 578 794 b 671 881 635 794 671 824 b 579 969 671 938 639 969 b 489 881 524 969 489 933 b 578 794 489 824 521 794 z m 697 182 l 697 450 b 401 667 697 601 624 667 b 142 644 344 667 254 661 l 157 521 b 394 543 261 536 346 543 b 549 449 521 543 549 517 l 549 408 l 313 383 b 79 178 135 363 79 303 b 279 -12 79 54 161 -12 b 542 82 379 -12 465 21 l 556 82 b 711 -1 575 28 621 3 l 799 -7 l 811 110 l 749 115 b 697 182 707 118 697 132 z m 319 104 b 231 188 260 104 231 136 b 349 286 231 240 251 274 l 549 313 l 549 200 b 319 104 443 125 379 104 z "},"ȧ":{"ha":853,"x_min":0,"x_max":0,"o":"m 418 794 b 515 886 478 794 515 826 b 419 979 515 947 482 979 b 322 886 360 979 322 942 b 418 794 322 826 358 794 z m 697 182 l 697 450 b 401 667 697 601 624 667 b 142 644 344 667 254 661 l 157 521 b 394 543 261 536 346 543 b 549 449 521 543 549 517 l 549 408 l 313 383 b 79 178 135 363 79 303 b 279 -12 79 54 161 -12 b 542 82 379 -12 465 21 l 556 82 b 711 -1 575 28 621 3 l 799 -7 l 811 110 l 749 115 b 697 182 707 118 697 132 z m 319 104 b 231 188 260 104 231 136 b 349 286 231 240 251 274 l 549 313 l 549 200 b 319 104 443 125 379 104 z "},"å":{"ha":853,"x_min":0,"x_max":0,"o":"m 417 767 b 625 949 538 767 625 833 b 419 1128 625 1060 540 1128 b 211 947 297 1128 211 1058 b 417 767 211 832 297 767 z m 418 857 b 310 946 349 857 310 883 b 417 1038 310 1010 350 1038 b 525 950 488 1038 525 1010 b 418 857 525 885 486 857 z m 697 182 l 697 450 b 401 667 697 601 624 667 b 142 644 344 667 254 661 l 157 521 b 394 543 261 536 346 543 b 549 449 521 543 549 517 l 549 408 l 313 383 b 79 178 135 363 79 303 b 279 -12 79 54 161 -12 b 542 82 379 -12 465 21 l 556 82 b 711 -1 575 28 621 3 l 799 -7 l 811 110 l 749 115 b 697 182 707 118 697 132 z m 319 104 b 231 188 260 104 231 136 b 349 286 231 240 251 274 l 549 313 l 549 200 b 319 104 443 125 379 104 z "},"ả":{"ha":853,"x_min":0,"x_max":0,"o":"m 288 767 b 578 935 511 794 578 868 b 303 1081 578 1003 528 1053 l 240 1003 l 240 999 b 442 918 418 974 442 947 b 254 835 442 890 411 863 l 254 832 z m 697 182 l 697 450 b 401 667 697 601 624 667 b 142 644 344 667 254 661 l 157 521 b 394 543 261 536 346 543 b 549 449 521 543 549 517 l 549 408 l 313 383 b 79 178 135 363 79 303 b 279 -12 79 54 161 -12 b 542 82 379 -12 465 21 l 556 82 b 711 -1 575 28 621 3 l 799 -7 l 811 110 l 749 115 b 697 182 707 118 697 132 z m 319 104 b 231 188 260 104 231 136 b 349 286 231 240 251 274 l 549 313 l 549 200 b 319 104 443 125 379 104 z "},"ạ":{"ha":853,"x_min":0,"x_max":0,"o":"m 697 182 l 697 450 b 401 667 697 601 624 667 b 142 644 344 667 254 661 l 157 521 b 394 543 261 536 346 543 b 549 449 521 543 549 517 l 549 408 l 313 383 b 79 178 135 363 79 303 b 279 -12 79 54 161 -12 b 542 82 379 -12 465 21 l 556 82 b 711 -1 575 28 621 3 l 799 -7 l 811 110 l 749 115 b 697 182 707 118 697 132 z m 319 104 b 231 188 260 104 231 136 b 349 286 231 240 251 274 l 549 313 l 549 200 b 319 104 443 125 379 104 z m 411 -319 b 508 -226 471 -319 508 -287 b 413 -133 508 -167 475 -133 b 315 -226 353 -133 315 -172 b 411 -319 315 -287 351 -319 z "},"ą":{"ha":853,"x_min":0,"x_max":0,"o":"m 489 -217 b 618 -319 489 -282 526 -315 l 750 -325 l 761 -222 l 668 -217 b 608 -165 621 -214 608 -197 b 692 0 608 -143 614 -110 b 799 -7 722 -3 751 -6 l 811 110 l 749 115 b 697 182 707 118 697 132 l 697 450 b 401 667 697 601 624 667 b 142 644 344 667 254 661 l 157 521 b 394 543 261 536 346 543 b 549 449 521 543 549 517 l 549 408 l 313 383 b 79 178 135 363 79 303 b 279 -12 79 54 161 -12 b 542 82 379 -12 465 21 l 556 82 b 624 14 567 49 589 26 b 489 -217 514 -118 489 -174 z m 319 104 b 231 188 260 104 231 136 b 349 286 231 240 251 274 l 549 313 l 549 200 b 319 104 443 125 379 104 z "},"æ":{"ha":853,"x_min":0,"x_max":0,"o":"m 718 103 l 657 107 b 486 274 542 113 496 157 l 819 274 b 825 340 822 290 825 314 b 606 669 825 544 738 669 b 449 582 544 669 490 636 b 279 669 421 642 367 669 b 90 651 228 669 161 664 l 104 532 b 256 550 178 546 222 550 b 344 449 325 550 344 525 l 344 406 l 231 383 b 29 178 79 354 29 293 b 185 -12 29 54 90 -12 b 374 82 253 -12 308 19 l 403 82 b 622 -11 446 22 517 -8 l 713 -14 z m 596 554 b 685 383 646 554 679 494 l 488 383 b 596 554 499 494 543 554 z m 238 104 b 178 188 199 104 178 138 b 271 289 178 242 196 269 l 344 308 b 363 168 344 256 350 208 b 238 104 300 121 274 104 z "},"ḇ":{"ha":853,"x_min":0,"x_max":0,"o":"m 274 986 l 118 986 l 118 -1 l 146 -1 l 224 36 b 418 -11 286 3 351 -11 b 781 340 643 -11 781 144 b 493 669 781 546 651 669 b 274 572 413 669 344 642 z m 440 540 b 619 331 542 540 619 461 b 403 118 619 219 544 118 b 274 158 361 118 321 129 l 274 460 b 440 540 342 522 389 540 z m 203 -272 l 669 -272 l 669 -161 l 203 -161 z "},"ć":{"ha":853,"x_min":0,"x_max":0,"o":"m 311 850 l 363 767 l 681 949 l 617 1051 z m 461 542 b 690 457 521 542 576 532 l 763 569 b 456 672 629 657 544 672 b 88 329 246 672 88 521 b 438 -19 88 114 231 -19 b 767 83 542 -19 631 3 l 699 190 b 450 111 582 126 517 111 b 250 329 336 111 250 196 b 461 542 250 453 336 542 z "},"ĉ":{"ha":853,"x_min":0,"x_max":0,"o":"m 185 824 l 240 760 l 443 925 l 646 760 l 701 824 l 479 1044 l 407 1044 z m 461 542 b 690 457 521 542 576 532 l 763 569 b 456 672 629 657 544 672 b 88 329 246 672 88 521 b 438 -19 88 114 231 -19 b 767 83 542 -19 631 3 l 699 190 b 450 111 582 126 517 111 b 250 329 336 111 250 196 b 461 542 250 453 336 542 z "},"č":{"ha":853,"x_min":0,"x_max":0,"o":"m 701 986 l 646 1051 l 443 885 l 240 1051 l 185 986 l 407 767 l 479 767 z m 461 542 b 690 457 521 542 576 532 l 763 569 b 456 672 629 657 544 672 b 88 329 246 672 88 521 b 438 -19 88 114 231 -19 b 767 83 542 -19 631 3 l 699 190 b 450 111 582 126 517 111 b 250 329 336 111 250 196 b 461 542 250 453 336 542 z "},"ċ":{"ha":853,"x_min":0,"x_max":0,"o":"m 443 794 b 540 886 503 794 540 826 b 444 979 540 947 507 979 b 347 886 385 979 347 942 b 443 794 347 826 383 794 z m 461 542 b 690 457 521 542 576 532 l 763 569 b 456 672 629 657 544 672 b 88 329 246 672 88 521 b 438 -19 88 114 231 -19 b 767 83 542 -19 631 3 l 699 190 b 450 111 582 126 517 111 b 250 329 336 111 250 196 b 461 542 250 453 336 542 z "},"ç":{"ha":853,"x_min":0,"x_max":0,"o":"m 461 542 b 690 457 521 542 576 532 l 763 569 b 456 672 629 657 544 672 b 88 329 246 672 88 521 b 379 -15 88 135 204 7 l 335 -144 l 343 -158 b 528 -214 499 -164 528 -183 b 263 -290 528 -250 494 -269 l 286 -375 b 639 -211 601 -349 639 -294 b 432 -87 639 -149 600 -106 l 453 -19 b 767 83 551 -17 638 7 l 699 190 b 450 111 582 126 517 111 b 250 329 336 111 250 196 b 461 542 250 453 336 542 z "},"ď":{"ha":853,"x_min":0,"x_max":0,"o":"m 897 783 l 1000 783 l 1038 1094 l 897 1094 z m 360 -14 b 589 93 444 -14 515 15 l 601 0 l 735 0 l 735 986 l 579 986 l 579 610 b 406 663 522 650 468 663 b 72 315 213 663 72 518 b 360 -14 72 108 201 -14 z m 233 324 b 435 536 233 447 308 536 b 579 481 475 536 521 525 l 579 196 b 413 115 511 133 464 115 b 233 324 311 115 233 193 z "},"ḓ":{"ha":853,"x_min":0,"x_max":0,"o":"m 360 -14 b 589 93 444 -14 515 15 l 601 0 l 735 0 l 735 986 l 579 986 l 579 610 b 406 663 522 650 468 663 b 72 315 213 663 72 518 b 360 -14 72 108 201 -14 z m 233 324 b 435 536 233 447 308 536 b 579 481 475 536 521 525 l 579 196 b 413 115 511 133 464 115 b 233 324 311 115 233 193 z m 189 -326 l 244 -390 l 447 -225 l 650 -390 l 706 -326 l 483 -106 l 411 -106 z "},"ḏ":{"ha":853,"x_min":0,"x_max":0,"o":"m 360 -14 b 589 93 444 -14 515 15 l 601 0 l 735 0 l 735 986 l 579 986 l 579 610 b 406 663 522 650 468 663 b 72 315 213 663 72 518 b 360 -14 72 108 201 -14 z m 233 324 b 435 536 233 447 308 536 b 579 481 475 536 521 525 l 579 196 b 413 115 511 133 464 115 b 233 324 311 115 233 193 z m 214 -272 l 681 -272 l 681 -161 l 214 -161 z "},"ḍ":{"ha":853,"x_min":0,"x_max":0,"o":"m 360 -14 b 589 93 444 -14 515 15 l 601 0 l 735 0 l 735 986 l 579 986 l 579 610 b 406 663 522 650 468 663 b 72 315 213 663 72 518 b 360 -14 72 108 201 -14 z m 233 324 b 435 536 233 447 308 536 b 579 481 475 536 521 525 l 579 196 b 413 115 511 133 464 115 b 233 324 311 115 233 193 z m 447 -319 b 544 -226 507 -319 544 -287 b 449 -133 544 -167 511 -133 b 351 -226 389 -133 351 -172 b 447 -319 351 -287 388 -319 z "},"đ":{"ha":853,"x_min":0,"x_max":0,"o":"m 347 -14 b 568 94 429 -14 496 17 l 581 0 l 714 0 l 714 726 l 826 726 l 826 818 l 714 818 l 714 986 l 558 986 l 558 818 l 343 818 l 343 726 l 558 726 l 558 540 b 392 593 501 581 450 593 b 72 283 208 593 72 464 b 347 -14 72 97 194 -14 z m 233 292 b 414 475 233 397 300 475 b 558 417 454 475 499 463 l 558 196 b 397 115 492 135 447 115 b 233 292 304 115 233 182 z "},"é":{"ha":853,"x_min":0,"x_max":0,"o":"m 311 850 l 363 767 l 681 949 l 617 1051 z m 513 110 b 246 274 335 115 263 161 l 754 274 b 761 340 758 290 761 314 b 439 675 761 550 635 675 b 93 318 232 675 93 519 b 463 -11 93 111 199 -7 l 629 -14 l 635 107 z m 440 556 b 610 383 536 556 601 499 l 247 383 b 440 556 267 494 342 556 z "},"è":{"ha":853,"x_min":0,"x_max":0,"o":"m 575 849 l 269 1051 l 206 949 l 524 765 z m 513 110 b 246 274 335 115 263 161 l 754 274 b 761 340 758 290 761 314 b 439 675 761 550 635 675 b 93 318 232 675 93 519 b 463 -11 93 111 199 -7 l 629 -14 l 635 107 z m 440 556 b 610 383 536 556 601 499 l 247 383 b 440 556 267 494 342 556 z "},"ê":{"ha":853,"x_min":0,"x_max":0,"o":"m 185 822 l 240 758 l 443 924 l 646 758 l 701 822 l 479 1043 l 407 1043 z m 513 110 b 246 274 335 115 263 161 l 754 274 b 761 340 758 290 761 314 b 439 675 761 550 635 675 b 93 318 232 675 93 519 b 463 -11 93 111 199 -7 l 629 -14 l 635 107 z m 440 556 b 610 383 536 556 601 499 l 247 383 b 440 556 267 494 342 556 z "},"ệ":{"ha":853,"x_min":0,"x_max":0,"o":"m 185 822 l 240 758 l 443 924 l 646 758 l 701 822 l 479 1043 l 407 1043 z m 513 110 b 246 274 335 115 263 161 l 754 274 b 761 340 758 290 761 314 b 439 675 761 550 635 675 b 93 318 232 675 93 519 b 463 -11 93 111 199 -7 l 629 -14 l 635 107 z m 440 556 b 610 383 536 556 601 499 l 247 383 b 440 556 267 494 342 556 z m 443 -324 b 540 -231 503 -324 540 -292 b 444 -137 540 -171 507 -137 b 347 -231 385 -137 347 -176 b 443 -324 347 -292 383 -324 z "},"ế":{"ha":853,"x_min":0,"x_max":0,"o":"m 569 1078 l 613 1000 l 846 1117 l 793 1214 z m 185 822 l 240 758 l 443 903 l 646 758 l 701 822 l 479 1019 l 407 1019 z m 513 110 b 246 274 335 115 263 161 l 754 274 b 761 340 758 290 761 314 b 439 675 761 550 635 675 b 93 318 232 675 93 519 b 463 -11 93 111 199 -7 l 629 -14 l 635 107 z m 440 556 b 610 383 536 556 601 499 l 247 383 b 440 556 267 494 342 556 z "},"ề":{"ha":853,"x_min":0,"x_max":0,"o":"m 763 1060 l 551 1218 l 488 1128 l 710 988 z m 185 822 l 240 758 l 443 903 l 646 758 l 701 822 l 479 1019 l 407 1019 z m 513 110 b 246 274 335 115 263 161 l 754 274 b 761 340 758 290 761 314 b 439 675 761 550 635 675 b 93 318 232 675 93 519 b 463 -11 93 111 199 -7 l 629 -14 l 635 107 z m 440 556 b 610 383 536 556 601 499 l 247 383 b 440 556 267 494 342 556 z "},"ể":{"ha":853,"x_min":0,"x_max":0,"o":"m 594 1000 b 860 1154 799 1032 860 1094 b 585 1281 860 1214 813 1246 l 522 1207 l 522 1204 b 724 1139 700 1178 724 1161 b 561 1069 724 1115 696 1099 l 561 1067 z m 185 822 l 240 758 l 443 903 l 646 758 l 701 822 l 479 1019 l 407 1019 z m 513 110 b 246 274 335 115 263 161 l 754 274 b 761 340 758 290 761 314 b 439 675 761 550 635 675 b 93 318 232 675 93 519 b 463 -11 93 111 199 -7 l 629 -14 l 635 107 z m 440 556 b 610 383 536 556 601 499 l 247 383 b 440 556 267 494 342 556 z "},"ễ":{"ha":853,"x_min":0,"x_max":0,"o":"m 468 1219 b 347 1282 401 1269 379 1282 b 190 1079 290 1282 249 1240 l 278 1051 b 358 1174 322 1165 340 1174 b 444 1122 374 1174 383 1167 b 565 1058 511 1071 533 1058 b 722 1261 622 1058 664 1100 l 635 1290 b 554 1167 590 1175 572 1167 b 468 1219 539 1167 528 1175 z m 185 822 l 240 758 l 443 903 l 646 758 l 701 822 l 479 1019 l 407 1019 z m 513 110 b 246 274 335 115 263 161 l 754 274 b 761 340 758 290 761 314 b 439 675 761 550 635 675 b 93 318 232 675 93 519 b 463 -11 93 111 199 -7 l 629 -14 l 635 107 z m 440 556 b 610 383 536 556 601 499 l 247 383 b 440 556 267 494 342 556 z "},"ě":{"ha":853,"x_min":0,"x_max":0,"o":"m 701 986 l 646 1051 l 443 885 l 240 1051 l 185 986 l 407 767 l 479 767 z m 513 110 b 246 274 335 115 263 161 l 754 274 b 761 340 758 290 761 314 b 439 675 761 550 635 675 b 93 318 232 675 93 519 b 463 -11 93 111 199 -7 l 629 -14 l 635 107 z m 440 556 b 610 383 536 556 601 499 l 247 383 b 440 556 267 494 342 556 z "},"ĕ":{"ha":853,"x_min":0,"x_max":0,"o":"m 443 874 b 272 1042 371 874 315 918 l 178 1010 b 443 767 225 833 322 767 b 708 1010 564 767 661 833 l 614 1042 b 443 874 571 918 515 874 z m 513 110 b 246 274 335 115 263 161 l 754 274 b 761 340 758 290 761 314 b 439 675 761 550 635 675 b 93 318 232 675 93 519 b 463 -11 93 111 199 -7 l 629 -14 l 635 107 z m 440 556 b 610 383 536 556 601 499 l 247 383 b 440 556 267 494 342 556 z "},"ẽ":{"ha":853,"x_min":0,"x_max":0,"o":"m 415 854 b 554 767 490 781 522 767 b 726 1010 608 767 653 790 l 635 1043 b 553 885 585 901 571 885 b 468 950 538 885 528 893 b 329 1039 393 1024 363 1039 b 157 794 275 1039 231 1014 l 251 761 b 331 919 300 903 313 919 b 415 854 344 919 356 913 z m 513 110 b 246 274 335 115 263 161 l 754 274 b 761 340 758 290 761 314 b 439 675 761 550 635 675 b 93 318 232 675 93 519 b 463 -11 93 111 199 -7 l 629 -14 l 635 107 z m 440 556 b 610 383 536 556 601 499 l 247 383 b 440 556 267 494 342 556 z "},"ē":{"ha":853,"x_min":0,"x_max":0,"o":"m 210 822 l 676 822 l 676 932 l 210 932 z m 513 110 b 246 274 335 115 263 161 l 754 274 b 761 340 758 290 761 314 b 439 675 761 550 635 675 b 93 318 232 675 93 519 b 463 -11 93 111 199 -7 l 629 -14 l 635 107 z m 440 556 b 610 383 536 556 601 499 l 247 383 b 440 556 267 494 342 556 z "},"ë":{"ha":853,"x_min":0,"x_max":0,"o":"m 281 794 b 372 881 338 794 372 824 b 282 969 372 938 342 969 b 190 881 225 969 190 933 b 281 794 190 824 224 794 z m 603 794 b 696 881 660 794 696 824 b 604 969 696 938 664 969 b 514 881 549 969 514 933 b 603 794 514 824 546 794 z m 513 110 b 246 274 335 115 263 161 l 754 274 b 761 340 758 290 761 314 b 439 675 761 550 635 675 b 93 318 232 675 93 519 b 463 -11 93 111 199 -7 l 629 -14 l 635 107 z m 440 556 b 610 383 536 556 601 499 l 247 383 b 440 556 267 494 342 556 z "},"ė":{"ha":853,"x_min":0,"x_max":0,"o":"m 443 794 b 540 886 503 794 540 826 b 444 979 540 947 507 979 b 347 886 385 979 347 942 b 443 794 347 826 383 794 z m 513 110 b 246 274 335 115 263 161 l 754 274 b 761 340 758 290 761 314 b 439 675 761 550 635 675 b 93 318 232 675 93 519 b 463 -11 93 111 199 -7 l 629 -14 l 635 107 z m 440 556 b 610 383 536 556 601 499 l 247 383 b 440 556 267 494 342 556 z "},"ẻ":{"ha":853,"x_min":0,"x_max":0,"o":"m 313 767 b 603 935 536 794 603 868 b 328 1081 603 1003 553 1053 l 265 1003 l 265 999 b 467 918 443 974 467 947 b 279 835 467 890 436 863 l 279 832 z m 513 110 b 246 274 335 115 263 161 l 754 274 b 761 340 758 290 761 314 b 439 675 761 550 635 675 b 93 318 232 675 93 519 b 463 -11 93 111 199 -7 l 629 -14 l 635 107 z m 440 556 b 610 383 536 556 601 499 l 247 383 b 440 556 267 494 342 556 z "},"ẹ":{"ha":853,"x_min":0,"x_max":0,"o":"m 513 110 b 246 274 335 115 263 161 l 754 274 b 761 340 758 290 761 314 b 439 675 761 550 635 675 b 93 318 232 675 93 519 b 463 -11 93 111 199 -7 l 629 -14 l 635 107 z m 440 556 b 610 383 536 556 601 499 l 247 383 b 440 556 267 494 342 556 z m 443 -324 b 540 -231 503 -324 540 -292 b 444 -137 540 -171 507 -137 b 347 -231 385 -137 347 -176 b 443 -324 347 -292 383 -324 z "},"ę":{"ha":853,"x_min":0,"x_max":0,"o":"m 418 -217 b 546 -319 418 -282 454 -315 l 678 -325 l 689 -222 l 597 -217 b 536 -165 549 -214 536 -197 b 629 -14 536 -144 546 -117 l 635 107 l 513 110 b 246 274 335 115 263 161 l 754 274 b 761 340 758 290 761 314 b 439 675 761 550 635 675 b 93 318 232 675 93 519 b 463 -11 93 111 199 -7 l 544 -12 b 418 -217 438 -126 418 -176 z m 440 556 b 610 383 536 556 601 499 l 247 383 b 440 556 267 494 342 556 z "},"ĝ":{"ha":853,"x_min":0,"x_max":0,"o":"m 171 821 l 226 757 l 429 922 l 632 757 l 688 821 l 465 1042 l 393 1042 z m 72 333 b 354 19 72 138 203 19 b 581 117 442 19 510 44 l 581 -3 b 406 -187 581 -125 535 -181 l 183 -200 l 189 -332 l 422 -321 b 736 1 661 -308 736 -214 l 736 660 l 713 660 l 622 626 b 435 669 563 656 499 669 b 72 333 210 669 72 519 z m 233 343 b 451 539 233 444 308 539 b 581 500 492 539 533 529 l 581 228 b 413 149 513 167 465 149 b 233 343 313 149 233 221 z "},"ǧ":{"ha":853,"x_min":0,"x_max":0,"o":"m 688 983 l 632 1049 l 429 882 l 226 1049 l 171 983 l 393 764 l 465 764 z m 72 333 b 354 19 72 138 203 19 b 581 117 442 19 510 44 l 581 -3 b 406 -187 581 -125 535 -181 l 183 -200 l 189 -332 l 422 -321 b 736 1 661 -308 736 -214 l 736 660 l 713 660 l 622 626 b 435 669 563 656 499 669 b 72 333 210 669 72 519 z m 233 343 b 451 539 233 444 308 539 b 581 500 492 539 533 529 l 581 228 b 413 149 513 167 465 149 b 233 343 313 149 233 221 z "},"ğ":{"ha":853,"x_min":0,"x_max":0,"o":"m 429 871 b 258 1039 357 871 301 915 l 164 1007 b 429 764 211 831 308 764 b 694 1007 550 764 647 831 l 600 1039 b 429 871 557 915 501 871 z m 72 333 b 354 19 72 138 203 19 b 581 117 442 19 510 44 l 581 -3 b 406 -187 581 -125 535 -181 l 183 -200 l 189 -332 l 422 -321 b 736 1 661 -308 736 -214 l 736 660 l 713 660 l 622 626 b 435 669 563 656 499 669 b 72 333 210 669 72 519 z m 233 343 b 451 539 233 444 308 539 b 581 500 492 539 533 529 l 581 228 b 413 149 513 167 465 149 b 233 343 313 149 233 221 z "},"ḡ":{"ha":853,"x_min":0,"x_max":0,"o":"m 196 819 l 663 819 l 663 929 l 196 929 z m 72 333 b 354 19 72 138 203 19 b 581 117 442 19 510 44 l 581 -3 b 406 -187 581 -125 535 -181 l 183 -200 l 189 -332 l 422 -321 b 736 1 661 -308 736 -214 l 736 660 l 713 660 l 622 626 b 435 669 563 656 499 669 b 72 333 210 669 72 519 z m 233 343 b 451 539 233 444 308 539 b 581 500 492 539 533 529 l 581 228 b 413 149 513 167 465 149 b 233 343 313 149 233 221 z "},"ġ":{"ha":853,"x_min":0,"x_max":0,"o":"m 429 792 b 526 883 489 792 526 824 b 431 976 526 944 493 976 b 333 883 371 976 333 939 b 429 792 333 824 369 792 z m 72 333 b 354 19 72 138 203 19 b 581 117 442 19 510 44 l 581 -3 b 406 -187 581 -125 535 -181 l 183 -200 l 189 -332 l 422 -321 b 736 1 661 -308 736 -214 l 736 660 l 713 660 l 622 626 b 435 669 563 656 499 669 b 72 333 210 669 72 519 z m 233 343 b 451 539 233 444 308 539 b 581 500 492 539 533 529 l 581 228 b 413 149 513 167 465 149 b 233 343 313 149 233 221 z "},"ģ":{"ha":853,"x_min":0,"x_max":0,"o":"m 557 1078 b 267 910 335 1050 267 976 b 543 764 267 842 318 792 l 604 842 l 604 844 b 404 925 426 871 404 897 b 590 1010 404 954 435 982 l 590 1013 z m 72 333 b 354 19 72 138 203 19 b 581 117 442 19 510 44 l 581 -3 b 406 -187 581 -125 535 -181 l 183 -200 l 189 -332 l 422 -321 b 736 1 661 -308 736 -214 l 736 660 l 713 660 l 622 626 b 435 669 563 656 499 669 b 72 333 210 669 72 519 z m 233 343 b 451 539 233 444 308 539 b 581 500 492 539 533 529 l 581 228 b 413 149 513 167 465 149 b 233 343 313 149 233 221 z "},"ĥ":{"ha":853,"x_min":0,"x_max":0,"o":"m -60 1111 l -4 1047 l 199 1213 l 401 1047 l 457 1111 l 235 1332 l 163 1332 z m 278 986 l 122 986 l 122 0 l 278 0 l 278 394 b 492 521 381 486 439 521 b 581 424 554 521 581 489 l 581 0 l 736 0 l 736 451 b 543 665 736 589 675 665 b 278 533 460 665 388 631 z "},"ḫ":{"ha":853,"x_min":0,"x_max":0,"o":"m 278 986 l 122 986 l 122 0 l 278 0 l 278 394 b 492 521 381 486 439 521 b 581 424 554 521 581 489 l 581 0 l 736 0 l 736 451 b 543 665 736 589 675 665 b 278 533 460 665 388 631 z m 438 -274 b 267 -106 365 -274 310 -231 l 172 -137 b 438 -382 219 -314 317 -382 b 703 -137 558 -382 656 -314 l 608 -106 b 438 -274 565 -229 510 -274 z "},"ẖ":{"ha":853,"x_min":0,"x_max":0,"o":"m 278 986 l 122 986 l 122 0 l 278 0 l 278 394 b 492 521 381 486 439 521 b 581 424 554 521 581 489 l 581 0 l 736 0 l 736 451 b 543 665 736 589 675 665 b 278 533 460 665 388 631 z m 204 -272 l 671 -272 l 671 -161 l 204 -161 z "},"ḥ":{"ha":853,"x_min":0,"x_max":0,"o":"m 278 986 l 122 986 l 122 0 l 278 0 l 278 394 b 492 521 381 486 439 521 b 581 424 554 521 581 489 l 581 0 l 736 0 l 736 451 b 543 665 736 589 675 665 b 278 533 460 665 388 631 z m 438 -319 b 535 -226 497 -319 535 -287 b 439 -133 535 -167 501 -133 b 342 -226 379 -133 342 -172 b 438 -319 342 -287 378 -319 z "},"ḩ":{"ha":853,"x_min":0,"x_max":0,"o":"m 278 986 l 122 986 l 122 0 l 158 0 l 111 -137 l 119 -151 b 306 -207 276 -157 306 -176 b 39 -283 306 -243 271 -262 l 64 -368 b 415 -204 379 -342 415 -287 b 210 -81 415 -142 378 -99 l 235 0 l 278 0 l 278 394 b 492 521 381 486 439 521 b 581 424 554 521 581 489 l 581 0 l 736 0 l 736 451 b 543 665 736 589 675 665 b 278 533 460 665 388 631 z "},"ħ":{"ha":853,"x_min":0,"x_max":0,"o":"m 511 726 l 511 818 l 296 818 l 296 986 l 140 986 l 140 818 l 28 818 l 28 726 l 140 726 l 140 0 l 296 0 l 296 322 b 492 449 393 413 442 449 b 581 353 554 449 581 417 l 581 0 l 736 0 l 736 381 b 543 594 736 517 675 594 b 296 461 464 594 401 557 l 296 726 z "},"ı":{"ha":853,"x_min":0,"x_max":0,"o":"m 144 132 l 144 0 l 751 0 l 751 132 l 525 132 l 525 654 l 172 654 l 172 522 l 369 522 l 369 132 z "},"í":{"ha":853,"x_min":0,"x_max":0,"o":"m 311 843 l 363 760 l 681 942 l 617 1044 z m 144 132 l 144 0 l 751 0 l 751 132 l 525 132 l 525 654 l 172 654 l 172 522 l 369 522 l 369 132 z "},"ì":{"ha":853,"x_min":0,"x_max":0,"o":"m 575 842 l 269 1044 l 206 942 l 524 758 z m 144 132 l 144 0 l 751 0 l 751 132 l 525 132 l 525 654 l 172 654 l 172 522 l 369 522 l 369 132 z "},"î":{"ha":853,"x_min":0,"x_max":0,"o":"m 185 824 l 240 760 l 443 925 l 646 760 l 701 824 l 479 1044 l 407 1044 z m 144 132 l 144 0 l 751 0 l 751 132 l 525 132 l 525 654 l 172 654 l 172 522 l 369 522 l 369 132 z "},"ǐ":{"ha":853,"x_min":0,"x_max":0,"o":"m 701 979 l 646 1044 l 443 878 l 240 1044 l 185 979 l 407 760 l 479 760 z m 144 132 l 144 0 l 751 0 l 751 132 l 525 132 l 525 654 l 172 654 l 172 522 l 369 522 l 369 132 z "},"ĭ":{"ha":853,"x_min":0,"x_max":0,"o":"m 443 867 b 272 1035 371 867 315 911 l 178 1003 b 443 760 225 826 322 760 b 708 1003 564 760 661 826 l 614 1035 b 443 867 571 911 515 867 z m 144 132 l 144 0 l 751 0 l 751 132 l 525 132 l 525 654 l 172 654 l 172 522 l 369 522 l 369 132 z "},"ĩ":{"ha":853,"x_min":0,"x_max":0,"o":"m 415 847 b 554 760 490 774 522 760 b 726 1003 608 760 653 783 l 635 1036 b 553 878 585 894 571 878 b 468 943 538 878 528 886 b 329 1032 393 1017 363 1032 b 157 788 275 1032 231 1007 l 251 754 b 331 913 300 896 313 913 b 415 847 344 913 356 906 z m 144 132 l 144 0 l 751 0 l 751 132 l 525 132 l 525 654 l 172 654 l 172 522 l 369 522 l 369 132 z "},"ī":{"ha":853,"x_min":0,"x_max":0,"o":"m 210 815 l 676 815 l 676 925 l 210 925 z m 144 132 l 144 0 l 751 0 l 751 132 l 525 132 l 525 654 l 172 654 l 172 522 l 369 522 l 369 132 z "},"ï":{"ha":853,"x_min":0,"x_max":0,"o":"m 281 788 b 372 874 338 788 372 817 b 282 963 372 931 342 963 b 190 874 225 963 190 926 b 281 788 190 817 224 788 z m 603 788 b 696 874 660 788 696 817 b 604 963 696 931 664 963 b 514 874 549 963 514 926 b 603 788 514 817 546 788 z m 144 132 l 144 0 l 751 0 l 751 132 l 525 132 l 525 654 l 172 654 l 172 522 l 369 522 l 369 132 z "},"ỉ":{"ha":853,"x_min":0,"x_max":0,"o":"m 313 760 b 603 928 536 788 603 861 b 328 1074 603 996 553 1046 l 265 996 l 265 992 b 467 911 443 967 467 940 b 279 828 467 883 436 856 l 279 825 z m 144 132 l 144 0 l 751 0 l 751 132 l 525 132 l 525 654 l 172 654 l 172 522 l 369 522 l 369 132 z "},"ị":{"ha":853,"x_min":0,"x_max":0,"o":"m 436 822 b 560 924 511 822 560 858 b 438 1028 560 990 517 1028 b 315 925 363 1028 315 983 b 436 822 315 857 363 822 z m 144 132 l 144 0 l 751 0 l 751 132 l 525 132 l 525 654 l 172 654 l 172 522 l 369 522 l 369 132 z m 446 -319 b 543 -226 506 -319 543 -287 b 447 -133 543 -167 510 -133 b 350 -226 388 -133 350 -172 b 446 -319 350 -287 386 -319 z "},"į":{"ha":853,"x_min":0,"x_max":0,"o":"m 436 822 b 560 924 511 822 560 858 b 438 1028 560 990 517 1028 b 315 925 363 1028 315 983 b 436 822 315 857 363 822 z m 144 132 l 144 0 l 413 0 b 289 -217 311 -124 289 -175 b 417 -319 289 -282 326 -315 l 550 -325 l 561 -222 l 468 -217 b 408 -165 421 -214 408 -197 b 492 0 408 -143 414 -110 l 751 0 l 751 132 l 525 132 l 525 654 l 172 654 l 172 522 l 369 522 l 369 132 z "},"ȷ":{"ha":853,"x_min":0,"x_max":0,"o":"m 611 -33 l 611 654 l 157 654 l 157 522 l 456 522 l 456 -43 b 318 -183 456 -139 419 -176 l 139 -196 l 144 -329 l 329 -319 b 611 -33 536 -308 611 -240 z "},"ĵ":{"ha":853,"x_min":0,"x_max":0,"o":"m 279 824 l 335 760 l 538 925 l 740 760 l 796 824 l 574 1044 l 501 1044 z m 611 -33 l 611 654 l 157 654 l 157 522 l 456 522 l 456 -43 b 318 -183 456 -139 419 -176 l 139 -196 l 144 -329 l 329 -319 b 611 -33 536 -308 611 -240 z "},"ǰ":{"ha":853,"x_min":0,"x_max":0,"o":"m 796 979 l 740 1044 l 538 878 l 335 1044 l 279 979 l 501 760 l 574 760 z m 611 -33 l 611 654 l 157 654 l 157 522 l 456 522 l 456 -43 b 318 -183 456 -139 419 -176 l 139 -196 l 144 -329 l 329 -319 b 611 -33 536 -308 611 -240 z "},"ḵ":{"ha":853,"x_min":0,"x_max":0,"o":"m 292 986 l 136 986 l 136 0 l 292 0 l 292 311 l 588 0 l 792 0 l 792 3 l 454 340 l 789 651 l 789 654 l 593 654 l 292 360 z m 196 -272 l 663 -272 l 663 -161 l 196 -161 z "},"ķ":{"ha":853,"x_min":0,"x_max":0,"o":"m 292 986 l 136 986 l 136 0 l 292 0 l 292 311 l 588 0 l 792 0 l 792 3 l 454 340 l 789 651 l 789 654 l 593 654 l 292 360 z m 299 -421 b 589 -253 522 -393 589 -318 b 314 -106 589 -183 539 -135 l 251 -183 l 251 -187 b 453 -268 429 -212 453 -240 b 265 -351 453 -297 422 -324 l 265 -354 z "},"ḳ":{"ha":853,"x_min":0,"x_max":0,"o":"m 292 986 l 136 986 l 136 0 l 292 0 l 292 311 l 588 0 l 792 0 l 792 3 l 454 340 l 789 651 l 789 654 l 593 654 l 292 360 z m 429 -319 b 526 -226 489 -319 526 -287 b 431 -133 526 -167 493 -133 b 333 -226 371 -133 333 -172 b 429 -319 333 -287 369 -319 z "},"ĺ":{"ha":853,"x_min":0,"x_max":0,"o":"m 258 1190 l 310 1107 l 628 1289 l 564 1392 z m 319 253 b 568 0 319 69 382 10 l 740 -8 l 747 125 l 596 133 b 474 267 507 139 474 172 l 474 986 l 81 986 l 81 854 l 319 854 z "},"ľ":{"ha":853,"x_min":0,"x_max":0,"o":"m 669 783 l 772 783 l 810 1094 l 669 1094 z m 319 253 b 568 0 319 69 382 10 l 740 -8 l 747 125 l 596 133 b 474 267 507 139 474 172 l 474 986 l 81 986 l 81 854 l 319 854 z "},"ļ":{"ha":853,"x_min":0,"x_max":0,"o":"m 319 253 b 568 0 319 69 382 10 l 740 -8 l 747 125 l 596 133 b 474 267 507 139 474 172 l 474 986 l 81 986 l 81 854 l 319 854 z m 300 -421 b 590 -253 524 -393 590 -318 b 315 -106 590 -183 540 -135 l 253 -183 l 253 -187 b 454 -268 431 -212 454 -240 b 267 -351 454 -297 424 -324 l 267 -354 z "},"ḽ":{"ha":853,"x_min":0,"x_max":0,"o":"m 319 253 b 568 0 319 69 382 10 l 740 -8 l 747 125 l 596 133 b 474 267 507 139 474 172 l 474 986 l 81 986 l 81 854 l 319 854 z m 172 -326 l 228 -390 l 431 -225 l 633 -390 l 689 -326 l 467 -106 l 394 -106 z "},"ḻ":{"ha":853,"x_min":0,"x_max":0,"o":"m 319 253 b 568 0 319 69 382 10 l 740 -8 l 747 125 l 596 133 b 474 267 507 139 474 172 l 474 986 l 81 986 l 81 854 l 319 854 z m 197 -272 l 664 -272 l 664 -161 l 197 -161 z "},"ḹ":{"ha":853,"x_min":0,"x_max":0,"o":"m 157 1163 l 624 1163 l 624 1272 l 157 1272 z m 319 253 b 568 0 319 69 382 10 l 740 -8 l 747 125 l 596 133 b 474 267 507 139 474 172 l 474 986 l 81 986 l 81 854 l 319 854 z m 431 -319 b 528 -226 490 -319 528 -287 b 432 -133 528 -167 494 -133 b 335 -226 372 -133 335 -172 b 431 -319 335 -287 371 -319 z "},"ḷ":{"ha":853,"x_min":0,"x_max":0,"o":"m 319 253 b 568 0 319 69 382 10 l 740 -8 l 747 125 l 596 133 b 474 267 507 139 474 172 l 474 986 l 81 986 l 81 854 l 319 854 z m 431 -319 b 528 -226 490 -319 528 -287 b 432 -133 528 -167 494 -133 b 335 -226 372 -133 335 -172 b 431 -319 335 -287 371 -319 z "},"ŀ":{"ha":853,"x_min":0,"x_max":0,"o":"m 319 253 b 568 0 319 69 382 10 l 740 -8 l 747 125 l 596 133 b 474 267 507 139 474 172 l 474 986 l 81 986 l 81 854 l 319 854 z m 835 372 b 944 501 904 372 944 417 b 836 631 944 588 908 631 b 726 500 767 631 726 582 b 835 372 726 417 764 372 z "},"ł":{"ha":853,"x_min":0,"x_max":0,"o":"m 121 301 l 319 418 l 319 253 b 568 0 319 69 382 10 l 740 -8 l 747 125 l 596 133 b 474 267 507 139 474 172 l 474 488 l 706 626 l 706 743 l 474 606 l 474 986 l 81 986 l 81 854 l 319 854 l 319 536 l 121 419 z "},"ḿ":{"ha":853,"x_min":0,"x_max":0,"o":"m 296 843 l 347 760 l 665 942 l 601 1044 z m 176 654 l 65 654 l 65 0 l 203 0 l 203 415 b 319 499 264 485 293 499 b 365 451 351 499 365 483 l 365 0 l 493 0 l 493 417 b 608 499 554 485 583 499 b 654 449 639 499 654 485 l 654 0 l 790 0 l 790 522 b 686 660 790 621 757 660 b 513 521 626 660 583 633 l 490 521 l 490 533 b 392 660 490 625 456 660 b 210 517 332 660 282 633 l 192 517 z "},"ṁ":{"ha":853,"x_min":0,"x_max":0,"o":"m 428 788 b 525 879 488 788 525 819 b 429 972 525 940 492 972 b 332 879 369 972 332 935 b 428 788 332 819 368 788 z m 176 654 l 65 654 l 65 0 l 203 0 l 203 415 b 319 499 264 485 293 499 b 365 451 351 499 365 483 l 365 0 l 493 0 l 493 417 b 608 499 554 485 583 499 b 654 449 639 499 654 485 l 654 0 l 790 0 l 790 522 b 686 660 790 621 757 660 b 513 521 626 660 583 633 l 490 521 l 490 533 b 392 660 490 625 456 660 b 210 517 332 660 282 633 l 192 517 z "},"ṃ":{"ha":853,"x_min":0,"x_max":0,"o":"m 176 654 l 65 654 l 65 0 l 203 0 l 203 415 b 319 499 264 485 293 499 b 365 451 351 499 365 483 l 365 0 l 493 0 l 493 417 b 608 499 554 485 583 499 b 654 449 639 499 654 485 l 654 0 l 790 0 l 790 522 b 686 660 790 621 757 660 b 513 521 626 660 583 633 l 490 521 l 490 533 b 392 660 490 625 456 660 b 210 517 332 660 282 633 l 192 517 z m 431 -319 b 528 -226 490 -319 528 -287 b 432 -133 528 -167 494 -133 b 335 -226 372 -133 335 -172 b 431 -319 335 -287 371 -319 z "},"ń":{"ha":853,"x_min":0,"x_max":0,"o":"m 296 843 l 347 760 l 665 942 l 601 1044 z m 256 654 l 122 654 l 122 0 l 278 0 l 278 394 b 492 521 381 486 439 521 b 581 424 554 521 581 489 l 581 0 l 736 0 l 736 451 b 543 665 736 589 675 665 b 268 524 457 665 383 628 z "},"ǹ":{"ha":853,"x_min":0,"x_max":0,"o":"m 560 842 l 254 1044 l 190 942 l 508 758 z m 256 654 l 122 654 l 122 0 l 278 0 l 278 394 b 492 521 381 486 439 521 b 581 424 554 521 581 489 l 581 0 l 736 0 l 736 451 b 543 665 736 589 675 665 b 268 524 457 665 383 628 z "},"ň":{"ha":853,"x_min":0,"x_max":0,"o":"m 686 979 l 631 1044 l 428 878 l 225 1044 l 169 979 l 392 760 l 464 760 z m 256 654 l 122 654 l 122 0 l 278 0 l 278 394 b 492 521 381 486 439 521 b 581 424 554 521 581 489 l 581 0 l 736 0 l 736 451 b 543 665 736 589 675 665 b 268 524 457 665 383 628 z "},"ñ":{"ha":853,"x_min":0,"x_max":0,"o":"m 400 847 b 539 760 475 774 507 760 b 711 1003 593 760 638 783 l 619 1036 b 538 878 569 894 556 878 b 453 943 522 878 513 886 b 314 1032 378 1017 347 1032 b 142 788 260 1032 215 1007 l 236 754 b 315 913 285 896 297 913 b 400 847 329 913 340 906 z m 256 654 l 122 654 l 122 0 l 278 0 l 278 394 b 492 521 381 486 439 521 b 581 424 554 521 581 489 l 581 0 l 736 0 l 736 451 b 543 665 736 589 675 665 b 268 524 457 665 383 628 z "},"ṅ":{"ha":853,"x_min":0,"x_max":0,"o":"m 428 788 b 525 879 488 788 525 819 b 429 972 525 940 492 972 b 332 879 369 972 332 935 b 428 788 332 819 368 788 z m 256 654 l 122 654 l 122 0 l 278 0 l 278 394 b 492 521 381 486 439 521 b 581 424 554 521 581 489 l 581 0 l 736 0 l 736 451 b 543 665 736 589 675 665 b 268 524 457 665 383 628 z "},"ṋ":{"ha":853,"x_min":0,"x_max":0,"o":"m 256 654 l 122 654 l 122 0 l 278 0 l 278 394 b 492 521 381 486 439 521 b 581 424 554 521 581 489 l 581 0 l 736 0 l 736 451 b 543 665 736 589 675 665 b 268 524 457 665 383 628 z m 175 -326 l 231 -390 l 433 -225 l 636 -390 l 692 -326 l 469 -106 l 397 -106 z "},"ņ":{"ha":853,"x_min":0,"x_max":0,"o":"m 256 654 l 122 654 l 122 0 l 278 0 l 278 394 b 492 521 381 486 439 521 b 581 424 554 521 581 489 l 581 0 l 736 0 l 736 451 b 543 665 736 589 675 665 b 268 524 457 665 383 628 z m 303 -421 b 593 -253 526 -393 593 -318 b 318 -106 593 -183 543 -135 l 256 -183 l 256 -187 b 457 -268 433 -212 457 -240 b 269 -351 457 -297 426 -324 l 269 -354 z "},"ṇ":{"ha":853,"x_min":0,"x_max":0,"o":"m 256 654 l 122 654 l 122 0 l 278 0 l 278 394 b 492 521 381 486 439 521 b 581 424 554 521 581 489 l 581 0 l 736 0 l 736 451 b 543 665 736 589 675 665 b 268 524 457 665 383 628 z m 433 -319 b 531 -226 493 -319 531 -287 b 435 -133 531 -167 497 -133 b 338 -226 375 -133 338 -172 b 433 -319 338 -287 374 -319 z "},"ṉ":{"ha":853,"x_min":0,"x_max":0,"o":"m 256 654 l 122 654 l 122 0 l 278 0 l 278 394 b 492 521 381 486 439 521 b 581 424 554 521 581 489 l 581 0 l 736 0 l 736 451 b 543 665 736 589 675 665 b 268 524 457 665 383 628 z m 200 -272 l 667 -272 l 667 -161 l 200 -161 z "},"ŋ":{"ha":853,"x_min":0,"x_max":0,"o":"m 256 654 l 122 654 l 122 0 l 278 0 l 278 394 b 492 521 381 486 439 521 b 581 424 554 521 581 489 l 581 -60 b 460 -183 581 -144 549 -176 l 299 -196 l 304 -329 l 471 -319 b 736 -51 665 -308 736 -244 l 736 451 b 543 665 736 589 675 665 b 268 524 457 665 383 628 z "},"ó":{"ha":853,"x_min":0,"x_max":0,"o":"m 296 850 l 347 767 l 665 949 l 601 1051 z m 424 -21 b 775 326 629 -21 775 122 b 429 675 775 532 632 675 b 78 328 222 675 78 528 b 424 -21 78 118 221 -21 z m 426 108 b 239 328 311 108 239 188 b 426 544 239 468 315 544 b 614 326 542 544 614 463 b 426 108 614 182 539 108 z "},"ő":{"ha":853,"x_min":0,"x_max":0,"o":"m 165 829 l 235 767 l 426 972 l 331 1047 z m 494 829 l 564 767 l 754 972 l 660 1047 z m 424 -21 b 775 326 629 -21 775 122 b 429 675 775 532 632 675 b 78 328 222 675 78 528 b 424 -21 78 118 221 -21 z m 426 108 b 239 328 311 108 239 188 b 426 544 239 468 315 544 b 614 326 542 544 614 463 b 426 108 614 182 539 108 z "},"ò":{"ha":853,"x_min":0,"x_max":0,"o":"m 560 849 l 254 1051 l 190 949 l 508 765 z m 424 -21 b 775 326 629 -21 775 122 b 429 675 775 532 632 675 b 78 328 222 675 78 528 b 424 -21 78 118 221 -21 z m 426 108 b 239 328 311 108 239 188 b 426 544 239 468 315 544 b 614 326 542 544 614 463 b 426 108 614 182 539 108 z "},"ô":{"ha":853,"x_min":0,"x_max":0,"o":"m 169 824 l 225 760 l 428 925 l 631 760 l 686 824 l 464 1044 l 392 1044 z m 424 -21 b 775 326 629 -21 775 122 b 429 675 775 532 632 675 b 78 328 222 675 78 528 b 424 -21 78 118 221 -21 z m 426 108 b 239 328 311 108 239 188 b 426 544 239 468 315 544 b 614 326 542 544 614 463 b 426 108 614 182 539 108 z "},"ộ":{"ha":853,"x_min":0,"x_max":0,"o":"m 169 824 l 225 760 l 428 925 l 631 760 l 686 824 l 464 1044 l 392 1044 z m 424 -21 b 775 326 629 -21 775 122 b 429 675 775 532 632 675 b 78 328 222 675 78 528 b 424 -21 78 118 221 -21 z m 426 108 b 239 328 311 108 239 188 b 426 544 239 468 315 544 b 614 326 542 544 614 463 b 426 108 614 182 539 108 z m 426 -326 b 524 -233 486 -326 524 -294 b 428 -140 524 -174 490 -140 b 331 -233 368 -140 331 -179 b 426 -326 331 -294 367 -326 z "},"ố":{"ha":853,"x_min":0,"x_max":0,"o":"m 554 1079 l 597 1001 l 831 1118 l 778 1215 z m 169 824 l 225 760 l 428 904 l 631 760 l 686 824 l 464 1021 l 392 1021 z m 424 -21 b 775 326 629 -21 775 122 b 429 675 775 532 632 675 b 78 328 222 675 78 528 b 424 -21 78 118 221 -21 z m 426 108 b 239 328 311 108 239 188 b 426 544 239 468 315 544 b 614 326 542 544 614 463 b 426 108 614 182 539 108 z "},"ồ":{"ha":853,"x_min":0,"x_max":0,"o":"m 747 1061 l 536 1219 l 472 1129 l 694 989 z m 169 824 l 225 760 l 428 904 l 631 760 l 686 824 l 464 1021 l 392 1021 z m 424 -21 b 775 326 629 -21 775 122 b 429 675 775 532 632 675 b 78 328 222 675 78 528 b 424 -21 78 118 221 -21 z m 426 108 b 239 328 311 108 239 188 b 426 544 239 468 315 544 b 614 326 542 544 614 463 b 426 108 614 182 539 108 z "},"ổ":{"ha":853,"x_min":0,"x_max":0,"o":"m 579 1001 b 844 1156 783 1033 844 1096 b 569 1282 844 1215 797 1247 l 507 1208 l 507 1206 b 708 1140 685 1179 708 1163 b 546 1071 708 1117 681 1100 l 546 1068 z m 169 824 l 225 760 l 428 904 l 631 760 l 686 824 l 464 1021 l 392 1021 z m 424 -21 b 775 326 629 -21 775 122 b 429 675 775 532 632 675 b 78 328 222 675 78 528 b 424 -21 78 118 221 -21 z m 426 108 b 239 328 311 108 239 188 b 426 544 239 468 315 544 b 614 326 542 544 614 463 b 426 108 614 182 539 108 z "},"ỗ":{"ha":853,"x_min":0,"x_max":0,"o":"m 453 1221 b 332 1283 386 1271 364 1283 b 175 1081 275 1283 233 1242 l 263 1053 b 343 1175 307 1167 325 1175 b 429 1124 358 1175 368 1168 b 550 1060 496 1072 518 1060 b 707 1263 607 1060 649 1101 l 619 1292 b 539 1168 575 1176 557 1168 b 453 1221 524 1168 513 1176 z m 169 824 l 225 760 l 428 904 l 631 760 l 686 824 l 464 1021 l 392 1021 z m 424 -21 b 775 326 629 -21 775 122 b 429 675 775 532 632 675 b 78 328 222 675 78 528 b 424 -21 78 118 221 -21 z m 426 108 b 239 328 311 108 239 188 b 426 544 239 468 315 544 b 614 326 542 544 614 463 b 426 108 614 182 539 108 z "},"ǒ":{"ha":853,"x_min":0,"x_max":0,"o":"m 686 986 l 631 1051 l 428 885 l 225 1051 l 169 986 l 392 767 l 464 767 z m 424 -21 b 775 326 629 -21 775 122 b 429 675 775 532 632 675 b 78 328 222 675 78 528 b 424 -21 78 118 221 -21 z m 426 108 b 239 328 311 108 239 188 b 426 544 239 468 315 544 b 614 326 542 544 614 463 b 426 108 614 182 539 108 z "},"ŏ":{"ha":853,"x_min":0,"x_max":0,"o":"m 428 874 b 257 1042 356 874 300 918 l 163 1010 b 428 767 210 833 307 767 b 693 1010 549 767 646 833 l 599 1042 b 428 874 556 918 500 874 z m 424 -21 b 775 326 629 -21 775 122 b 429 675 775 532 632 675 b 78 328 222 675 78 528 b 424 -21 78 118 221 -21 z m 426 108 b 239 328 311 108 239 188 b 426 544 239 468 315 544 b 614 326 542 544 614 463 b 426 108 614 182 539 108 z "},"õ":{"ha":853,"x_min":0,"x_max":0,"o":"m 400 854 b 539 767 475 781 507 767 b 711 1010 593 767 638 790 l 619 1043 b 538 885 569 901 556 885 b 453 950 522 885 513 893 b 314 1039 378 1024 347 1039 b 142 794 260 1039 215 1014 l 236 761 b 315 919 285 903 297 919 b 400 854 329 919 340 913 z m 424 -21 b 775 326 629 -21 775 122 b 429 675 775 532 632 675 b 78 328 222 675 78 528 b 424 -21 78 118 221 -21 z m 426 108 b 239 328 311 108 239 188 b 426 544 239 468 315 544 b 614 326 542 544 614 463 b 426 108 614 182 539 108 z "},"ō":{"ha":853,"x_min":0,"x_max":0,"o":"m 194 822 l 661 822 l 661 932 l 194 932 z m 424 -21 b 775 326 629 -21 775 122 b 429 675 775 532 632 675 b 78 328 222 675 78 528 b 424 -21 78 118 221 -21 z m 426 108 b 239 328 311 108 239 188 b 426 544 239 468 315 544 b 614 326 542 544 614 463 b 426 108 614 182 539 108 z "},"ö":{"ha":853,"x_min":0,"x_max":0,"o":"m 265 794 b 357 881 322 794 357 824 b 267 969 357 938 326 969 b 175 881 210 969 175 933 b 265 794 175 824 208 794 z m 588 794 b 681 881 644 794 681 824 b 589 969 681 938 649 969 b 499 881 533 969 499 933 b 588 794 499 824 531 794 z m 424 -21 b 775 326 629 -21 775 122 b 429 675 775 532 632 675 b 78 328 222 675 78 528 b 424 -21 78 118 221 -21 z m 426 108 b 239 328 311 108 239 188 b 426 544 239 468 315 544 b 614 326 542 544 614 463 b 426 108 614 182 539 108 z "},"ȯ":{"ha":853,"x_min":0,"x_max":0,"o":"m 428 794 b 525 886 488 794 525 826 b 429 979 525 947 492 979 b 332 886 369 979 332 942 b 428 794 332 826 368 794 z m 424 -21 b 775 326 629 -21 775 122 b 429 675 775 532 632 675 b 78 328 222 675 78 528 b 424 -21 78 118 221 -21 z m 426 108 b 239 328 311 108 239 188 b 426 544 239 468 315 544 b 614 326 542 544 614 463 b 426 108 614 182 539 108 z "},"ỏ":{"ha":853,"x_min":0,"x_max":0,"o":"m 297 767 b 588 935 521 794 588 868 b 313 1081 588 1003 538 1053 l 250 1003 l 250 999 b 451 918 428 974 451 947 b 264 835 451 890 421 863 l 264 832 z m 424 -21 b 775 326 629 -21 775 122 b 429 675 775 532 632 675 b 78 328 222 675 78 528 b 424 -21 78 118 221 -21 z m 426 108 b 239 328 311 108 239 188 b 426 544 239 468 315 544 b 614 326 542 544 614 463 b 426 108 614 182 539 108 z "},"ọ":{"ha":853,"x_min":0,"x_max":0,"o":"m 424 -21 b 775 326 629 -21 775 122 b 429 675 775 532 632 675 b 78 328 222 675 78 528 b 424 -21 78 118 221 -21 z m 426 108 b 239 328 311 108 239 188 b 426 544 239 468 315 544 b 614 326 542 544 614 463 b 426 108 614 182 539 108 z m 426 -326 b 524 -233 486 -326 524 -294 b 428 -140 524 -174 490 -140 b 331 -233 368 -140 331 -179 b 426 -326 331 -294 367 -326 z "},"ǫ":{"ha":853,"x_min":0,"x_max":0,"o":"m 278 -224 b 406 -326 278 -289 314 -322 l 538 -332 l 549 -229 l 457 -224 b 396 -172 408 -221 396 -204 b 472 -18 396 -150 400 -118 b 775 326 651 3 775 139 b 429 675 775 532 632 675 b 78 328 222 675 78 528 b 392 -19 78 129 206 -6 b 278 -224 299 -133 278 -183 z m 426 108 b 239 328 311 108 239 188 b 426 544 239 468 315 544 b 614 326 542 544 614 463 b 426 108 614 182 539 108 z "},"ø":{"ha":853,"x_min":0,"x_max":0,"o":"m 775 326 b 672 569 775 421 735 507 l 813 753 l 663 753 l 586 635 b 429 675 538 661 485 675 b 78 328 222 675 78 528 b 182 82 78 232 118 146 l 40 -99 l 189 -99 l 265 19 b 424 -21 314 -6 368 -21 b 775 326 631 -21 775 125 z m 239 328 b 426 544 239 468 315 544 b 614 326 546 544 614 469 b 426 108 614 185 538 108 b 239 328 307 108 239 185 z "},"œ":{"ha":853,"x_min":0,"x_max":0,"o":"m 265 -19 b 426 96 332 -19 389 24 b 621 -11 463 28 525 -10 l 713 -14 l 718 103 l 656 107 b 494 274 546 113 504 157 l 819 274 b 825 340 822 290 825 314 b 610 672 825 546 739 672 b 435 542 539 672 476 621 b 271 672 399 624 340 672 b 29 328 129 672 29 528 b 265 -19 29 119 126 -19 z m 600 557 b 685 383 647 557 681 496 l 496 383 b 600 557 506 496 549 557 z m 276 103 b 183 328 218 103 183 183 b 276 551 183 472 221 551 b 363 326 329 551 363 467 b 276 103 363 178 328 103 z "},"ơ":{"ha":853,"x_min":0,"x_max":0,"o":"m 678 565 b 847 810 783 565 842 635 l 703 810 b 588 654 697 692 676 654 l 429 654 b 78 324 222 654 78 514 b 424 -21 78 117 221 -21 b 775 314 629 -21 775 118 b 613 563 775 414 725 494 l 615 572 b 678 565 638 568 658 565 z m 426 108 b 239 324 311 108 239 186 b 426 536 239 463 315 536 b 614 322 542 536 614 457 b 426 108 614 181 539 108 z "},"ớ":{"ha":853,"x_min":0,"x_max":0,"o":"m 296 850 l 347 767 l 665 949 l 601 1051 z m 678 565 b 847 810 783 565 842 635 l 703 810 b 588 654 697 692 676 654 l 429 654 b 78 324 222 654 78 514 b 424 -21 78 117 221 -21 b 775 314 629 -21 775 118 b 613 563 775 414 725 494 l 615 572 b 678 565 638 568 658 565 z m 426 108 b 239 324 311 108 239 186 b 426 536 239 463 315 536 b 614 322 542 536 614 457 b 426 108 614 181 539 108 z "},"ờ":{"ha":853,"x_min":0,"x_max":0,"o":"m 560 849 l 254 1051 l 190 949 l 508 765 z m 678 565 b 847 810 783 565 842 635 l 703 810 b 588 654 697 692 676 654 l 429 654 b 78 324 222 654 78 514 b 424 -21 78 117 221 -21 b 775 314 629 -21 775 118 b 613 563 775 414 725 494 l 615 572 b 678 565 638 568 658 565 z m 426 108 b 239 324 311 108 239 186 b 426 536 239 463 315 536 b 614 322 542 536 614 457 b 426 108 614 181 539 108 z "},"ỡ":{"ha":853,"x_min":0,"x_max":0,"o":"m 400 854 b 539 767 475 781 507 767 b 711 1010 593 767 638 790 l 619 1043 b 538 885 569 901 556 885 b 453 950 522 885 513 893 b 314 1039 378 1024 347 1039 b 142 794 260 1039 215 1014 l 236 761 b 315 919 285 903 297 919 b 400 854 329 919 340 913 z m 678 565 b 847 810 783 565 842 635 l 703 810 b 588 654 697 692 676 654 l 429 654 b 78 324 222 654 78 514 b 424 -21 78 117 221 -21 b 775 314 629 -21 775 118 b 613 563 775 414 725 494 l 615 572 b 678 565 638 568 658 565 z m 426 108 b 239 324 311 108 239 186 b 426 536 239 463 315 536 b 614 322 542 536 614 457 b 426 108 614 181 539 108 z "},"ở":{"ha":853,"x_min":0,"x_max":0,"o":"m 297 767 b 588 935 521 794 588 868 b 313 1081 588 1003 538 1053 l 250 1003 l 250 999 b 451 918 428 974 451 947 b 264 835 451 890 421 863 l 264 832 z m 678 565 b 847 810 783 565 842 635 l 703 810 b 588 654 697 692 676 654 l 429 654 b 78 324 222 654 78 514 b 424 -21 78 117 221 -21 b 775 314 629 -21 775 118 b 613 563 775 414 725 494 l 615 572 b 678 565 638 568 658 565 z m 426 108 b 239 324 311 108 239 186 b 426 536 239 463 315 536 b 614 322 542 536 614 457 b 426 108 614 181 539 108 z "},"ợ":{"ha":853,"x_min":0,"x_max":0,"o":"m 678 565 b 847 810 783 565 842 635 l 703 810 b 588 654 697 692 676 654 l 429 654 b 78 324 222 654 78 514 b 424 -21 78 117 221 -21 b 775 314 629 -21 775 118 b 613 563 775 414 725 494 l 615 572 b 678 565 638 568 658 565 z m 426 108 b 239 324 311 108 239 186 b 426 536 239 463 315 536 b 614 322 542 536 614 457 b 426 108 614 181 539 108 z m 426 -326 b 524 -233 486 -326 524 -294 b 428 -140 524 -174 490 -140 b 331 -233 368 -140 331 -179 b 426 -326 331 -294 367 -326 z "},"ŕ":{"ha":853,"x_min":0,"x_max":0,"o":"m 293 843 l 344 760 l 663 942 l 599 1044 z m 74 132 l 74 0 l 579 0 l 579 132 l 386 132 l 386 322 b 660 493 521 471 546 483 l 785 503 l 774 660 l 644 650 b 376 449 560 644 507 624 l 368 654 l 101 654 l 101 522 l 231 522 l 231 132 z "},"ř":{"ha":853,"x_min":0,"x_max":0,"o":"m 683 979 l 628 1044 l 425 878 l 222 1044 l 167 979 l 389 760 l 461 760 z m 74 132 l 74 0 l 579 0 l 579 132 l 386 132 l 386 322 b 660 493 521 471 546 483 l 785 503 l 774 660 l 644 650 b 376 449 560 644 507 624 l 368 654 l 101 654 l 101 522 l 231 522 l 231 132 z "},"ṙ":{"ha":853,"x_min":0,"x_max":0,"o":"m 425 788 b 522 879 485 788 522 819 b 426 972 522 940 489 972 b 329 879 367 972 329 935 b 425 788 329 819 365 788 z m 74 132 l 74 0 l 579 0 l 579 132 l 386 132 l 386 322 b 660 493 521 471 546 483 l 785 503 l 774 660 l 644 650 b 376 449 560 644 507 624 l 368 654 l 101 654 l 101 522 l 231 522 l 231 132 z "},"ṝ":{"ha":853,"x_min":0,"x_max":0,"o":"m 192 815 l 658 815 l 658 925 l 192 925 z m 74 132 l 74 0 l 579 0 l 579 132 l 386 132 l 386 322 b 660 493 521 471 546 483 l 785 503 l 774 660 l 644 650 b 376 449 560 644 507 624 l 368 654 l 101 654 l 101 522 l 231 522 l 231 132 z m 326 -319 b 424 -226 386 -319 424 -287 b 328 -133 424 -167 390 -133 b 231 -226 268 -133 231 -172 b 326 -319 231 -287 267 -319 z "},"ŗ":{"ha":853,"x_min":0,"x_max":0,"o":"m 74 132 l 74 0 l 579 0 l 579 132 l 386 132 l 386 322 b 660 493 521 471 546 483 l 785 503 l 774 660 l 644 650 b 376 449 560 644 507 624 l 368 654 l 101 654 l 101 522 l 231 522 l 231 132 z m 196 -421 b 486 -253 419 -393 486 -318 b 211 -106 486 -183 436 -135 l 149 -183 l 149 -187 b 350 -268 326 -212 350 -240 b 163 -351 350 -297 319 -324 l 163 -354 z "},"ṛ":{"ha":853,"x_min":0,"x_max":0,"o":"m 74 132 l 74 0 l 579 0 l 579 132 l 386 132 l 386 322 b 660 493 521 471 546 483 l 785 503 l 774 660 l 644 650 b 376 449 560 644 507 624 l 368 654 l 101 654 l 101 522 l 231 522 l 231 132 z m 326 -319 b 424 -226 386 -319 424 -287 b 328 -133 424 -167 390 -133 b 231 -226 268 -133 231 -172 b 326 -319 231 -287 267 -319 z "},"ṟ":{"ha":853,"x_min":0,"x_max":0,"o":"m 74 132 l 74 0 l 579 0 l 579 132 l 386 132 l 386 322 b 660 493 521 471 546 483 l 785 503 l 774 660 l 644 650 b 376 449 560 644 507 624 l 368 654 l 101 654 l 101 522 l 231 522 l 231 132 z m 93 -272 l 560 -272 l 560 -161 l 93 -161 z "},"ś":{"ha":853,"x_min":0,"x_max":0,"o":"m 308 850 l 360 767 l 678 949 l 614 1051 z m 736 189 b 522 383 736 288 699 344 l 393 411 b 292 485 310 432 292 449 b 450 547 292 522 325 547 b 688 521 506 547 589 539 l 703 649 b 454 672 614 664 515 672 b 133 475 225 672 133 592 b 342 286 133 381 168 324 l 474 258 b 578 181 558 239 578 218 b 408 106 578 138 539 106 b 138 136 351 106 250 115 l 121 8 b 404 -18 224 -10 306 -18 b 736 189 631 -18 736 74 z "},"ŝ":{"ha":853,"x_min":0,"x_max":0,"o":"m 182 824 l 238 760 l 440 925 l 643 760 l 699 824 l 476 1044 l 404 1044 z m 736 189 b 522 383 736 288 699 344 l 393 411 b 292 485 310 432 292 449 b 450 547 292 522 325 547 b 688 521 506 547 589 539 l 703 649 b 454 672 614 664 515 672 b 133 475 225 672 133 592 b 342 286 133 381 168 324 l 474 258 b 578 181 558 239 578 218 b 408 106 578 138 539 106 b 138 136 351 106 250 115 l 121 8 b 404 -18 224 -10 306 -18 b 736 189 631 -18 736 74 z "},"š":{"ha":853,"x_min":0,"x_max":0,"o":"m 699 986 l 643 1051 l 440 885 l 238 1051 l 182 986 l 404 767 l 476 767 z m 736 189 b 522 383 736 288 699 344 l 393 411 b 292 485 310 432 292 449 b 450 547 292 522 325 547 b 688 521 506 547 589 539 l 703 649 b 454 672 614 664 515 672 b 133 475 225 672 133 592 b 342 286 133 381 168 324 l 474 258 b 578 181 558 239 578 218 b 408 106 578 138 539 106 b 138 136 351 106 250 115 l 121 8 b 404 -18 224 -10 306 -18 b 736 189 631 -18 736 74 z "},"ș":{"ha":853,"x_min":0,"x_max":0,"o":"m 736 189 b 522 383 736 288 699 344 l 393 411 b 292 485 310 432 292 449 b 450 547 292 522 325 547 b 688 521 506 547 589 539 l 703 649 b 454 672 614 664 515 672 b 133 475 225 672 133 592 b 342 286 133 381 168 324 l 474 258 b 578 181 558 239 578 218 b 408 106 578 138 539 106 b 138 136 351 106 250 115 l 121 8 b 404 -18 224 -10 306 -18 b 736 189 631 -18 736 74 z m 286 -428 b 576 -260 510 -400 576 -325 b 301 -112 576 -190 526 -142 l 239 -190 l 239 -194 b 440 -275 417 -219 440 -247 b 253 -358 440 -304 410 -331 l 253 -361 z "},"ṣ":{"ha":853,"x_min":0,"x_max":0,"o":"m 736 189 b 522 383 736 288 699 344 l 393 411 b 292 485 310 432 292 449 b 450 547 292 522 325 547 b 688 521 506 547 589 539 l 703 649 b 454 672 614 664 515 672 b 133 475 225 672 133 592 b 342 286 133 381 168 324 l 474 258 b 578 181 558 239 578 218 b 408 106 578 138 539 106 b 138 136 351 106 250 115 l 121 8 b 404 -18 224 -10 306 -18 b 736 189 631 -18 736 74 z m 417 -326 b 514 -233 476 -326 514 -294 b 418 -140 514 -174 481 -140 b 321 -233 358 -140 321 -179 b 417 -326 321 -294 357 -326 z "},"ş":{"ha":853,"x_min":0,"x_max":0,"o":"m 736 189 b 522 383 736 288 699 344 l 393 411 b 292 485 310 432 292 449 b 450 547 292 522 325 547 b 688 521 506 547 589 539 l 703 649 b 454 672 614 664 515 672 b 133 475 225 672 133 592 b 342 286 133 381 168 324 l 474 258 b 578 181 558 239 578 218 b 408 106 578 138 539 106 b 138 136 351 106 250 115 l 121 8 b 371 -18 213 -8 286 -17 l 328 -144 l 336 -158 b 521 -214 492 -164 521 -183 b 256 -290 521 -250 488 -269 l 279 -375 b 632 -211 594 -349 632 -294 b 425 -87 632 -149 593 -106 l 447 -17 b 736 189 644 -6 736 81 z "},"ß":{"ha":853,"x_min":0,"x_max":0,"o":"m 622 213 b 533 135 622 167 596 139 l 439 129 l 447 -6 l 547 0 b 785 199 718 10 785 78 b 579 507 785 281 763 347 b 733 789 718 663 733 717 b 451 1007 733 913 635 1007 b 118 678 239 1007 118 867 l 118 0 l 274 0 l 274 678 b 450 876 274 803 335 876 b 574 776 529 876 574 835 b 428 531 574 731 567 686 l 428 464 b 622 213 601 310 622 263 z "},"ť":{"ha":853,"x_min":0,"x_max":0,"o":"m 585 783 l 688 783 l 725 1094 l 585 1094 z m 290 258 b 529 0 290 65 339 10 l 743 -10 l 754 124 l 565 135 b 446 278 471 140 446 171 l 446 522 l 718 522 l 718 654 l 443 654 l 443 888 l 292 888 l 292 654 l 79 654 l 79 522 l 290 522 z "},"ṱ":{"ha":853,"x_min":0,"x_max":0,"o":"m 290 258 b 529 0 290 65 339 10 l 743 -10 l 754 124 l 565 135 b 446 278 471 140 446 171 l 446 522 l 718 522 l 718 654 l 443 654 l 443 888 l 292 888 l 292 654 l 79 654 l 79 522 l 290 522 z m 189 -326 l 244 -390 l 447 -225 l 650 -390 l 706 -326 l 483 -106 l 411 -106 z "},"ț":{"ha":853,"x_min":0,"x_max":0,"o":"m 290 258 b 529 0 290 65 339 10 l 743 -10 l 754 124 l 565 135 b 446 278 471 140 446 171 l 446 522 l 718 522 l 718 654 l 443 654 l 443 888 l 292 888 l 292 654 l 79 654 l 79 522 l 290 522 z m 317 -421 b 607 -253 540 -393 607 -318 b 332 -106 607 -183 557 -135 l 269 -183 l 269 -187 b 471 -268 447 -212 471 -240 b 283 -351 471 -297 440 -324 l 283 -354 z "},"ṭ":{"ha":853,"x_min":0,"x_max":0,"o":"m 290 258 b 529 0 290 65 339 10 l 743 -10 l 754 124 l 565 135 b 446 278 471 140 446 171 l 446 522 l 718 522 l 718 654 l 443 654 l 443 888 l 292 888 l 292 654 l 79 654 l 79 522 l 290 522 z m 447 -319 b 544 -226 507 -319 544 -287 b 449 -133 544 -167 511 -133 b 351 -226 389 -133 351 -172 b 447 -319 351 -287 388 -319 z "},"ṯ":{"ha":853,"x_min":0,"x_max":0,"o":"m 290 258 b 529 0 290 65 339 10 l 743 -10 l 754 124 l 565 135 b 446 278 471 140 446 171 l 446 522 l 718 522 l 718 654 l 443 654 l 443 888 l 292 888 l 292 654 l 79 654 l 79 522 l 290 522 z m 214 -272 l 681 -272 l 681 -161 l 214 -161 z "},"ţ":{"ha":853,"x_min":0,"x_max":0,"o":"m 290 258 b 411 18 290 114 318 46 l 358 -137 l 367 -151 b 553 -207 524 -157 553 -176 b 286 -283 553 -243 518 -262 l 310 -368 b 663 -204 625 -342 663 -287 b 456 -81 663 -142 624 -99 l 482 4 b 529 0 497 1 513 1 l 743 -10 l 754 124 l 565 135 b 446 278 471 140 446 171 l 446 522 l 718 522 l 718 654 l 443 654 l 443 888 l 292 888 l 292 654 l 79 654 l 79 522 l 290 522 z "},"ŧ":{"ha":853,"x_min":0,"x_max":0,"o":"m 144 294 l 290 294 l 290 258 b 529 0 290 65 339 10 l 743 -10 l 753 115 l 564 126 b 446 268 471 132 446 161 l 446 294 l 635 294 l 635 385 l 446 385 l 446 531 l 718 531 l 718 654 l 443 654 l 443 888 l 292 888 l 292 654 l 79 654 l 79 531 l 290 531 l 290 385 l 144 385 z "},"ú":{"ha":853,"x_min":0,"x_max":0,"o":"m 304 833 l 356 750 l 674 932 l 610 1035 z m 731 0 l 731 654 l 575 654 l 575 260 b 361 133 472 168 414 133 b 272 231 299 133 272 165 l 272 654 l 117 654 l 117 201 b 310 -12 117 65 178 -12 b 583 129 396 -12 469 25 l 593 0 z "},"ű":{"ha":853,"x_min":0,"x_max":0,"o":"m 174 822 l 243 760 l 435 965 l 339 1040 z m 503 822 l 572 760 l 763 965 l 668 1040 z m 731 0 l 731 654 l 575 654 l 575 260 b 361 133 472 168 414 133 b 272 231 299 133 272 165 l 272 654 l 117 654 l 117 201 b 310 -12 117 65 178 -12 b 583 129 396 -12 469 25 l 593 0 z "},"ù":{"ha":853,"x_min":0,"x_max":0,"o":"m 568 832 l 263 1035 l 199 932 l 517 749 z m 731 0 l 731 654 l 575 654 l 575 260 b 361 133 472 168 414 133 b 272 231 299 133 272 165 l 272 654 l 117 654 l 117 201 b 310 -12 117 65 178 -12 b 583 129 396 -12 469 25 l 593 0 z "},"û":{"ha":853,"x_min":0,"x_max":0,"o":"m 178 824 l 233 760 l 436 925 l 639 760 l 694 824 l 472 1044 l 400 1044 z m 731 0 l 731 654 l 575 654 l 575 260 b 361 133 472 168 414 133 b 272 231 299 133 272 165 l 272 654 l 117 654 l 117 201 b 310 -12 117 65 178 -12 b 583 129 396 -12 469 25 l 593 0 z "},"ǔ":{"ha":853,"x_min":0,"x_max":0,"o":"m 694 969 l 639 1035 l 436 868 l 233 1035 l 178 969 l 400 750 l 472 750 z m 731 0 l 731 654 l 575 654 l 575 260 b 361 133 472 168 414 133 b 272 231 299 133 272 165 l 272 654 l 117 654 l 117 201 b 310 -12 117 65 178 -12 b 583 129 396 -12 469 25 l 593 0 z "},"ŭ":{"ha":853,"x_min":0,"x_max":0,"o":"m 436 867 b 265 1035 364 867 308 911 l 171 1003 b 436 760 218 826 315 760 b 701 1003 557 760 654 826 l 607 1035 b 436 867 564 911 508 867 z m 731 0 l 731 654 l 575 654 l 575 260 b 361 133 472 168 414 133 b 272 231 299 133 272 165 l 272 654 l 117 654 l 117 201 b 310 -12 117 65 178 -12 b 583 129 396 -12 469 25 l 593 0 z "},"ũ":{"ha":853,"x_min":0,"x_max":0,"o":"m 408 847 b 547 760 483 774 515 760 b 719 1003 601 760 646 783 l 628 1036 b 546 878 578 894 564 878 b 461 943 531 878 521 886 b 322 1032 386 1017 356 1032 b 150 788 268 1032 224 1007 l 244 754 b 324 913 293 896 306 913 b 408 847 338 913 349 906 z m 731 0 l 731 654 l 575 654 l 575 260 b 361 133 472 168 414 133 b 272 231 299 133 272 165 l 272 654 l 117 654 l 117 201 b 310 -12 117 65 178 -12 b 583 129 396 -12 469 25 l 593 0 z "},"ū":{"ha":853,"x_min":0,"x_max":0,"o":"m 203 815 l 669 815 l 669 925 l 203 925 z m 731 0 l 731 654 l 575 654 l 575 260 b 361 133 472 168 414 133 b 272 231 299 133 272 165 l 272 654 l 117 654 l 117 201 b 310 -12 117 65 178 -12 b 583 129 396 -12 469 25 l 593 0 z "},"ü":{"ha":853,"x_min":0,"x_max":0,"o":"m 274 788 b 365 874 331 788 365 817 b 275 963 365 931 335 963 b 183 874 218 963 183 926 b 274 788 183 817 217 788 z m 596 788 b 689 874 653 788 689 817 b 597 963 689 931 657 963 b 507 874 542 963 507 926 b 596 788 507 817 539 788 z m 731 0 l 731 654 l 575 654 l 575 260 b 361 133 472 168 414 133 b 272 231 299 133 272 165 l 272 654 l 117 654 l 117 201 b 310 -12 117 65 178 -12 b 583 129 396 -12 469 25 l 593 0 z "},"ǘ":{"ha":853,"x_min":0,"x_max":0,"o":"m 304 1072 l 346 989 l 681 1135 l 631 1240 z m 274 788 b 364 864 329 788 364 814 b 275 942 364 914 333 942 b 186 864 219 942 186 910 b 274 788 186 814 218 788 z m 596 788 b 688 864 651 788 688 814 b 597 942 688 914 656 942 b 508 864 542 942 508 910 b 596 788 508 814 540 788 z m 731 0 l 731 654 l 575 654 l 575 260 b 361 133 472 168 414 133 b 272 231 299 133 272 165 l 272 654 l 117 654 l 117 201 b 310 -12 117 65 178 -12 b 583 129 396 -12 469 25 l 593 0 z "},"ǜ":{"ha":853,"x_min":0,"x_max":0,"o":"m 568 1072 l 242 1240 l 190 1138 l 526 989 z m 274 788 b 364 864 329 788 364 814 b 275 942 364 914 333 942 b 186 864 219 942 186 910 b 274 788 186 814 218 788 z m 596 788 b 688 864 651 788 688 814 b 597 942 688 914 656 942 b 508 864 542 942 508 910 b 596 788 508 814 540 788 z m 731 0 l 731 654 l 575 654 l 575 260 b 361 133 472 168 414 133 b 272 231 299 133 272 165 l 272 654 l 117 654 l 117 201 b 310 -12 117 65 178 -12 b 583 129 396 -12 469 25 l 593 0 z "},"ǚ":{"ha":853,"x_min":0,"x_max":0,"o":"m 694 1192 l 639 1257 l 436 1111 l 233 1257 l 178 1192 l 408 994 l 464 994 z m 274 788 b 364 864 329 788 364 814 b 275 942 364 914 333 942 b 186 864 219 942 186 910 b 274 788 186 814 218 788 z m 596 788 b 688 864 651 788 688 814 b 597 942 688 914 656 942 b 508 864 542 942 508 910 b 596 788 508 814 540 788 z m 731 0 l 731 654 l 575 654 l 575 260 b 361 133 472 168 414 133 b 272 231 299 133 272 165 l 272 654 l 117 654 l 117 201 b 310 -12 117 65 178 -12 b 583 129 396 -12 469 25 l 593 0 z "},"ǖ":{"ha":853,"x_min":0,"x_max":0,"o":"m 213 1039 l 660 1039 l 660 1149 l 213 1149 z m 274 788 b 364 864 329 788 364 814 b 275 942 364 914 333 942 b 186 864 219 942 186 910 b 274 788 186 814 218 788 z m 596 788 b 688 864 651 788 688 814 b 597 942 688 914 656 942 b 508 864 542 942 508 910 b 596 788 508 814 540 788 z m 731 0 l 731 654 l 575 654 l 575 260 b 361 133 472 168 414 133 b 272 231 299 133 272 165 l 272 654 l 117 654 l 117 201 b 310 -12 117 65 178 -12 b 583 129 396 -12 469 25 l 593 0 z "},"ů":{"ha":853,"x_min":0,"x_max":0,"o":"m 435 750 b 643 932 556 750 643 817 b 438 1111 643 1043 558 1111 b 229 931 315 1111 229 1042 b 435 750 229 815 315 750 z m 436 840 b 328 929 367 840 328 867 b 435 1021 328 993 368 1021 b 543 933 506 1021 543 993 b 436 840 543 868 504 840 z m 731 0 l 731 654 l 575 654 l 575 260 b 361 133 472 168 414 133 b 272 231 299 133 272 165 l 272 654 l 117 654 l 117 201 b 310 -12 117 65 178 -12 b 583 129 396 -12 469 25 l 593 0 z "},"ủ":{"ha":853,"x_min":0,"x_max":0,"o":"m 306 750 b 596 918 529 778 596 851 b 321 1064 596 986 546 1036 l 258 986 l 258 982 b 460 901 436 957 460 931 b 272 818 460 874 429 846 l 272 815 z m 731 0 l 731 654 l 575 654 l 575 260 b 361 133 472 168 414 133 b 272 231 299 133 272 165 l 272 654 l 117 654 l 117 201 b 310 -12 117 65 178 -12 b 583 129 396 -12 469 25 l 593 0 z "},"ụ":{"ha":853,"x_min":0,"x_max":0,"o":"m 731 0 l 731 654 l 575 654 l 575 260 b 361 133 472 168 414 133 b 272 231 299 133 272 165 l 272 654 l 117 654 l 117 201 b 310 -12 117 65 178 -12 b 583 129 396 -12 469 25 l 593 0 z m 429 -319 b 526 -226 489 -319 526 -287 b 431 -133 526 -167 493 -133 b 333 -226 371 -133 333 -172 b 429 -319 333 -287 369 -319 z "},"ų":{"ha":853,"x_min":0,"x_max":0,"o":"m 504 -217 b 632 -319 504 -282 542 -315 l 765 -325 l 775 -222 l 683 -217 b 622 -165 635 -214 622 -197 b 706 0 622 -143 628 -110 l 731 0 l 731 654 l 575 654 l 575 260 b 361 133 472 168 414 133 b 272 231 299 133 272 165 l 272 654 l 117 654 l 117 201 b 310 -12 117 65 178 -12 b 583 129 396 -12 469 25 l 593 0 l 628 0 b 504 -217 526 -124 504 -175 z "},"ư":{"ha":853,"x_min":0,"x_max":0,"o":"m 731 0 l 731 563 b 907 810 840 568 903 636 l 765 810 b 631 654 760 689 735 654 l 575 654 l 575 260 b 361 133 472 168 414 133 b 272 231 299 133 272 165 l 272 654 l 117 654 l 117 201 b 310 -12 117 65 178 -12 b 583 129 396 -12 469 25 l 593 0 z "},"ứ":{"ha":853,"x_min":0,"x_max":0,"o":"m 304 833 l 356 750 l 674 932 l 610 1035 z m 731 0 l 731 563 b 907 810 840 568 903 636 l 765 810 b 631 654 760 689 735 654 l 575 654 l 575 260 b 361 133 472 168 414 133 b 272 231 299 133 272 165 l 272 654 l 117 654 l 117 201 b 310 -12 117 65 178 -12 b 583 129 396 -12 469 25 l 593 0 z "},"ừ":{"ha":853,"x_min":0,"x_max":0,"o":"m 568 832 l 263 1035 l 199 932 l 517 749 z m 731 0 l 731 563 b 907 810 840 568 903 636 l 765 810 b 631 654 760 689 735 654 l 575 654 l 575 260 b 361 133 472 168 414 133 b 272 231 299 133 272 165 l 272 654 l 117 654 l 117 201 b 310 -12 117 65 178 -12 b 583 129 396 -12 469 25 l 593 0 z "},"ữ":{"ha":853,"x_min":0,"x_max":0,"o":"m 408 847 b 547 760 483 774 515 760 b 719 1003 601 760 646 783 l 628 1036 b 546 878 578 894 564 878 b 461 943 531 878 521 886 b 322 1032 386 1017 356 1032 b 150 788 268 1032 224 1007 l 244 754 b 324 913 293 896 306 913 b 408 847 338 913 349 906 z m 731 0 l 731 563 b 907 810 840 568 903 636 l 765 810 b 631 654 760 689 735 654 l 575 654 l 575 260 b 361 133 472 168 414 133 b 272 231 299 133 272 165 l 272 654 l 117 654 l 117 201 b 310 -12 117 65 178 -12 b 583 129 396 -12 469 25 l 593 0 z "},"ử":{"ha":853,"x_min":0,"x_max":0,"o":"m 306 750 b 596 918 529 778 596 851 b 321 1064 596 986 546 1036 l 258 986 l 258 982 b 460 901 436 957 460 931 b 272 818 460 874 429 846 l 272 815 z m 731 0 l 731 563 b 907 810 840 568 903 636 l 765 810 b 631 654 760 689 735 654 l 575 654 l 575 260 b 361 133 472 168 414 133 b 272 231 299 133 272 165 l 272 654 l 117 654 l 117 201 b 310 -12 117 65 178 -12 b 583 129 396 -12 469 25 l 593 0 z "},"ự":{"ha":853,"x_min":0,"x_max":0,"o":"m 731 0 l 731 563 b 907 810 840 568 903 636 l 765 810 b 631 654 760 689 735 654 l 575 654 l 575 260 b 361 133 472 168 414 133 b 272 231 299 133 272 165 l 272 654 l 117 654 l 117 201 b 310 -12 117 65 178 -12 b 583 129 396 -12 469 25 l 593 0 z m 429 -319 b 526 -226 489 -319 526 -287 b 431 -133 526 -167 493 -133 b 333 -226 371 -133 333 -172 b 429 -319 333 -287 369 -319 z "},"ṿ":{"ha":853,"x_min":0,"x_max":0,"o":"m 64 654 l 332 0 l 522 0 l 789 654 l 625 654 l 431 136 l 236 654 z m 424 -319 b 521 -226 483 -319 521 -287 b 425 -133 521 -167 488 -133 b 328 -226 365 -133 328 -172 b 424 -319 328 -287 364 -319 z "},"ẃ":{"ha":853,"x_min":0,"x_max":0,"o":"m 293 833 l 344 750 l 663 932 l 599 1035 z m 675 0 l 803 654 l 654 654 l 575 182 l 438 571 l 417 571 l 279 176 l 200 654 l 51 654 l 176 0 l 319 0 l 424 311 l 528 0 z "},"ẁ":{"ha":853,"x_min":0,"x_max":0,"o":"m 557 832 l 251 1035 l 188 932 l 506 749 z m 675 0 l 803 654 l 654 654 l 575 182 l 438 571 l 417 571 l 279 176 l 200 654 l 51 654 l 176 0 l 319 0 l 424 311 l 528 0 z "},"ŵ":{"ha":853,"x_min":0,"x_max":0,"o":"m 167 824 l 222 760 l 425 925 l 628 760 l 683 824 l 461 1044 l 389 1044 z m 675 0 l 803 654 l 654 654 l 575 182 l 438 571 l 417 571 l 279 176 l 200 654 l 51 654 l 176 0 l 319 0 l 424 311 l 528 0 z "},"ẅ":{"ha":853,"x_min":0,"x_max":0,"o":"m 263 788 b 354 874 319 788 354 817 b 264 963 354 931 324 963 b 172 874 207 963 172 926 b 263 788 172 817 206 788 z m 585 788 b 678 874 642 788 678 817 b 586 963 678 931 646 963 b 496 874 531 963 496 926 b 585 788 496 817 528 788 z m 675 0 l 803 654 l 654 654 l 575 182 l 438 571 l 417 571 l 279 176 l 200 654 l 51 654 l 176 0 l 319 0 l 424 311 l 528 0 z "},"ẍ":{"ha":853,"x_min":0,"x_max":0,"o":"m 265 788 b 357 874 322 788 357 817 b 267 963 357 931 326 963 b 175 874 210 963 175 926 b 265 788 175 817 208 788 z m 588 788 b 681 874 644 788 681 817 b 589 963 681 931 649 963 b 499 874 533 963 499 926 b 588 788 499 817 531 788 z m 71 0 l 251 0 l 424 249 l 596 0 l 783 0 l 521 336 l 763 654 l 581 654 l 428 433 l 276 654 l 88 654 l 329 336 z "},"ý":{"ha":853,"x_min":0,"x_max":0,"o":"m 301 840 l 353 757 l 671 939 l 607 1042 z m 460 -151 l 792 654 l 625 654 l 433 147 l 238 654 l 65 654 l 350 -33 l 315 -114 b 183 -186 293 -168 268 -183 l 54 -193 l 58 -326 l 228 -318 b 460 -151 349 -312 407 -281 z "},"ỳ":{"ha":853,"x_min":0,"x_max":0,"o":"m 565 839 l 260 1042 l 196 939 l 514 756 z m 460 -151 l 792 654 l 625 654 l 433 147 l 238 654 l 65 654 l 350 -33 l 315 -114 b 183 -186 293 -168 268 -183 l 54 -193 l 58 -326 l 228 -318 b 460 -151 349 -312 407 -281 z "},"ŷ":{"ha":853,"x_min":0,"x_max":0,"o":"m 175 824 l 231 760 l 433 925 l 636 760 l 692 824 l 469 1044 l 397 1044 z m 460 -151 l 792 654 l 625 654 l 433 147 l 238 654 l 65 654 l 350 -33 l 315 -114 b 183 -186 293 -168 268 -183 l 54 -193 l 58 -326 l 228 -318 b 460 -151 349 -312 407 -281 z "},"ỹ":{"ha":853,"x_min":0,"x_max":0,"o":"m 406 847 b 544 760 481 774 513 760 b 717 1003 599 760 643 783 l 625 1036 b 543 878 575 894 561 878 b 458 943 528 878 518 886 b 319 1032 383 1017 353 1032 b 147 788 265 1032 221 1007 l 242 754 b 321 913 290 896 303 913 b 406 847 335 913 346 906 z m 460 -151 l 792 654 l 625 654 l 433 147 l 238 654 l 65 654 l 350 -33 l 315 -114 b 183 -186 293 -168 268 -183 l 54 -193 l 58 -326 l 228 -318 b 460 -151 349 -312 407 -281 z "},"ȳ":{"ha":853,"x_min":0,"x_max":0,"o":"m 200 815 l 667 815 l 667 925 l 200 925 z m 460 -151 l 792 654 l 625 654 l 433 147 l 238 654 l 65 654 l 350 -33 l 315 -114 b 183 -186 293 -168 268 -183 l 54 -193 l 58 -326 l 228 -318 b 460 -151 349 -312 407 -281 z "},"ÿ":{"ha":853,"x_min":0,"x_max":0,"o":"m 271 788 b 363 874 328 788 363 817 b 272 963 363 931 332 963 b 181 874 215 963 181 926 b 271 788 181 817 214 788 z m 593 788 b 686 874 650 788 686 817 b 594 963 686 931 654 963 b 504 874 539 963 504 926 b 593 788 504 817 536 788 z m 460 -151 l 792 654 l 625 654 l 433 147 l 238 654 l 65 654 l 350 -33 l 315 -114 b 183 -186 293 -168 268 -183 l 54 -193 l 58 -326 l 228 -318 b 460 -151 349 -312 407 -281 z "},"ẏ":{"ha":853,"x_min":0,"x_max":0,"o":"m 433 785 b 531 876 493 785 531 817 b 435 969 531 938 497 969 b 338 876 375 969 338 932 b 433 785 338 817 374 785 z m 460 -151 l 792 654 l 625 654 l 433 147 l 238 654 l 65 654 l 350 -33 l 315 -114 b 183 -186 293 -168 268 -183 l 54 -193 l 58 -326 l 228 -318 b 460 -151 349 -312 407 -281 z "},"ỷ":{"ha":853,"x_min":0,"x_max":0,"o":"m 303 760 b 593 928 526 788 593 861 b 318 1074 593 996 543 1046 l 256 996 l 256 992 b 457 911 433 967 457 940 b 269 828 457 883 426 856 l 269 825 z m 460 -151 l 792 654 l 625 654 l 433 147 l 238 654 l 65 654 l 350 -33 l 315 -114 b 183 -186 293 -168 268 -183 l 54 -193 l 58 -326 l 228 -318 b 460 -151 349 -312 407 -281 z "},"ỵ":{"ha":853,"x_min":0,"x_max":0,"o":"m 460 -151 l 792 654 l 625 654 l 433 147 l 238 654 l 65 654 l 350 -33 l 315 -114 b 183 -186 293 -168 268 -183 l 54 -193 l 58 -326 l 228 -318 b 460 -151 349 -312 407 -281 z m 683 -319 b 781 -226 743 -319 781 -287 b 685 -133 781 -167 747 -133 b 588 -226 625 -133 588 -172 b 683 -319 588 -287 624 -319 z "},"ź":{"ha":853,"x_min":0,"x_max":0,"o":"m 297 843 l 349 760 l 667 942 l 603 1044 z m 114 0 l 749 0 l 749 124 l 329 124 l 329 128 l 726 546 l 726 654 l 131 654 l 131 531 l 515 531 l 515 526 l 114 107 z "},"ẑ":{"ha":853,"x_min":0,"x_max":0,"o":"m 171 824 l 226 760 l 429 925 l 632 760 l 688 824 l 465 1044 l 393 1044 z m 114 0 l 749 0 l 749 124 l 329 124 l 329 128 l 726 546 l 726 654 l 131 654 l 131 531 l 515 531 l 515 526 l 114 107 z "},"ž":{"ha":853,"x_min":0,"x_max":0,"o":"m 688 979 l 632 1044 l 429 878 l 226 1044 l 171 979 l 393 760 l 465 760 z m 114 0 l 749 0 l 749 124 l 329 124 l 329 128 l 726 546 l 726 654 l 131 654 l 131 531 l 515 531 l 515 526 l 114 107 z "},"ż":{"ha":853,"x_min":0,"x_max":0,"o":"m 429 788 b 526 879 489 788 526 819 b 431 972 526 940 493 972 b 333 879 371 972 333 935 b 429 788 333 819 369 788 z m 114 0 l 749 0 l 749 124 l 329 124 l 329 128 l 726 546 l 726 654 l 131 654 l 131 531 l 515 531 l 515 526 l 114 107 z "},"ẓ":{"ha":853,"x_min":0,"x_max":0,"o":"m 114 0 l 749 0 l 749 124 l 329 124 l 329 128 l 726 546 l 726 654 l 131 654 l 131 531 l 515 531 l 515 526 l 114 107 z m 429 -319 b 526 -226 489 -319 526 -287 b 431 -133 526 -167 493 -133 b 333 -226 371 -133 333 -172 b 429 -319 333 -287 369 -319 z "},"ẕ":{"ha":853,"x_min":0,"x_max":0,"o":"m 114 0 l 749 0 l 749 124 l 329 124 l 329 128 l 726 546 l 726 654 l 131 654 l 131 531 l 515 531 l 515 526 l 114 107 z m 196 -272 l 663 -272 l 663 -161 l 196 -161 z "},"ð":{"ha":853,"x_min":0,"x_max":0,"o":"m 553 1050 l 450 939 b 251 1007 390 969 322 992 l 211 879 b 363 829 272 865 319 850 l 249 713 l 315 654 l 440 790 b 615 536 538 733 596 664 b 400 588 536 578 468 588 b 78 293 211 588 78 451 b 400 -21 78 101 214 -21 b 775 444 626 -21 775 149 b 528 897 775 622 711 782 l 622 992 z m 239 293 b 429 471 239 394 303 471 b 618 418 482 471 532 463 b 408 108 611 196 522 108 b 239 293 311 108 239 179 z "},"þ":{"ha":853,"x_min":0,"x_max":0,"o":"m 118 -319 l 274 -319 l 274 67 b 464 -8 342 7 401 -8 b 781 339 640 -8 781 132 b 499 667 781 544 650 667 b 274 564 413 667 346 638 l 274 986 l 118 986 z m 440 539 b 619 329 542 539 619 460 b 415 118 619 211 546 118 b 274 175 376 118 332 129 l 274 458 b 440 539 340 519 388 539 z "},"ə":{"ha":853,"x_min":0,"x_max":0,"o":"m 340 544 b 607 381 518 539 590 494 l 99 381 b 92 315 94 364 92 342 b 414 -19 92 106 218 -19 b 760 336 621 -19 760 136 b 390 667 760 544 654 663 l 224 669 l 218 549 z m 413 100 b 243 272 317 100 251 157 l 606 272 b 413 100 586 161 511 100 z "}," ":{"ha":853,"x_min":0,"x_max":0,"o":""}," ":{"ha":853,"x_min":0,"x_max":0,"o":""},"⁄":{"ha":853,"x_min":0,"x_max":0,"o":"m 714 913 l 379 469 l 0 -3 l 139 -3 l 468 438 l 853 913 z "},"‑":{"ha":853,"x_min":0,"x_max":0,"o":"m 167 463 l 167 310 l 686 310 l 686 463 z "},"―":{"ha":853,"x_min":0,"x_max":0,"o":"m 69 463 l 69 310 l 783 310 l 783 463 z "},"́":{"ha":0,"x_min":0,"x_max":0,"o":"m -132 843 l -81 760 l 238 942 l 174 1044 z "},"̋":{"ha":0,"x_min":0,"x_max":0,"o":"m -262 822 l -193 760 l -1 965 l -97 1040 z m 67 822 l 136 760 l 326 965 l 232 1040 z "},"̀":{"ha":0,"x_min":0,"x_max":0,"o":"m 132 842 l -174 1044 l -237 942 l 81 758 z "},"̕":{"ha":0,"x_min":0,"x_max":0,"o":"m 0 675 l 103 675 l 140 986 l 0 986 z "}}}
